<?xml version="1.0" encoding="UTF-8"?>
<svg width="3380px" height="2590px" viewBox="0 0 3380 2590" version="1.1" xmlns="http://www.w3.org/2000/svg" xmlns:xlink="http://www.w3.org/1999/xlink">
    <title>services2</title>
    <g id="services2" stroke="none" stroke-width="1" fill="none" fill-rule="evenodd">
        <g id="Group-3" transform="translate(214.715510, 182.000000)">
            <g id="Group-2" transform="translate(1427.657244, 1112.500000) rotate(-90.000000) translate(-1427.657244, -1112.500000) translate(315.157244, -1.000000)" fill="#ECEEF1" opacity="0.482282366">
                <path d="M694.713924,2155.17941 C706.668248,2160.45652 718.814941,2165.34885 730.906671,2170.3786 C755.172575,2180.27319 770.644493,2185.52282 781.994231,2187.77659 C793.508856,2189.70054 800.516563,2189.50814 807.441827,2189.31575 C814.394571,2189.09587 821.319835,2188.87599 832.642092,2190.63503 C838.330701,2191.48706 845.091077,2192.86131 853.555288,2194.92268 C861.992018,2197.23142 872.132583,2199.73255 884.581569,2202.34363 C984.091012,2223.64448 1087.7776,2231.78003 1190.4199,2224.24915 C1293.0622,2216.77324 1394.30296,2194.04316 1489.16808,2157.62557 C1679.33801,2084.79038 1842.384,1960.03608 1965.60973,1807.02722 C2088.91789,1653.82596 2174.52184,1470.55614 2208.35121,1274.28593 C2225.25215,1176.30199 2228.87967,1075.26722 2217.74978,975.386821 C2206.78478,875.533904 2180.89748,777.055236 2141.65432,685.117992 C2175.73102,779.309004 2191.3953,866.216497 2199.30989,952.436866 C2206.81226,1038.79466 2206.61989,1125.15245 2197.46865,1222.72412 C2191.36782,1221.95454 2179.35854,1220.52532 2171.99357,1268.01936 C2157.67587,1338.7382 2138.27414,1411.21608 2111.23263,1479.92852 C2084.10868,1548.50354 2051.68086,1614.0552 2015.26826,1671.99353 C1942.36063,1787.92516 1855.41009,1872.52392 1794.15449,1909.93097 C1784.26125,1916.58233 1774.23061,1922.95885 1762.30377,1929.33536 C1750.29448,1935.51948 1736.93862,1942.33575 1721.52166,1950.99352 C1706.407,1960.03608 1687.80223,1969.18858 1666.39437,1981.66675 C1645.37124,1994.69463 1619.15418,2007.69503 1589.11722,2025.50529 C1609.1785,2013.63178 1629.54207,2002.19803 1649.16365,1989.77482 C1668.26309,1976.637 1687.80223,1963.99392 1706.43448,1950.16897 C1702.752,1945.24916 1695.46948,1935.40954 1695.46948,1935.40954 C1620.91297,1987.63099 1528.71353,2035.31743 1430.46822,2065.35851 C1332.47025,2096.05922 1229.33328,2108.61986 1138.92012,2105.26669 C1138.92012,2105.26669 1138.89264,2093.03588 1138.89264,2086.90673 L1116.77027,2087.15409 C1109.40531,2086.90673 1102.06782,2086.30206 1094.67538,2085.8623 L1050.56805,2082.92141 C1029.76477,2069.64616 1044.54966,2064.47899 1080.49508,2060.93343 C1089.45395,2060.13636 1099.78688,2059.53169 1111.24655,2059.1469 C1122.70621,2058.56972 1135.34756,2056.89313 1148.86832,2055.95864 C1176.01975,2054.69434 1206.74373,2050.04937 1239.66622,2045.7892 C1305.29133,2035.09755 1378.61119,2015.83058 1445.1157,1988.31812 C1461.52198,1980.97963 1478.25804,1974.87797 1493.64751,1966.79738 C1509.00951,1958.82674 1524.06921,1951.07598 1538.57928,1943.57258 C1566.44522,1926.55938 1592.77222,1911.58007 1613.57549,1895.47387 C1610.14034,1890.41664 1603.29752,1880.27468 1599.86237,1875.16247 C1577.79496,1891.24118 1553.6115,1903.96673 1530.27996,1918.03904 L1529.37308,1916.41742 C1913.50536,1706.01993 2137.4497,1205.1887 1958.05239,758.970122 C1936.31476,704.934659 1908.53126,653.647694 1875.85611,605.658927 C1878.49431,608.352454 1881.07754,611.100952 1883.66077,613.876934 C1895.6151,627.399542 1907.95416,640.922151 1919.35886,654.252364 C1930.15897,668.159762 1940.46442,681.435005 1949.78055,693.390969 C1967.58837,718.072478 1980.91676,738.328905 1988.22676,746.794277 C2003.89104,773.482189 2012.4377,770.046567 2015.73544,747.453917 C2017.76905,736.514896 2016.77973,719.199362 2014.69116,698.0909 C2013.0148,676.680104 2007.87582,652.136021 2001.00552,624.980865 C1997.90014,611.183407 1993.47567,597.303494 1988.47409,583.066277 C1983.44503,568.884029 1978.60834,553.794777 1972.45255,539.200255 C1959.83867,510.148636 1946.12555,479.832707 1929.44446,451.907972 C1914.0275,422.938808 1894.95555,397.295325 1877.72483,372.366452 C1858.90021,349.196617 1841.55957,326.823847 1824.24641,310.003042 C1790.93919,274.739818 1795.22625,268.528214 1810.03862,269.682583 C1824.76855,270.781982 1849.96882,279.577174 1855.95972,272.65096 C1815.58983,242.280062 1786.59716,218.258193 1757.16479,193.933989 C1741.96768,182.500239 1726.63317,171.093974 1709.45741,159.550284 C1692.2267,148.116535 1672.22038,138.057033 1649.19113,127.227953 C1650.01557,125.661309 1633.71921,115.574323 1605.79831,101.529501 C1591.89282,94.3834069 1575.34913,85.8080944 1555.9474,78.1123012 C1536.62812,70.361538 1515.82484,60.6043716 1492.54826,53.4582779 C1401.31066,20.6412168 1282.64682,0.85203425 1205.64449,0 C1205.64449,0 1192.70084,0.742094346 1160.52035,2.55610275 C1128.44978,4.67244589 1077.14237,7.39345849 1001.62402,18.8821784 C951.305934,27.3200659 952.8174,34.3287348 953.971611,40.0456097 C952.762438,34.053885 952.762438,34.053885 951.525784,28.0346753 C927.72706,38.8087858 891.039652,47.9337978 854.407206,57.9932989 C817.77476,67.9153752 781.609494,80.0637345 759.129868,92.1571238 C756.848928,86.4677339 756.848928,86.4677339 754.567988,80.7783439 C665.144148,131.213274 568.630156,172.083433 491.930113,239.998809 C488.165188,235.188938 488.165188,235.188938 484.372782,230.351582 C464.531352,246.677658 444.882291,263.113673 429.685184,274.932213 C414.76289,287.025602 404.924619,295.13367 402.698641,292.797447 C398.521498,288.344881 398.521498,288.344881 394.316874,283.86483 C350.649239,314.180758 292.27916,400.675977 283.37525,393.090124 C288.102017,396.99299 288.102017,396.99299 292.828784,400.895857 C227.50596,480.217497 180.348212,556.873095 140.637871,630.450375 C131.156856,649.140158 121.840727,667.472637 112.689486,685.530266 C104.610012,704.192565 96.6679436,722.580014 88.7808378,740.802553 C84.9059879,749.95505 81.0586192,759.052577 77.2387317,768.122619 C73.9409871,777.46751 70.6707238,786.757432 67.4004604,796.019869 C61.0248208,814.654683 54.6766625,833.234526 48.3285042,851.786885 C16.0106073,951.639802 -2.73157448,1065.15275 0.483726493,1184.90479 C3.45169662,1304.9042 29.1466232,1427.59713 74.5180924,1541.85217 C164.958738,1771.35172 332.704012,1967.45702 534.086282,2093.1733 C579.237901,2121.40037 629.913243,2137.4516 591.631925,2099.96209 C613.314595,2114.00691 636.536213,2125.85294 659.840275,2137.56154 L694.713924,2155.17941" id="Fill-651"></path>
            </g>
            <g id="Group" transform="translate(0.000000, 466.420000)">
                <path d="M539.65449,744.46 C535.08949,744.46 530.97449,741.3 529.95949,736.66 L500.49449,602.58 C491.30449,560.78 447.38949,525.47 404.59449,525.47 L374.48949,525.47 C354.43949,525.47 337.33449,533.01 326.31449,546.7 C315.30949,560.39 311.61449,578.72 315.92449,598.32 L345.39449,732.39 C346.56449,737.75 343.17449,743.06 337.81449,744.23 C332.45949,745.41 327.14949,742.02 325.97949,736.66 L296.51449,602.58 C290.88949,576.99 295.97449,552.72 310.83449,534.25 C325.69449,515.77 348.30949,505.6 374.49449,505.6 L404.59949,505.6 C456.94949,505.6 508.67449,547.18 519.90449,598.31 L549.36449,732.39 C550.54949,737.75 547.15449,743.06 541.78949,744.23 C541.07449,744.39 540.36449,744.46 539.65449,744.46" id="Fill-18" fill="#767B80"></path>
                <path d="M34.4744897,1284.61 C13.4744897,1281.39 2.25448967,1262.73 8.21448967,1235.56 L136.80449,650.44 C140.78949,632.33 146.02949,623.27 151.27949,623.27 L609.44449,623.27 C614.68449,623.27 619.93449,632.33 623.92449,650.44 L752.50449,1235.56 C760.47449,1271.79 737.85449,1292.89 702.26449,1282.43 L674.16449,1274.18 C638.57449,1263.74 580.32449,1263.74 544.71949,1274.18 L516.62449,1282.43 C507.72449,1285.04 499.63949,1285.68 492.63949,1284.61 L34.4744897,1284.61" id="Fill-19" fill="#F6F7F8"></path>
                <path d="M623.91449,650.44 C619.93449,632.33 614.68449,623.27 609.44449,623.27 C604.18449,623.27 598.93449,632.33 594.95449,650.44 L466.37449,1235.56 C460.39949,1262.73 471.62449,1281.39 492.62949,1284.61 C499.63449,1285.68 507.71449,1285.04 516.61949,1282.43 L544.70949,1274.18 C580.31449,1263.74 638.55449,1263.74 674.15449,1274.18 L702.25449,1282.43 C737.84449,1292.89 760.45449,1271.79 752.49449,1235.56 L623.91449,650.44" id="Fill-20" fill="#F36763"></path>
                <path d="M428.01949,744.46 C427.31949,744.46 426.60449,744.39 425.88949,744.23 C420.52949,743.06 417.13449,737.75 418.30949,732.39 L447.78449,598.31 C452.08949,578.73 448.39949,560.39 437.38949,546.69 C426.37449,533 409.26449,525.47 389.20949,525.47 L359.10949,525.47 C316.31449,525.47 272.39449,560.77 263.21449,602.58 L233.75449,736.66 C232.56949,742.02 227.26449,745.41 221.91449,744.23 C216.55449,743.06 213.16449,737.75 214.34449,732.39 L243.80449,598.31 C255.04449,547.18 306.76449,505.6 359.10949,505.6 L389.20949,505.6 C415.39949,505.6 438.01449,515.77 452.86949,534.25 C467.72449,552.72 472.81949,576.99 467.18949,602.58 L437.72949,736.66 C436.70949,741.3 432.59449,744.46 428.01949,744.46" id="Fill-21" fill="#767B80"></path>
                <path d="M492.15949,1291.24 L34.4744897,1291.24 C34.1344897,1291.24 33.7994897,1291.21 33.4644897,1291.16 C20.7744897,1289.21 11.0994897,1282.5 5.43448967,1272.27 C0.099489669,1262.63 -1.65551033,1249.6 1.73948967,1234.13 L41.2694897,1054.25 C42.0544897,1050.68 45.5944897,1048.41 49.1694897,1049.2 C52.7444897,1049.98 55.0094897,1053.52 54.2244897,1057.1 L14.6944897,1236.98 C9.79948967,1259.26 17.9594897,1275.1 35.0194897,1277.98 L492.63949,1277.98 C492.97449,1277.98 493.30949,1278 493.63949,1278.06 C499.80949,1279 506.91949,1278.36 514.75949,1276.07 C514.75949,1276.07 542.84949,1267.82 542.85449,1267.82 C579.48449,1257.07 639.41449,1257.07 676.03449,1267.82 L704.13449,1276.07 C719.15449,1280.48 731.51449,1278.82 739.19449,1271.65 C746.88449,1264.48 749.38449,1252.26 746.03449,1236.97 C745.24449,1233.4 747.50449,1229.86 751.07449,1229.08 C754.65449,1228.29 758.19449,1230.55 758.97449,1234.13 C763.58449,1255.07 758.76449,1271.52 748.24449,1281.34 C737.70449,1291.17 720.97449,1294.84 700.39449,1288.79 L672.29449,1280.54 C637.72449,1270.4 581.16449,1270.4 546.58949,1280.54 C546.58949,1280.54 518.49449,1288.79 518.48949,1288.79 C508.74949,1291.65 499.87949,1292.33 492.15949,1291.24" id="Fill-22" fill="#767B80"></path>
                <path d="M151.85949,629.9 C151.45449,630.35 150.15449,631.83 149.38949,633.23 C147.13949,637.37 145.09949,643.59 143.27949,651.87 L78.6944897,945.73 C77.9094897,949.31 74.3694897,951.58 70.7994897,950.79 C67.2244897,950 64.9594897,946.46 65.7444897,942.89 L130.32949,649.02 C133.48449,634.66 137.70449,625.47 141.77449,621.16 C144.83949,617.91 148.14449,616.64 151.27949,616.64 L609.44449,616.64 C612.57449,616.64 615.88449,617.91 618.95449,621.16 C623.01449,625.47 627.24449,634.66 630.39449,649.02 L662.17449,793.62 C662.95449,797.2 660.69449,800.73 657.11449,801.52 C653.54449,802.31 650.00449,800.04 649.22449,796.47 L617.43449,651.87 C615.62449,643.6 613.57449,637.37 611.32449,633.23 C610.56449,631.83 609.26449,630.35 608.86449,629.89 L151.85949,629.9" id="Fill-23" fill="#767B80"></path>
                <path d="M2405.80449,128.39 L2405.80449,1132.91 L1789.40449,1224.23 L1325.20449,1224.23 L701.20449,1132.91 L701.20449,128.39 C701.20449,61.435 755.98449,6.63 822.93449,6.63 L2284.03449,6.63 C2351.02449,6.63 2405.80449,61.43 2405.80449,128.39 L2405.80449,128.39" id="Fill-24" fill="#FBEDEC"></path>
                <path d="M707.82449,1132.91 L707.82449,584.99 C707.82449,581.33 704.85449,578.36 701.20449,578.36 C697.53449,578.36 694.57449,581.33 694.57449,584.99 L694.57449,1132.91 C694.57449,1136.57 697.53449,1139.54 701.20449,1139.54 C704.85449,1139.54 707.82449,1136.57 707.82449,1132.91" id="Fill-25" fill="#767B80"></path>
                <path d="M707.82449,365.33 L707.82449,128.39 C707.82449,65.08 759.63449,13.265 822.93449,13.265 L1776.07449,13.265 C1779.73449,13.265 1782.70449,10.295 1782.70449,6.635 C1782.70449,2.975 1779.73449,0.005 1776.07449,0.005 L822.93449,0.005 C752.34449,0.005 694.57449,57.79 694.57449,128.39 L694.57449,365.33 C694.57449,368.99 697.53449,371.96 701.20449,371.96 C704.85449,371.96 707.82449,368.99 707.82449,365.33" id="Fill-26" fill="#80797D"></path>
                <path d="M2058.69449,13.265 L2284.03449,13.26 C2347.37449,13.26 2399.16449,65.075 2399.16449,128.39 C2399.16449,132.04 2402.14449,135.02 2405.79449,135.02 C2409.45449,135.02 2412.43449,132.04 2412.43449,128.39 C2412.43449,57.785 2354.67449,0 2284.03449,0 L2058.69449,0 C2055.03449,0 2052.06449,2.975 2052.06449,6.635 C2052.06449,10.29 2055.03449,13.265 2058.69449,13.265" id="Fill-27" fill="#80797D"></path>
                <path d="M2399.16449,438.95 L2399.16449,669.24 C2399.16449,672.9 2402.14449,675.87 2405.79449,675.87 C2409.45449,675.87 2412.43449,672.9 2412.43449,669.24 L2412.43449,438.95 C2412.43449,435.29 2409.46449,432.31 2405.79449,432.31 C2402.14449,432.31 2399.16449,435.29 2399.16449,438.95" id="Fill-28" fill="#767B80"></path>
                <path d="M2399.16449,1089.53 L2399.16449,1132.91 C2399.16449,1136.57 2402.14449,1139.54 2405.79449,1139.54 C2409.45449,1139.54 2412.43449,1136.57 2412.43449,1132.91 L2412.43449,1089.53 C2412.43449,1085.87 2409.46449,1082.9 2405.79449,1082.9 C2402.14449,1082.9 2399.16449,1085.87 2399.16449,1089.53" id="Fill-29" fill="#767B80"></path>
                <polygon id="Fill-30" fill="#FFFFFF" points="822.93449 1041.59 2284.03449 1041.59 2284.03449 128.39 822.93449 128.39"></polygon>
                <path d="M2277.40449,135.02 L906.45449,135.02 C902.78449,135.02 899.82449,132.06 899.82449,128.39 C899.82449,124.73 902.78449,121.77 906.45449,121.77 L2284.03449,121.77 C2287.69449,121.77 2290.66449,124.73 2290.66449,128.39 L2290.66449,443.31 C2290.66449,446.96 2287.69449,449.93 2284.03449,449.93 C2280.37449,449.93 2277.40449,446.96 2277.40449,443.31 L2277.40449,135.02" id="Fill-31" fill="#767B80"></path>
                <path d="M829.55449,1034.96 L2284.03449,1034.96 C2287.69449,1034.96 2290.66449,1037.93 2290.66449,1041.59 C2290.66449,1045.25 2287.69449,1048.22 2284.03449,1048.22 L822.93449,1048.22 C819.26449,1048.22 816.30449,1045.25 816.30449,1041.59 L816.30449,739.73 C816.30449,736.06 819.26449,733.1 822.93449,733.1 C826.59449,733.1 829.55449,736.06 829.55449,739.73 L829.55449,1034.96" id="Fill-32" fill="#767B80"></path>
                <path d="M2466.68449,1132.91 L2466.68449,1163.33 C2466.68449,1230.31 2411.91449,1285.1 2344.93449,1285.1 L762.07449,1285.11 C695.09449,1285.11 640.30449,1230.31 640.30449,1163.33 L640.30449,1132.91 L1401.31449,1132.91 L1418.20449,1166.52 C1425.63449,1181.62 1445.44449,1193.77 1462.18449,1193.77 L1644.81449,1193.77 C1661.55449,1193.77 1681.35449,1181.62 1688.80449,1166.52 L1705.70449,1132.91 L2466.68449,1132.91" id="Fill-33" fill="#FBEDEC"></path>
                <path d="M1669.31449,1186.4 C1677.70449,1181.43 1684.92449,1174.37 1688.79449,1166.52 L1705.70449,1132.91 L2466.68449,1132.91 L2466.68449,1163.33 C2466.68449,1171.21 2465.92449,1178.92 2464.47449,1186.4 L1669.31449,1186.4 Z M642.51449,1186.4 C641.06449,1178.92 640.30449,1171.21 640.30449,1163.33 L640.30449,1132.91 L1401.31449,1132.91 L1418.20449,1166.52 C1422.07449,1174.37 1429.28449,1181.43 1437.68449,1186.4 L642.51449,1186.4 L642.51449,1186.4 Z" id="Fill-34" fill="#F36763"></path>
                <path d="M1397.22449,1139.54 L1213.13449,1139.54 C1209.48449,1139.54 1206.51449,1136.57 1206.51449,1132.91 C1206.51449,1129.25 1209.48449,1126.28 1213.13449,1126.28 L1401.31449,1126.28 C1403.82449,1126.28 1406.11449,1127.7 1407.24449,1129.93 C1407.24449,1129.93 1424.13449,1163.55 1424.15449,1163.6 C1430.57449,1176.64 1447.71449,1187.14 1462.18449,1187.14 L1644.81449,1187.14 C1659.28449,1187.14 1676.41449,1176.64 1682.85449,1163.59 L1699.78449,1129.93 C1700.91449,1127.7 1703.20449,1126.28 1705.70449,1126.28 L2466.68449,1126.28 C2470.33449,1126.28 2473.31449,1129.25 2473.31449,1132.91 L2473.31449,1163.33 C2473.31449,1233.96 2415.56449,1291.73 2344.93449,1291.73 L1197.06449,1291.74 C1193.40449,1291.74 1190.43449,1288.77 1190.43449,1285.11 C1190.43449,1281.45 1193.40449,1278.48 1197.06449,1278.48 L2344.93449,1278.48 C2408.26449,1278.48 2460.05449,1226.66 2460.05449,1163.33 L2460.05449,1139.54 L1709.79449,1139.54 L1694.74449,1169.46 C1686.28449,1186.6 1663.82449,1200.41 1644.81449,1200.41 L1462.18449,1200.41 C1443.18449,1200.41 1420.69449,1186.59 1412.28449,1169.5 L1397.22449,1139.54" id="Fill-35" fill="#767B80"></path>
                <path d="M646.93449,1139.54 L646.93449,1163.33 C646.93449,1226.66 698.74449,1278.48 762.07449,1278.48 L1121.80449,1278.48 C1125.46449,1278.48 1128.43449,1281.45 1128.43449,1285.11 C1128.43449,1288.77 1125.46449,1291.74 1121.80449,1291.74 L762.07449,1291.74 C691.44449,1291.74 633.67449,1233.96 633.67449,1163.33 L633.67449,1132.91 C633.67449,1129.25 636.64449,1126.28 640.30449,1126.28 L1018.75449,1126.28 C1022.41449,1126.28 1025.38449,1129.25 1025.38449,1132.91 C1025.38449,1136.57 1022.41449,1139.54 1018.75449,1139.54 L646.93449,1139.54" id="Fill-36" fill="#767B80"></path>
                <path d="M1912.24449,913.93 C1912.24449,939.55 1891.28449,960.51 1865.66449,960.51 L1298.11449,960.51 C1272.48449,960.51 1251.53449,939.55 1251.53449,913.93 L1251.53449,442.64 C1251.53449,417.02 1272.48449,396.06 1298.11449,396.06 L1865.66449,396.06 C1891.28449,396.06 1912.24449,417.02 1912.24449,442.64 L1912.24449,913.93" id="Fill-37" fill="#F36763"></path>
                <polygon id="Fill-38" fill="#FBEDEC" points="1652.17449 960.51 1815.20449 960.51 1815.20449 634.45 1652.17449 634.45"></polygon>
                <path d="M1258.16449,592.25 L1258.16449,442.64 C1258.16449,420.67 1276.13449,402.7 1298.10449,402.7 L1865.66449,402.7 C1887.64449,402.7 1905.61449,420.68 1905.61449,442.64 L1905.61449,913.93 C1905.61449,924.91 1901.11449,934.9 1893.87449,942.14 C1891.28449,944.73 1891.28449,948.93 1893.87449,951.52 C1896.46449,954.1 1900.66449,954.1 1903.25449,951.52 C1912.90449,941.87 1918.87449,928.56 1918.87449,913.93 L1918.87449,442.64 C1918.87449,413.38 1894.93449,389.43 1865.66449,389.43 L1298.10449,389.43 C1268.83449,389.43 1244.89449,413.38 1244.89449,442.64 L1244.89449,592.25 C1244.89449,595.91 1247.86449,598.88 1251.52449,598.88 C1255.18449,598.88 1258.16449,595.91 1258.16449,592.25" id="Fill-39" fill="#767B80"></path>
                <path d="M1778.24449,953.88 L1298.10449,953.88 C1276.13449,953.88 1258.16449,935.91 1258.16449,913.93 L1258.16449,698.39 C1258.16449,694.73 1255.18449,691.76 1251.53449,691.76 C1247.86449,691.76 1244.90449,694.73 1244.90449,698.39 L1244.90449,913.93 C1244.90449,943.2 1268.84449,967.14 1298.11449,967.14 L1778.24449,967.14 C1781.91449,967.14 1784.87449,964.17 1784.87449,960.51 C1784.87449,956.85 1781.91449,953.88 1778.24449,953.88" id="Fill-40" fill="#767B80"></path>
                <path d="M1362.78449,245.74 C1343.35449,335.03 1324.59449,400.2 1313.16449,490.92 C1309.59449,528.38 1275.08449,558.68 1232.84449,558.68 L1206.38449,558.68 C1164.15449,558.68 1129.51449,528.39 1135.48449,491.02 C1155.07449,398.37 1186.30449,334.75 1218.21449,245.76 C1276.03449,245.75 1304.93449,245.75 1362.78449,245.74" id="Fill-41" fill="#F36763"></path>
                <path d="M1507.37449,245.71 C1500.68449,335.15 1494.53449,401.19 1490.81449,490.81 C1489.64449,528.37 1455.11449,558.68 1412.88449,558.68 L1386.42449,558.68 C1344.19449,558.68 1309.59449,528.38 1313.16449,490.92 C1324.59449,400.2 1343.35449,335.03 1362.78449,245.74 C1420.61449,245.73 1449.53449,245.73 1507.37449,245.71" id="Fill-42" fill="#FBEDEC"></path>
                <path d="M1651.97449,245.69 C1658.32449,335.12 1664.67449,401.14 1668.47449,490.72 C1669.69449,528.37 1635.13449,558.67 1592.90449,558.67 L1566.45449,558.67 C1524.22449,558.67 1489.64449,528.37 1490.81449,490.81 C1494.53449,401.19 1500.69449,335.15 1507.37449,245.71 C1565.22449,245.71 1594.11449,245.69 1651.97449,245.69" id="Fill-43" fill="#F36763"></path>
                <path d="M1796.55449,245.67 C1816.10449,334.85 1834.69449,399.96 1846.12449,490.61 C1849.74449,528.35 1815.15449,558.67 1772.91449,558.67 C1762.33449,558.67 1757.04449,558.68 1746.46449,558.68 C1704.24449,558.68 1669.69449,528.37 1668.47449,490.72 C1664.67449,401.14 1658.32449,335.12 1651.97449,245.69 C1709.80449,245.68 1738.71449,245.68 1796.55449,245.67" id="Fill-44" fill="#FBEDEC"></path>
                <path d="M1941.14449,245.64 C1973.66449,334.39 2004.40449,397.84 2023.80449,490.5 C2029.82449,528.35 1995.20449,558.67 1952.95449,558.67 L1926.50449,558.67 C1884.25449,558.67 1849.74449,528.35 1846.12449,490.61 C1834.69449,399.96 1816.09449,334.85 1796.55449,245.67 C1854.38449,245.66 1883.32449,245.65 1941.13449,245.64 L1941.14449,245.64" id="Fill-45" fill="#F36763"></path>
                <path d="M1804.80449,252.3 C1807.44449,264.17 1810.05449,275.63 1812.63449,286.8 C1813.45449,290.37 1811.23449,293.93 1807.66449,294.75 C1804.10449,295.57 1800.53449,293.35 1799.71449,289.78 C1796.54449,276.06 1793.32449,261.9 1790.07449,247.09 C1789.65449,245.13 1790.12449,243.08 1791.39449,241.52 C1792.64449,239.95 1794.54449,239.04 1796.55449,239.04 C1854.38449,239.03 1883.32449,239.02 1941.14449,239.01 C1943.91449,239.01 1946.41449,240.75 1947.36449,243.36 C1973.38449,314.36 1998.25449,369.22 2017.12449,435.7 C2018.12449,439.22 2016.07449,442.89 2012.56449,443.89 C2009.03449,444.89 2005.36449,442.84 2004.36449,439.32 C1985.97449,374.52 1961.82449,320.83 1936.52449,252.27 L1804.80449,252.3" id="Fill-46" fill="#767B80"></path>
                <path d="M1839.53449,491.37 C1835.54449,459.71 1830.66449,431.17 1825.17449,403.63 C1824.46449,400.04 1826.79449,396.55 1830.38449,395.83 C1833.97449,395.12 1837.46449,397.46 1838.18449,401.04 C1843.73449,428.89 1848.66449,457.75 1852.70449,489.78 L1852.72449,489.98 C1856.03449,524.53 1887.83449,552.04 1926.50449,552.04 L1952.95449,552.04 C1982.03449,552.04 2007.37449,536.56 2015.33449,513.89 C2016.54449,510.44 2020.32449,508.62 2023.78449,509.83 C2027.23449,511.04 2029.05449,514.83 2027.84449,518.28 C2018.22449,545.71 1988.12449,565.3 1952.95449,565.3 L1926.50449,565.3 C1880.74449,565.3 1843.53449,532.25 1839.53449,491.37" id="Fill-47" fill="#767B80"></path>
                <polygon id="Fill-48" fill="#FBEDEC" points="1317.38449 780.01 1588.12449 780.01 1588.12449 634.45 1317.38449 634.45"></polygon>
                <path d="M1839.53449,491.24 C1842.78449,525.3 1811.02449,552.04 1772.91449,552.04 C1762.33449,552.04 1757.04449,552.04 1746.46449,552.04 C1707.99449,552.04 1676.21449,524.81 1675.10449,490.5 C1674.73449,481.81 1674.33449,473.39 1673.93449,465.15 C1673.74449,461.5 1670.63449,458.68 1666.98449,458.86 C1663.32449,459.04 1660.50449,462.16 1660.68449,465.81 C1661.09449,474.02 1661.48449,482.4 1661.85449,491 C1663.17449,531.93 1700.47449,565.3 1746.46449,565.3 C1757.04449,565.3 1762.33449,565.3 1772.91449,565.3 C1819.28449,565.3 1856.70449,531.42 1852.73449,489.97 C1852.37449,486.33 1849.14449,483.66 1845.49449,484.01 C1841.85449,484.35 1839.18449,487.59 1839.53449,491.24" id="Fill-49" fill="#767B80"></path>
                <path d="M1659.08449,252.32 C1661.20449,281.56 1663.29449,308.38 1665.29449,334.46 C1665.57449,338.12 1662.83449,341.31 1659.19449,341.58 C1655.53449,341.86 1652.34449,339.12 1652.07449,335.48 C1649.91449,307.27 1647.63449,278.22 1645.35449,246.16 C1645.22449,244.33 1645.86449,242.52 1647.11449,241.17 C1648.36449,239.83 1650.12449,239.06 1651.96449,239.06 C1709.80449,239.05 1738.71449,239.05 1796.55449,239.04 C1800.21449,239.04 1803.18451,242.01 1803.18451,245.67 C1803.19449,249.33 1800.21449,252.3 1796.55449,252.3 L1659.08449,252.32" id="Fill-50" fill="#767B80"></path>
                <path d="M1661.84449,490.93 C1662.95449,525.06 1631.19449,552.04 1592.90449,552.04 L1566.45449,552.04 C1528.16449,552.04 1496.37449,525.07 1497.44449,491.02 C1498.47449,466.04 1499.70449,442.83 1501.09449,420.45 C1501.31449,416.8 1498.53449,413.65 1494.87449,413.42 C1491.22449,413.2 1488.07449,415.98 1487.85449,419.63 C1486.47449,442.1 1485.23449,465.39 1484.18449,490.54 C1482.91449,531.68 1520.26449,565.3 1566.45449,565.3 L1592.90449,565.3 C1639.08449,565.3 1676.43449,531.67 1675.10449,490.5 C1674.98449,486.84 1671.91449,483.97 1668.25449,484.09 C1664.59449,484.21 1661.73449,487.27 1661.84449,490.93" id="Fill-51" fill="#767B80"></path>
                <path d="M1513.52449,252.34 C1512.98449,259.56 1512.44449,266.64 1511.91449,273.58 C1511.62449,277.23 1508.43449,279.96 1504.78449,279.68 C1501.13449,279.4 1498.40449,276.21 1498.68449,272.56 C1499.36449,263.67 1500.06449,254.57 1500.76449,245.22 C1501.02449,241.76 1503.90449,239.08 1507.37449,239.08 C1565.21449,239.08 1520.44449,239.06 1578.29449,239.06 C1581.95449,239.06 1584.92449,242.03 1584.92449,245.69 C1584.92449,249.35 1581.95449,252.32 1578.29449,252.32 C1522.64449,252.33 1561.97449,252.33 1513.52449,252.34" id="Fill-52" fill="#767B80"></path>
                <path d="M1319.76449,491.64 C1316.59449,525.39 1348.35449,552.04 1386.42449,552.04 L1412.88449,552.04 C1451.34449,552.04 1483.12449,524.82 1484.18449,490.6 C1484.30449,486.95 1487.36449,484.07 1491.02449,484.18 C1494.68449,484.3 1497.55449,487.36 1497.44449,491.02 C1496.16449,531.93 1458.87449,565.31 1412.88449,565.31 L1386.42449,565.31 C1340.05449,565.31 1302.64449,531.43 1306.56449,490.29 L1306.59449,490.1 C1308.09449,478.14 1309.72449,466.63 1311.47449,455.44 C1312.03449,451.83 1315.42449,449.35 1319.04449,449.91 C1322.66449,450.48 1325.13449,453.87 1324.57449,457.49 C1322.85449,468.51 1321.24449,479.85 1319.76449,491.64" id="Fill-53" fill="#767B80"></path>
                <path d="M1368.11449,252.37 C1362.27449,278.98 1356.50449,303.5 1350.99449,327.28 C1350.16449,330.85 1346.59449,333.06 1343.03449,332.24 C1339.46449,331.41 1337.24449,327.85 1338.06449,324.28 C1343.93449,299.02 1350.08449,272.91 1356.30449,244.33 C1356.96449,241.28 1359.66449,239.11 1362.77449,239.11 C1420.60449,239.1 1449.53449,239.1 1507.37449,239.08 C1511.03449,239.08 1514.00449,242.06 1514.00449,245.71 C1514.00449,249.37 1511.03449,252.34 1507.37449,252.34 L1368.11449,252.37" id="Fill-54" fill="#767B80"></path>
                <path d="M1306.56449,490.29 C1303.29449,524.58 1271.50449,552.04 1232.84449,552.04 L1206.38449,552.04 C1193.93449,552.04 1182.20449,549.21 1172.18449,544.18 C1168.91449,542.54 1164.92449,543.87 1163.28449,547.14 C1161.64449,550.41 1162.97449,554.4 1166.24449,556.04 C1177.99449,561.93 1191.76449,565.31 1206.38449,565.31 L1232.84449,565.31 C1278.66449,565.31 1315.88449,532.19 1319.76449,491.55 C1320.11449,487.91 1317.43449,484.67 1313.79449,484.32 C1310.15449,483.98 1306.91449,486.65 1306.56449,490.29" id="Fill-55" fill="#767B80"></path>
                <path d="M1222.86449,252.39 C1194.29449,331.42 1166.38449,390.73 1147.12449,469.73 C1146.26449,473.29 1142.66449,475.46 1139.11449,474.6 C1135.55449,473.73 1133.37449,470.14 1134.24449,466.59 C1153.97449,385.65 1182.66449,325.25 1211.97449,243.52 C1212.91449,240.89 1215.41449,239.13 1218.20449,239.13 C1276.03449,239.12 1304.93449,239.12 1362.78449,239.109975 C1366.43449,239.1 1369.41449,242.08 1369.41449,245.73 C1369.41449,249.39 1366.43449,252.37 1362.78449,252.37 L1222.86449,252.39" id="Fill-56" fill="#767B80"></path>
                <path d="M409.21949,38.26 C502.20149,38.26 577.57449,113.64 577.57449,206.62 C577.57449,299.6 502.20149,374.98 409.21949,374.98 C316.23649,374.98 240.85949,299.6 240.85949,206.62 C240.85949,113.64 316.23649,38.26 409.21949,38.26" id="Fill-57" fill="#F36763"></path>
                <path d="M565.63449,247.87 C547.37449,317.18 484.22449,368.35 409.21949,368.35 C380.27449,368.35 353.09949,360.73 329.58449,347.39 C326.40449,345.58 322.35449,346.71 320.54449,349.88 C318.73949,353.07 319.85949,357.12 323.03949,358.92 C348.48449,373.36 377.89449,381.61 409.21949,381.61 C490.37449,381.61 558.70449,326.24 578.45449,251.25 C579.38449,247.71 577.26449,244.08 573.72449,243.15 C570.18449,242.22 566.55449,244.33 565.62449,247.87 L565.63449,247.87" id="Fill-58" fill="#767B80"></path>
                <path d="M264.81949,279.5 C253.73449,257.59 247.48949,232.83 247.48949,206.62 C247.48949,117.36 319.95949,44.89 409.21949,44.89 C470.26949,44.89 523.46449,78.8 550.99449,128.79 C552.75949,132 556.79449,133.16 559.99449,131.39 C563.20449,129.63 564.37449,125.6 562.60449,122.39 C532.82949,68.305 475.26949,31.63 409.21949,31.63 C312.63949,31.63 234.22949,110.04 234.22949,206.62 C234.22949,234.98 240.99449,261.78 252.98949,285.48 C254.64449,288.75 258.63449,290.06 261.89949,288.41 C265.16449,286.75 266.47449,282.76 264.81949,279.5" id="Fill-59" fill="#767B80"></path>
                <path d="M314.39949,278.89 C310.36449,276.56 308.24449,271.76 309.49449,267.06 C310.99949,261.44 316.77449,258.1 322.38449,259.61 L417.25449,285.03 C434.06949,289.54 451.40949,279.52 455.91949,262.72 C460.40949,245.91 450.44949,228.56 433.60449,224.05 L379.40449,209.53 C351.38949,202 334.69449,173.11 342.19449,145.09 C345.82949,131.55 354.52449,120.23 366.72949,113.19 C378.93449,106.14 393.09949,104.27 406.62949,107.89 L501.49449,133.3 C507.11949,134.87 510.44449,140.57 508.94449,146.19 C507.42949,151.8 501.66949,155.14 496.05449,153.64 L401.18949,128.23 C384.37449,123.71 367.03449,133.74 362.53449,150.54 C358.02449,167.34 367.99449,184.69 384.84949,189.21 L439.04449,203.71 C467.04949,211.24 483.75949,240.14 476.25949,268.16 C472.63449,281.7 463.91449,293.03 451.72449,300.07 C439.51449,307.1 425.35949,309 411.82449,305.37 L316.94949,279.95 C316.02449,279.7 315.17949,279.34 314.39949,278.88 L314.39949,278.89" id="Fill-60" fill="#FFFFFF"></path>
                <path d="M371.26449,337.71 C367.23949,335.39 365.10949,330.57 366.36949,325.87 L431.72449,81.925 C433.22949,76.31 438.99949,72.98 444.61449,74.475 C450.22949,76.005 453.56449,81.75 452.05949,87.37 L386.70449,331.31 C385.19449,336.93 379.42949,340.26 373.81449,338.75 C372.89949,338.5 372.05449,338.16 371.26449,337.71" id="Fill-61" fill="#FFFFFF"></path>
                <path d="M2355.39449,517.94 C2355.39449,530.18 2365.41449,540.21 2377.66449,540.21 L2852.60449,540.21 C2864.84449,540.21 2874.86449,530.18 2874.86449,517.94 L2874.86449,215.16 C2874.86449,202.92 2864.84449,192.9 2852.60449,192.9 L2377.66449,192.9 C2365.41449,192.9 2355.39449,202.92 2355.39449,215.16 L2355.39449,517.94" id="Fill-62" fill="#FFFFFF"></path>
                <polygon id="Fill-63" fill="#F36763" points="2355.40449 359.94 2874.87449 359.94 2874.87449 281.66 2355.40449 281.66"></polygon>
                <path d="M2788.32449,452.64 C2780.67449,452.64 2773.81449,455.86 2768.93449,461.01 C2764.06449,455.86 2757.18449,452.64 2749.54449,452.64 C2734.79449,452.64 2722.82449,464.6 2722.82449,479.35 C2722.82449,494.1 2734.79449,506.06 2749.54449,506.06 C2757.18449,506.06 2764.06449,502.84 2768.93449,497.69 C2773.80449,502.84 2780.67449,506.06 2788.32449,506.06 C2803.07449,506.06 2815.03449,494.1 2815.03449,479.35 C2815.03449,464.6 2803.07449,452.64 2788.32449,452.64" id="Fill-64" fill="#F36763"></path>
                <path d="M2348.76449,306.27 L2348.76449,517.94 C2348.76449,533.83 2361.77449,546.83 2377.66449,546.83 L2852.60449,546.83 C2868.49449,546.83 2881.49449,533.83 2881.49449,517.94 L2881.49449,431.08 C2881.49449,427.41 2878.53449,424.45 2874.86449,424.45 C2871.20449,424.45 2868.24449,427.41 2868.24449,431.08 L2868.24449,517.94 C2868.24449,526.54 2861.20449,533.58 2852.60449,533.58 L2377.66449,533.58 C2369.06449,533.58 2362.02449,526.54 2362.02449,517.94 L2362.02449,306.27 C2362.02449,302.62 2359.05449,299.64 2355.39449,299.64 C2351.73449,299.64 2348.76449,302.62 2348.76449,306.27" id="Fill-65" fill="#767B80"></path>
                <path d="M2881.49449,336.15 L2881.49449,215.16 C2881.49449,199.27 2868.49449,186.27 2852.60449,186.27 L2503.12449,186.27 C2499.47449,186.27 2496.49449,189.25 2496.49449,192.91 C2496.49449,196.56 2499.47449,199.54 2503.12449,199.54 L2852.60449,199.54 C2861.20449,199.54 2868.24449,206.57 2868.24449,215.16 L2868.24449,336.15 C2868.24449,339.81 2871.20449,342.78 2874.86449,342.78 C2878.53449,342.78 2881.49449,339.81 2881.49449,336.15" id="Fill-66" fill="#767B80"></path>
                <path d="M2871.36449,708.83 L2939.82449,858.95 C2951.10449,883.69 2940.09449,913.17 2915.33449,924.44 L2576.72449,1078.85 C2551.97449,1090.12 2522.50449,1079.1 2511.22449,1054.36 L2442.78449,904.23 C2431.49449,879.48 2442.51449,850.01 2467.25449,838.73 L2805.87449,684.34 C2830.61449,673.06 2860.09449,684.06 2871.36449,708.82 L2871.36449,708.83" id="Fill-67" fill="#FBEDEC"></path>
                <path d="M2691.29449,823.48 C2723.38449,823.48 2749.40449,849.49 2749.40449,881.58 C2749.40449,913.67 2723.38449,939.68 2691.29449,939.68 C2659.21449,939.68 2633.20449,913.67 2633.20449,881.58 C2633.20449,849.49 2659.21449,823.48 2691.29449,823.48" id="Fill-68" fill="#F36763"></path>
                <path d="M2871.36449,708.83 L2878.70449,724.92 C2876.01449,726.75 2873.11449,728.4 2870.06449,729.79 C2840.86449,743.1 2806.41449,730.23 2793.10449,701.04 C2791.70449,697.97 2790.61449,694.83 2789.76449,691.68 L2805.87449,684.34 C2830.61449,673.06 2860.09449,684.06 2871.36449,708.82 L2871.36449,708.83" id="Fill-69" fill="#F36763"></path>
                <path d="M2932.49449,842.89 L2939.82449,858.95 C2951.10449,883.7 2940.09449,913.18 2915.33449,924.45 L2899.23449,931.79 C2897.40449,929.1 2895.76449,926.2 2894.37449,923.14 C2881.05449,893.94 2893.93449,859.5 2923.12449,846.18 C2926.20449,844.79 2929.32449,843.68 2932.49449,842.89" id="Fill-70" fill="#F36763"></path>
                <path d="M2488.22449,840.03 C2501.53449,869.23 2488.66449,903.68 2459.47449,917 C2456.40449,918.39 2453.27449,919.51 2450.11449,920.35 L2442.78449,904.23 C2431.49449,879.49 2442.50449,850.02 2467.25449,838.73 L2483.32449,831.4 C2485.18449,834.08 2486.83449,836.97 2488.22449,840.03" id="Fill-71" fill="#F36763"></path>
                <path d="M2589.49449,1062.16 C2590.89449,1065.21 2591.98449,1068.35 2592.78449,1071.53 L2576.72449,1078.85 C2551.97449,1090.13 2522.50449,1079.11 2511.22449,1054.37 L2503.90449,1038.31 C2506.57449,1036.43 2509.47449,1034.79 2512.53449,1033.4 C2541.73449,1020.08 2576.18449,1032.95 2589.49449,1062.16" id="Fill-72" fill="#F36763"></path>
                <path d="M2817.35449,961.84 L2573.97449,1072.81 C2552.54449,1082.58 2527.02449,1073.04 2517.25449,1051.61 L2481.43449,973.02 C2479.91449,969.7 2475.98449,968.23 2472.65449,969.75 C2469.32449,971.26 2467.85449,975.19 2469.36449,978.52 L2505.19449,1057.11 C2517.98449,1085.18 2551.41449,1097.66 2579.47449,1084.88 L2822.85449,973.9 C2826.18449,972.39 2827.65449,968.45 2826.13449,965.12 C2824.61449,961.79 2820.68449,960.32 2817.35449,961.84" id="Fill-73" fill="#767B80"></path>
                <path d="M2446.59449,872.18 C2449.90449,860.45 2458.12449,850.18 2470.00449,844.76 L2808.62449,690.37 C2830.04449,680.61 2855.57449,690.14 2865.33449,711.58 L2933.78449,861.71 C2938.74449,872.58 2938.72449,884.52 2934.70449,894.91 C2933.37449,898.33 2935.07449,902.16 2938.49449,903.49 C2941.90449,904.81 2945.74449,903.11 2947.06449,899.7 C2952.33449,886.08 2952.35449,870.45 2945.85449,856.2 L2877.40449,706.07 C2864.61449,678 2831.17449,665.52 2803.12449,678.31 L2464.50449,832.69 C2448.94449,839.79 2438.16449,853.23 2433.83449,868.58 C2432.84449,872.1 2434.90449,875.77 2438.41449,876.76 C2441.94449,877.75 2445.61449,875.7 2446.59449,872.18" id="Fill-74" fill="#767B80"></path>
                <path d="M1023.47449,397.64 C1023.47449,382.81 1011.43449,370.79 996.60449,370.79 C942.59449,370.79 821.38449,370.79 767.36449,370.79 C752.52449,370.79 740.50449,382.81 740.50449,397.64 L740.50449,602.83 C740.50449,609.96 743.32449,616.79 748.36449,621.83 C753.40449,626.87 760.24449,629.7 767.36449,629.7 C845.43449,629.7 1066.76449,629.7 1066.76449,629.7 L1023.47449,540.48 L1023.47449,397.64" id="Fill-75" fill="#FBEDEC"></path>
                <path d="M1056.18449,623.06 L1017.50449,543.37 C1017.06449,542.47 1016.84449,541.48 1016.84449,540.48 L1016.84449,397.64 C1016.84449,386.47 1007.78449,377.41 996.60449,377.41 C942.59449,377.41 821.38449,377.41 767.36449,377.41 C756.19449,377.41 747.13449,386.47 747.13449,397.64 C747.13449,401.31 744.16449,404.27 740.49449,404.27 C736.84449,404.27 733.86449,401.31 733.86449,397.64 C733.86449,379.15 748.86449,364.16 767.36449,364.16 C821.38449,364.16 942.59449,364.16 996.60449,364.16 C1015.10449,364.16 1030.09449,379.15 1030.09449,397.64 L1030.09449,538.96 L1072.73449,626.8 C1073.73449,628.85 1073.59449,631.28 1072.38449,633.21 C1071.17449,635.15 1069.05449,636.33 1066.77449,636.33 L1022.67449,636.33 C1019.01449,636.33 1016.04449,633.35 1016.04449,629.7 C1016.04449,626.04 1019.01449,623.06 1022.67449,623.06 L1056.18449,623.06" id="Fill-76" fill="#767B80"></path>
                <path d="M733.86449,462.77 L733.86449,602.83 C733.86449,611.71 737.39449,620.23 743.68449,626.52 C749.95449,632.79 758.47449,636.33 767.36449,636.33 C813.67449,636.33 897.13449,636.33 968.17449,636.33 C971.83449,636.33 974.80449,633.35 974.80449,629.7 C974.80449,626.04 971.83449,623.06 968.17449,623.06 C897.13449,623.06 813.67449,623.06 767.36449,623.06 C761.99449,623.06 756.84449,620.93 753.05449,617.14 C749.26449,613.35 747.13449,608.2 747.13449,602.84 L747.13449,462.77 C747.13449,459.1 744.16449,456.14 740.50449,456.14 C736.84449,456.14 733.86449,459.1 733.86449,462.77" id="Fill-77" fill="#767B80"></path>
                <path d="M936.14449,554.31 C939.32449,550.06 940.92449,544.62 940.92449,537.98 C940.92449,531.35 939.32449,525.92 936.14449,521.66 C932.96449,517.43 928.51449,515.31 922.80449,515.31 C917.10449,515.31 912.66449,517.43 909.48449,521.66 C906.30449,525.92 904.70449,531.35 904.70449,537.98 C904.70449,544.62 906.30449,550.06 909.48449,554.31 C912.66449,558.55 917.10449,560.67 922.80449,560.67 C928.51449,560.67 932.96449,558.55 936.14449,554.31 Z M899.12449,563.56 C893.55449,556.86 890.77449,548.33 890.77449,537.98 C890.77449,527.64 893.55449,519.12 899.12449,512.41 C904.70449,505.71 912.59449,502.35 922.80449,502.35 C933.03449,502.35 940.92449,505.71 946.49449,512.41 C952.06449,519.12 954.85449,527.64 954.85449,537.98 C954.85449,548.33 952.06449,556.86 946.49449,563.56 C940.92449,570.25 933.03449,573.61 922.80449,573.61 C912.59449,573.61 904.70449,570.26 899.12449,563.56 Z M837.43449,570.12 C836.09449,568.87 835.43449,567.31 835.43449,565.46 C835.43449,564.26 835.76449,563.12 836.43449,562.07 L917.43449,432.51 C918.76449,430.39 920.61449,429.33 923.01449,429.33 C924.99449,429.33 926.61449,429.85 927.87449,430.91 C929.14449,431.98 929.77449,433.43 929.77449,435.3 C929.77449,436.76 929.30449,438.22 928.37449,439.67 L847.97449,568.43 C847.31449,569.51 846.45449,570.35 845.38449,571.02 C844.32449,571.68 843.20449,572.02 842.01449,572.02 C840.27449,572.02 838.76449,571.39 837.43449,570.13 L837.43449,570.12 Z M855.34449,479.67 C858.52449,475.43 860.11449,470 860.11449,463.35 C860.11449,456.72 858.52449,451.29 855.34449,447.04 C852.16449,442.79 847.71449,440.66 842.01449,440.66 C836.30449,440.66 831.85449,442.79 828.67449,447.04 C825.49449,451.29 823.89449,456.72 823.89449,463.35 C823.89449,470 825.49449,475.43 828.67449,479.67 C831.85449,483.92 836.30449,486.05 842.01449,486.05 C847.71449,486.05 852.16449,483.92 855.34449,479.67 Z M818.32449,488.92 C812.75449,482.23 809.97449,473.71 809.97449,463.35 C809.97449,453 812.75449,444.49 818.32449,437.78 C823.89449,431.08 831.79449,427.73 842.01449,427.73 C852.22449,427.73 860.12449,431.08 865.69449,437.78 C871.26449,444.49 874.04449,453 874.04449,463.35 C874.04449,473.71 871.26449,482.23 865.69449,488.92 C860.12449,495.63 852.22449,498.97 842.01449,498.97 C831.79449,498.97 823.89449,495.63 818.32449,488.92 L818.32449,488.92 Z" id="Fill-78" fill="#F36763"></path>
                <path d="M2109.19449,780.18 C2098.39449,767.89 2090.31449,744.5 2091.23449,728.16 L2094.31449,673.46 C2095.24449,657.13 2109.33449,644.62 2125.65449,645.66 L2181.25449,649.18 C2197.57449,650.23 2219.77449,661.12 2230.56449,673.39 L2360.66449,821.28 C2371.46449,833.56 2370.25449,852.44 2357.97449,863.24 L2281.24449,930.73 C2268.96449,941.54 2250.08449,940.33 2239.28449,928.06 L2109.18449,780.17 L2109.19449,780.18" id="Fill-79" fill="#FBEDEC"></path>
                <path d="M2189.47449,861.39 L2114.16449,775.79 C2104.35449,764.64 2097.01449,743.37 2097.85449,728.54 L2100.93449,673.83 C2101.65449,661.18 2112.58449,651.48 2125.23449,652.27 L2180.83449,655.81 C2195.63449,656.75 2215.78449,666.63 2225.57449,677.77 C2225.58449,677.77 2355.68449,825.65 2355.68449,825.65 C2364.07449,835.19 2363.14449,849.87 2353.59449,858.26 C2350.84449,860.67 2350.57449,864.87 2352.99449,867.62 C2355.41449,870.37 2359.60449,870.64 2362.35449,868.22 C2377.37449,855.01 2378.85449,831.91 2365.63449,816.9 L2235.53449,669.02 C2223.74449,655.61 2199.49449,643.71 2181.67449,642.57 L2126.07449,639.04 C2106.09449,637.77 2088.82449,653.1 2087.69449,673.08 C2087.69449,673.09 2084.61449,727.79 2084.61449,727.79 C2083.60449,745.62 2092.42449,771.15 2104.20449,784.56 L2179.51449,870.15 C2181.92449,872.89 2186.12449,873.16 2188.86449,870.75 C2191.61449,868.33 2191.88449,864.13 2189.46449,861.39 L2189.47449,861.39" id="Fill-80" fill="#767B80"></path>
                <path d="M2324.57449,883.79 L2276.86449,925.76 C2267.32449,934.15 2252.65449,933.22 2244.26449,923.68 L2226.92449,903.97 C2224.50449,901.22 2220.31449,900.95 2217.57449,903.37 C2214.82449,905.79 2214.55449,909.98 2216.97449,912.73 L2234.31449,932.43 C2247.51449,947.45 2270.60449,948.93 2285.62449,935.71 L2333.32449,893.75 C2336.07449,891.33 2336.34449,887.14 2333.93449,884.39 C2331.51449,881.65 2327.32449,881.38 2324.57449,883.79" id="Fill-81" fill="#767B80"></path>
                <path d="M2156.61449,683.83 C2172.01449,683.83 2184.49449,696.31 2184.49449,711.71 C2184.49449,727.1 2172.01449,739.58 2156.61449,739.58 C2141.22449,739.58 2128.74449,727.1 2128.74449,711.71 C2128.74449,696.31 2141.22449,683.83 2156.61449,683.83" id="Fill-82" fill="#F36763"></path>
            </g>
        </g>
    </g>
</svg>