<?xml version="1.0" encoding="UTF-8"?>
<svg width="3380px" height="2590px" viewBox="0 0 3380 2590" version="1.1" xmlns="http://www.w3.org/2000/svg" xmlns:xlink="http://www.w3.org/1999/xlink">
    <title>897</title>
    <g id="897" stroke="none" stroke-width="1" fill="none" fill-rule="evenodd">
        <g id="Group-2" transform="translate(228.872754, 181.000000)">
            <path d="M995.713924,2155.17941 C1007.66825,2160.45652 1019.81494,2165.34885 1031.90667,2170.3786 C1056.17257,2180.27319 1071.64449,2185.52282 1082.99423,2187.77659 C1094.50886,2189.70054 1101.51656,2189.50814 1108.44183,2189.31575 C1115.39457,2189.09587 1122.31984,2188.87599 1133.64209,2190.63503 C1139.3307,2191.48706 1146.09108,2192.86131 1154.55529,2194.92268 C1162.99202,2197.23142 1173.13258,2199.73255 1185.58157,2202.34363 C1285.09101,2223.64448 1388.7776,2231.78003 1491.4199,2224.24915 C1594.0622,2216.77324 1695.30296,2194.04316 1790.16808,2157.62557 C1980.33801,2084.79038 2143.384,1960.03608 2266.60973,1807.02722 C2389.91789,1653.82596 2475.52184,1470.55614 2509.35121,1274.28593 C2526.25215,1176.30199 2529.87967,1075.26722 2518.74978,975.386821 C2507.78478,875.533904 2481.89748,777.055236 2442.65432,685.117992 C2476.73102,779.309004 2492.3953,866.216497 2500.30989,952.436866 C2507.81226,1038.79466 2507.61989,1125.15245 2498.46865,1222.72412 C2492.36782,1221.95454 2480.35854,1220.52532 2472.99357,1268.01936 C2458.67587,1338.7382 2439.27414,1411.21608 2412.23263,1479.92852 C2385.10868,1548.50354 2352.68086,1614.0552 2316.26826,1671.99353 C2243.36063,1787.92516 2156.41009,1872.52392 2095.15449,1909.93097 C2085.26125,1916.58233 2075.23061,1922.95885 2063.30377,1929.33536 C2051.29448,1935.51948 2037.93862,1942.33575 2022.52166,1950.99352 C2007.407,1960.03608 1988.80223,1969.18858 1967.39437,1981.66675 C1946.37124,1994.69463 1920.15418,2007.69503 1890.11722,2025.50529 C1910.1785,2013.63178 1930.54207,2002.19803 1950.16365,1989.77482 C1969.26309,1976.637 1988.80223,1963.99392 2007.43448,1950.16897 C2003.752,1945.24916 1996.46948,1935.40954 1996.46948,1935.40954 C1921.91297,1987.63099 1829.71353,2035.31743 1731.46822,2065.35851 C1633.47025,2096.05922 1530.33328,2108.61986 1439.92012,2105.26669 C1439.92012,2105.26669 1439.89264,2093.03588 1439.89264,2086.90673 L1417.77027,2087.15409 C1410.40531,2086.90673 1403.06782,2086.30206 1395.67538,2085.8623 L1351.56805,2082.92141 C1330.76477,2069.64616 1345.54966,2064.47899 1381.49508,2060.93343 C1390.45395,2060.13636 1400.78688,2059.53169 1412.24655,2059.1469 C1423.70621,2058.56972 1436.34756,2056.89313 1449.86832,2055.95864 C1477.01975,2054.69434 1507.74373,2050.04937 1540.66622,2045.7892 C1606.29133,2035.09755 1679.61119,2015.83058 1746.1157,1988.31812 C1762.52198,1980.97963 1779.25804,1974.87797 1794.64751,1966.79738 C1810.00951,1958.82674 1825.06921,1951.07598 1839.57928,1943.57258 C1867.44522,1926.55938 1893.77222,1911.58007 1914.57549,1895.47387 C1911.14034,1890.41664 1904.29752,1880.27468 1900.86237,1875.16247 C1878.79496,1891.24118 1854.6115,1903.96673 1831.27996,1918.03904 L1830.37308,1916.41742 C2214.50536,1706.01993 2438.4497,1205.1887 2259.05239,758.970122 C2237.31476,704.934659 2209.53126,653.647694 2176.85611,605.658927 C2179.49431,608.352454 2182.07754,611.100952 2184.66077,613.876934 C2196.6151,627.399542 2208.95416,640.922151 2220.35886,654.252364 C2231.15897,668.159762 2241.46442,681.435005 2250.78055,693.390969 C2268.58837,718.072478 2281.91676,738.328905 2289.22676,746.794277 C2304.89104,773.482189 2313.4377,770.046567 2316.73544,747.453917 C2318.76905,736.514896 2317.77973,719.199362 2315.69116,698.0909 C2314.0148,676.680104 2308.87582,652.136021 2302.00552,624.980865 C2298.90014,611.183407 2294.47567,597.303494 2289.47409,583.066277 C2284.44503,568.884029 2279.60834,553.794777 2273.45255,539.200255 C2260.83867,510.148636 2247.12555,479.832707 2230.44446,451.907972 C2215.0275,422.938808 2195.95555,397.295325 2178.72483,372.366452 C2159.90021,349.196617 2142.55957,326.823847 2125.24641,310.003042 C2091.93919,274.739818 2096.22625,268.528214 2111.03862,269.682583 C2125.76855,270.781982 2150.96882,279.577174 2156.95972,272.65096 C2116.58983,242.280062 2087.59716,218.258193 2058.16479,193.933989 C2042.96768,182.500239 2027.63317,171.093974 2010.45741,159.550284 C1993.2267,148.116535 1973.22038,138.057033 1950.19113,127.227953 C1951.01557,125.661309 1934.71921,115.574323 1906.79831,101.529501 C1892.89282,94.3834069 1876.34913,85.8080944 1856.9474,78.1123012 C1837.62812,70.361538 1816.82484,60.6043716 1793.54826,53.4582779 C1702.31066,20.6412168 1583.64682,0.85203425 1506.64449,0 C1506.64449,0 1493.70084,0.742094346 1461.52035,2.55610275 C1429.44978,4.67244589 1378.14237,7.39345849 1302.62402,18.8821784 C1252.30593,27.3200659 1253.8174,34.3287348 1254.97161,40.0456097 C1253.76244,34.053885 1253.76244,34.053885 1252.52578,28.0346753 C1228.72706,38.8087858 1192.03965,47.9337978 1155.40721,57.9932989 C1118.77476,67.9153752 1082.60949,80.0637345 1060.12987,92.1571238 C1057.84893,86.4677339 1057.84893,86.4677339 1055.56799,80.7783439 C966.144148,131.213274 869.630156,172.083433 792.930113,239.998809 C789.165188,235.188938 789.165188,235.188938 785.372782,230.351582 C765.531352,246.677658 745.882291,263.113673 730.685184,274.932213 C715.76289,287.025602 705.924619,295.13367 703.698641,292.797447 C699.521498,288.344881 699.521498,288.344881 695.316874,283.86483 C651.649239,314.180758 593.27916,400.675977 584.37525,393.090124 C589.102017,396.99299 589.102017,396.99299 593.828784,400.895857 C528.50596,480.217497 481.348212,556.873095 441.637871,630.450375 C432.156856,649.140158 422.840727,667.472637 413.689486,685.530266 C405.610012,704.192565 397.667944,722.580014 389.780838,740.802553 C385.905988,749.95505 382.058619,759.052577 378.238732,768.122619 C374.940987,777.46751 371.670724,786.757432 368.40046,796.019869 C362.024821,814.654683 355.676663,833.234526 349.328504,851.786885 C317.010607,951.639802 298.268426,1065.15275 301.483726,1184.90479 C304.451697,1304.9042 330.146623,1427.59713 375.518092,1541.85217 C465.958738,1771.35172 633.704012,1967.45702 835.086282,2093.1733 C880.237901,2121.40037 930.913243,2137.4516 892.631925,2099.96209 C914.314595,2114.00691 937.536213,2125.85294 960.840275,2137.56154 L995.713924,2155.17941" id="Fill-651" fill="#ECEEF1" opacity="0.482282366"></path>
            <g id="Group" transform="translate(0.000000, 107.209151)">
                <path d="M633.667246,1704.53085 L521.147246,814.270849 C515.647246,770.650849 547.087246,734.980849 591.047246,734.980849 L1539.29725,734.980849 L633.667246,1704.53085" id="Fill-18" fill="#F36763"></path>
                <path d="M1522.02725,742.480849 L591.047246,742.480849 C551.767246,742.480849 523.667246,774.350849 528.587246,813.330849 L557.147246,1039.27085 C557.667246,1043.37085 554.757246,1047.14085 550.647246,1047.65085 C546.537246,1048.17085 542.777246,1045.26085 542.257246,1041.15085 L513.697246,815.210849 C507.617246,766.950849 542.407246,727.490849 591.047246,727.490849 L1539.29725,727.480849 C1542.28725,727.480849 1544.97725,729.250849 1546.16725,731.990849 C1547.36725,734.730849 1546.80725,737.920849 1544.77725,740.100849 L639.147246,1709.65085 C637.157246,1711.77085 634.127246,1712.56085 631.357246,1711.67085 C628.587246,1710.77085 626.587246,1708.35085 626.227246,1705.47085 L605.527246,1541.69085 C605.007246,1537.58085 607.917246,1533.82085 612.027246,1533.30085 C616.127246,1532.78085 619.887246,1535.70085 620.407246,1539.80085 L639.107246,1687.73085 L1522.02725,742.480849" id="Fill-19" fill="#767B80"></path>
                <path d="M1523.62725,803.210849 C1515.44725,833.750849 1483.74725,852.060849 1453.19725,843.870849 L904.147246,696.750849 C873.587246,688.560849 855.297246,656.870849 863.477246,626.320849 L1019.87725,42.6208491 C1028.05725,12.0758491 1059.75725,-6.2291509 1090.31725,1.9508491 L1639.35725,149.065849 C1669.91725,157.255849 1688.20725,188.960849 1680.02725,219.505849 L1523.62725,803.210849" id="Fill-20" fill="#E9E9E9"></path>
                <path d="M906.087246,689.510849 C879.517246,682.390849 863.607246,654.830849 870.717246,628.260849 C870.717246,628.270849 1027.11725,44.5608491 1027.11725,44.5608491 C1028.18725,40.5658491 1025.81725,36.4508491 1021.81725,35.3758491 C1017.81725,34.3058491 1013.69725,36.6808491 1012.62725,40.6808491 L856.227246,624.380849 C846.977246,658.910849 867.657246,694.750849 902.207246,704.000849 C906.197246,705.070849 910.317246,702.690849 911.387246,698.700849 C912.457246,694.690849 910.087246,690.580849 906.087246,689.510849" id="Fill-21" fill="#767B80"></path>
                <path d="M1260.54725,55.3258491 L1637.41725,156.310849 C1663.97725,163.430849 1679.89725,191.005849 1672.78725,217.565849 C1672.78725,217.560849 1516.37725,801.270849 1516.37725,801.270849 C1509.26725,827.830849 1481.70725,843.750849 1455.12725,836.620849 L1258.33725,783.890849 C1254.34725,782.820849 1250.22725,785.200849 1249.15725,789.200849 C1248.08725,793.200849 1250.45725,797.310849 1254.45725,798.380849 L1451.25725,851.110849 C1485.79725,860.370849 1521.61725,839.680849 1530.87725,805.140849 L1687.27725,221.445849 C1696.51725,186.920849 1675.83725,151.080849 1641.29725,141.820849 L1264.41725,40.8358491 C1260.41725,39.7658491 1256.30725,42.1408491 1255.23725,46.1408491 C1254.16725,50.1408491 1256.54725,54.2558491 1260.54725,55.3258491" id="Fill-22" fill="#767B80"></path>
                <polyline id="Fill-23" fill="#FFFFFF" points="1469.97725 784.120849 1625.46725 203.780849 1076.42725 56.6758491 920.937246 637.000849 1469.97725 784.120849"></polyline>
                <path d="M1369.82725,548.260849 L1297.03725,714.480849 C1292.20725,725.480849 1278.76725,731.960849 1267.15725,728.840849 L1127.89725,691.520849 C1116.27725,688.410849 1107.87725,676.080849 1109.19725,664.150849 L1129.25725,483.795849 L1369.82725,548.260849" id="Fill-24" fill="#F36763"></path>
                <path d="M1191.22725,317.235849 C1218.93725,314.165849 1246.34725,355.900849 1252.37725,410.375849 C1258.41725,464.855849 1240.81725,511.580849 1213.08725,514.640849 C1185.37725,517.720849 1157.97725,475.980849 1151.93725,421.500849 C1145.90725,367.025849 1163.50725,320.305849 1191.22725,317.235849" id="Fill-25" fill="#F36763" opacity="0.376046317"></path>
                <path d="M1316.61725,261.685849 C1355.34725,272.060849 1371.00725,339.350849 1351.58725,411.860849 C1332.15725,484.365849 1284.94725,534.810849 1246.21725,524.430849 C1207.49725,514.060849 1191.82725,446.765849 1211.25725,374.260849 C1230.68725,301.755849 1277.88725,251.310849 1316.61725,261.685849" id="Fill-26" fill="#F36763" opacity="0.376046317"></path>
                <path d="M1388.14725,386.160849 C1411.37725,401.580849 1408.00725,447.585849 1380.62725,488.825849 C1353.23725,530.060849 1312.14725,551.020849 1288.91725,535.600849 C1265.68725,520.170849 1269.06725,474.170849 1296.44725,432.930849 C1323.83725,391.690849 1364.91725,370.735849 1388.14725,386.160849" id="Fill-27" fill="#F36763" opacity="0.376046317"></path>
                <path d="M1387.77725,553.060849 C1384.65725,564.670849 1372.60725,571.620849 1361.00725,568.510849 L1126.76725,505.750849 C1115.15725,502.640849 1108.20725,490.595849 1111.31725,478.990849 L1111.88725,476.885849 C1114.99725,465.280849 1127.03725,458.325849 1138.63725,461.435849 L1372.87725,524.190849 C1384.48725,527.310849 1391.43725,539.340849 1388.33725,550.960849 L1387.77725,553.060849" id="Fill-28" fill="#E2E8F0"></path>
                <path d="M187.162246,1389.42085 L905.307246,1197.00085 C932.357246,1189.75085 948.557246,1161.69085 941.307246,1134.64085 L825.747246,703.340849 C818.487246,676.290849 790.437246,660.080849 763.387246,667.330849 L45.2372461,859.770849 C18.1872461,867.010849 1.98224607,895.070849 9.22724607,922.120849 L124.797246,1353.44085 C132.047246,1380.48085 160.112246,1396.68085 187.162246,1389.42085 Z" id="Fill-29" fill="#FBEDEC"></path>
                <path d="M761.437246,660.090849 L43.2972461,852.520849 C12.2622461,860.830849 -6.32775393,893.030849 1.98224607,924.060849 L54.3572461,1119.53085 C55.4322461,1123.52085 59.5472461,1125.90085 63.5422461,1124.83085 C67.5422461,1123.76085 69.9172461,1119.64085 68.8472461,1115.64085 L16.4722461,920.190849 C10.2972461,897.120849 24.1122461,873.190849 47.1772461,867.010849 C47.1822461,867.010849 765.327246,674.580849 765.327246,674.580849 C769.317246,673.510849 771.707246,669.390849 770.627246,665.390849 C769.557246,661.390849 765.437246,659.020849 761.437246,660.090849" id="Fill-30" fill="#767B80"></path>
                <path d="M189.102246,1396.67085 L907.247246,1204.25085 C938.277246,1195.94085 956.867246,1163.73085 948.547246,1132.70085 L862.437246,811.330849 C861.377246,807.330849 857.257246,804.960849 853.257246,806.030849 C849.257246,807.100849 846.877246,811.210849 847.957246,815.210849 L934.067246,1136.58085 C940.237246,1159.65085 926.427246,1183.58085 903.367246,1189.76085 L185.222246,1382.19085 C181.222246,1383.25085 178.847246,1387.37085 179.917246,1391.37085 C180.992246,1395.37085 185.107246,1397.75085 189.102246,1396.67085" id="Fill-31" fill="#767B80"></path>
                <path d="M475.277246,890.390849 C551.487246,890.390849 613.267246,952.170849 613.267246,1028.39085 C613.267246,1104.60085 551.487246,1166.38085 475.277246,1166.38085 C399.060246,1166.38085 337.277246,1104.60085 337.277246,1028.39085 C337.277246,952.170849 399.060246,890.390849 475.277246,890.390849" id="Fill-32" fill="#FFFFFF"></path>
                <path d="M422.807246,970.290849 C415.457246,967.920849 411.072246,972.080849 413.067246,979.550849 L445.817246,1101.77085 C447.817246,1109.25085 453.697246,1110.67085 458.877246,1104.92085 L535.447246,1020.17085 C540.627246,1014.43085 538.857246,1007.79085 531.487246,1005.40085 L422.807246,970.290849" id="Fill-33" fill="#F36763"></path>
                <path d="M130.472246,905.270849 C132.037246,911.120849 128.542246,917.180849 122.697246,918.750849 L77.5022461,930.850849 C71.6622461,932.420849 65.6022461,928.930849 64.0272461,923.080849 L59.0372461,904.470849 C57.4772461,898.620849 60.9772461,892.560849 66.8272461,891.000849 L112.012246,878.880849 C117.857246,877.320849 123.917246,880.810849 125.482246,886.670849 L130.472246,905.270849" id="Fill-34" fill="#FFFFFF"></path>
                <path d="M260.697246,870.380849 C262.267246,876.230849 258.762246,882.290849 252.922246,883.850849 L207.727246,895.960849 C201.892246,897.530849 195.822246,894.030849 194.252246,888.190849 L189.267246,869.570849 C187.702246,863.730849 191.202246,857.670849 197.047246,856.100849 L242.237246,843.980849 C248.077246,842.420849 254.142246,845.920849 255.707246,851.770849 L260.697246,870.380849" id="Fill-35" fill="#FFFFFF"></path>
                <path d="M390.922246,835.490849 C392.487246,841.330849 388.987246,847.390849 383.147246,848.960849 L337.952246,861.060849 C332.107246,862.630849 326.052246,859.140849 324.477246,853.290849 L319.487246,834.670849 C317.927246,828.830849 321.427246,822.770849 327.267246,821.210849 L372.462246,809.090849 C378.307246,807.530849 384.367246,811.020849 385.932246,816.870849 L390.922246,835.490849" id="Fill-36" fill="#FFFFFF"></path>
                <path d="M521.147246,800.600849 C522.717246,806.440849 519.217246,812.500849 513.377246,814.060849 L468.187246,826.170849 C462.337246,827.730849 456.277246,824.230849 454.707246,818.390849 L449.717246,799.770849 C448.147246,793.930849 451.657246,787.870849 457.507246,786.310849 L502.687246,774.190849 C508.537246,772.640849 514.587246,776.130849 516.167246,781.980849 L521.147246,800.600849" id="Fill-37" fill="#FFFFFF"></path>
                <path d="M651.377246,765.700849 C652.947246,771.540849 649.437246,777.600849 643.597246,779.170849 L598.407246,791.280849 C592.567246,792.840849 586.507246,789.350849 584.937246,783.500849 L579.947246,764.880849 C578.377246,759.040849 581.877246,752.980849 587.727246,751.420849 L632.917246,739.310849 C638.757246,737.740849 644.817246,741.250849 646.387246,747.080849 L651.377246,765.700849" id="Fill-38" fill="#FFFFFF"></path>
                <path d="M781.597246,730.810849 C783.167246,736.640849 779.667246,742.710849 773.817246,744.270849 L728.627246,756.390849 C722.797246,757.940849 716.727246,754.440849 715.157246,748.600849 L710.167246,729.980849 C708.607246,724.140849 712.107246,718.080849 717.947246,716.520849 L763.137246,704.410849 C768.977246,702.840849 775.047246,706.340849 776.607246,712.190849 L781.597246,730.800849 L781.597246,730.810849" id="Fill-39" fill="#FFFFFF"></path>
                <path d="M241.742246,1320.54085 C243.307246,1326.37085 239.802246,1332.44085 233.957246,1334.00085 L188.767246,1346.11085 C182.922246,1347.68085 176.867246,1344.18085 175.297246,1338.33085 L170.312246,1319.71085 C168.747246,1313.87085 172.242246,1307.81085 178.087246,1306.25085 L223.282246,1294.14085 C229.122246,1292.58085 235.182246,1296.07085 236.752246,1301.92085 L241.742246,1320.54085" id="Fill-40" fill="#FFFFFF"></path>
                <path d="M371.967246,1285.64085 C373.532246,1291.48085 370.027246,1297.54085 364.187246,1299.11085 L318.992246,1311.22085 C313.147246,1312.79085 307.092246,1309.29085 305.522246,1303.44085 L300.537246,1284.83085 C298.967246,1278.98085 302.467246,1272.92085 308.317246,1271.35085 L353.502246,1259.24085 C359.347246,1257.68085 365.412246,1261.18085 366.977246,1267.02085 L371.967246,1285.64085" id="Fill-41" fill="#FFFFFF"></path>
                <path d="M502.197246,1250.75085 C503.757246,1256.59085 500.257246,1262.65085 494.417246,1264.22085 L449.227246,1276.33085 C443.377246,1277.89085 437.317246,1274.39085 435.757246,1268.55085 L430.757246,1249.94085 C429.207246,1244.09085 432.697246,1238.03085 438.537246,1236.47085 L483.727246,1224.35085 C489.567246,1222.79085 495.637246,1226.29085 497.207246,1232.13085 L502.197246,1250.75085" id="Fill-42" fill="#FFFFFF"></path>
                <path d="M632.417246,1215.85085 C633.977246,1221.69085 630.477246,1227.75085 624.627246,1229.33085 L579.447246,1241.43085 C573.607246,1243.00085 567.547246,1239.50085 565.977246,1233.65085 L560.987246,1215.04085 C559.417246,1209.19085 562.917246,1203.12085 568.767246,1201.56085 L613.957246,1189.46085 C619.797246,1187.89085 625.857246,1191.39085 627.437246,1197.24085 L632.417246,1215.85085" id="Fill-43" fill="#FFFFFF"></path>
                <path d="M762.647246,1180.96085 C764.207246,1186.80085 760.707246,1192.86085 754.867246,1194.43085 L709.667246,1206.54085 C703.827246,1208.10085 697.767246,1204.60085 696.197246,1198.76085 L691.207246,1180.14085 C689.647246,1174.30085 693.147246,1168.24085 698.997246,1166.67085 L744.177246,1154.56085 C750.027246,1153.00085 756.087246,1156.50085 757.657246,1162.34085 L762.647246,1180.96085" id="Fill-44" fill="#FFFFFF"></path>
                <path d="M892.877246,1146.06085 C894.437246,1151.90085 890.937246,1157.96085 885.087246,1159.54085 L839.897246,1171.64085 C834.057246,1173.21085 827.997246,1169.71085 826.427246,1163.86085 L821.437246,1145.25085 C819.877246,1139.40085 823.377246,1133.35085 829.227246,1131.77085 L874.417246,1119.67085 C880.257246,1118.10085 886.317246,1121.60085 887.877246,1127.45085 L892.867246,1146.06085 L892.877246,1146.06085" id="Fill-45" fill="#FFFFFF"></path>
                <path d="M633.667246,1704.53085 L2056.03725,1704.53085 L2237.16725,676.370849 L1547.29725,676.370849 C1503.33725,676.370849 1445.79725,705.140849 1419.42725,740.310849 L1291.56725,910.770849 L894.697246,910.770849 C850.737246,910.770849 806.787246,945.830849 797.007246,988.670849 L633.667246,1704.53085" id="Fill-46" fill="#FBEDEC"></path>
                <path d="M2049.73725,1697.03085 L2103.91725,1389.49085 C2104.62725,1385.42085 2108.52725,1382.69085 2112.60725,1383.40085 C2116.67725,1384.12085 2119.40725,1388.02085 2118.68725,1392.10085 L2063.41725,1705.83085 C2062.78725,1709.42085 2059.66725,1712.03085 2056.03725,1712.03085 L1008.12725,1712.03085 C1003.97725,1712.03085 1000.62725,1708.67085 1000.62725,1704.53085 C1000.62725,1700.39085 1003.97725,1697.03085 1008.12725,1697.03085 L2049.73725,1697.03085" id="Fill-47" fill="#767B80"></path>
                <path d="M1287.81725,903.270849 L1413.42725,735.810849 C1441.03725,698.990849 1501.26725,668.870849 1547.29725,668.870849 L2237.16725,668.870849 C2239.37725,668.870849 2241.48725,669.850849 2242.90725,671.560849 C2244.33725,673.250849 2244.92725,675.490849 2244.54725,677.670849 L2192.20725,974.790849 C2191.48725,978.870849 2187.58725,981.600849 2183.51725,980.880849 C2179.43725,980.170849 2176.70725,976.270849 2177.42725,972.190849 L2228.22725,683.870849 L1547.29725,683.870849 C1505.39725,683.870849 1450.56725,711.290849 1425.42725,744.810849 L1297.56725,915.270849 C1296.15725,917.160849 1293.92725,918.270849 1291.56725,918.270849 L1264.93725,918.270849 C1260.79725,918.270849 1257.43725,914.910849 1257.43725,910.770849 C1257.43725,906.630849 1260.79725,903.270849 1264.93725,903.270849 L1287.81725,903.270849" id="Fill-48" fill="#767B80"></path>
                <path d="M643.067246,1697.03085 L914.577246,1697.03085 C918.707246,1697.03085 922.077246,1700.39085 922.077246,1704.53085 C922.077246,1708.67085 918.707246,1712.03085 914.577246,1712.03085 L633.667246,1712.03085 C631.387246,1712.03085 629.227246,1710.99085 627.797246,1709.21085 C626.377246,1707.42085 625.847246,1705.08085 626.357246,1702.86085 L789.687246,987.000849 C800.197246,940.950849 847.447246,903.270849 894.697246,903.270849 L1067.98725,903.270849 C1072.12725,903.270849 1075.48725,906.630849 1075.48725,910.770849 C1075.48725,914.910849 1072.12725,918.270849 1067.98725,918.270849 L894.697246,918.270849 C854.027246,918.270849 813.357246,950.700849 804.317246,990.340849 L643.067246,1697.03085" id="Fill-49" fill="#767B80"></path>
                <path d="M2535.46725,497.895849 L2535.46725,736.070849 C2535.46725,759.250849 2516.50725,778.220849 2493.29725,778.220849 L2065.41725,778.220849 C2042.22725,778.220849 2023.26725,759.250849 2023.26725,736.070849 L2023.26725,497.895849 C2023.26725,474.700849 2042.22725,455.730849 2065.41725,455.730849 L2493.29725,455.730849 C2516.50725,455.730849 2535.46725,474.695849 2535.46725,497.895849" id="Fill-54" fill="#F36763"></path>
                <path d="M2535.46725,497.895849 L2535.46725,507.750849 L2279.36725,669.000849 L2023.26725,507.750849 L2023.26725,497.895849 C2023.26725,474.700849 2042.23725,455.730849 2065.42725,455.730849 L2493.29725,455.730849 C2516.50725,455.730849 2535.46725,474.695849 2535.46725,497.895849" id="Fill-55" fill="#FBEDEC"></path>
                <path d="M2527.96725,497.895849 L2527.96725,736.070849 C2527.96725,755.130849 2512.37725,770.720849 2493.29725,770.720849 L2065.41725,770.720849 C2061.28725,770.720849 2057.91725,774.080849 2057.91725,778.220849 C2057.91725,782.360849 2061.28725,785.720849 2065.41725,785.720849 L2493.29725,785.720849 C2520.62725,785.720849 2542.96725,763.370849 2542.96725,736.070849 L2542.96725,497.895849 C2542.96725,493.755849 2539.60725,490.395849 2535.46725,490.395849 C2531.32725,490.395849 2527.96725,493.755849 2527.96725,497.895849" id="Fill-56" fill="#767B80"></path>
                <path d="M2030.76725,638.280849 L2030.76725,497.895849 C2030.76725,478.825849 2046.35725,463.230849 2065.41725,463.230849 L2406.19725,463.230849 C2410.33725,463.230849 2413.69725,459.870849 2413.69725,455.730849 C2413.69725,451.590849 2410.33725,448.230849 2406.19725,448.230849 L2065.41725,448.230849 C2038.10725,448.230849 2015.76725,470.570849 2015.76725,497.895849 L2015.76725,638.280849 C2015.76725,642.420849 2019.12725,645.780849 2023.26725,645.780849 C2027.40725,645.780849 2030.76725,642.420849 2030.76725,638.280849" id="Fill-57" fill="#767B80"></path>
                <path d="M2017.24725,367.380849 C2068.85725,367.380849 2110.70725,409.226849 2110.70725,460.845849 C2110.70725,512.460849 2068.85725,554.310849 2017.24725,554.310849 C1965.62725,554.310849 1923.77725,512.460849 1923.77725,460.845849 C1923.77725,409.226849 1965.62725,367.380849 2017.24725,367.380849" id="Fill-58" fill="#FBEDEC"></path>
                <path d="M2091.80725,503.625849 C2076.95725,529.420849 2049.11725,546.810849 2017.24725,546.810849 C1983.13725,546.810849 1953.64725,526.910849 1939.75725,498.095849 C1937.95725,494.365849 1933.46725,492.800849 1929.74725,494.595849 C1926.00725,496.395849 1924.44725,500.880849 1926.24725,504.610849 C1942.55725,538.440849 1977.19725,561.810849 2017.24725,561.810849 C2054.66725,561.810849 2087.37725,541.400849 2104.80725,511.100849 C2106.87725,507.520849 2105.63725,502.930849 2102.04725,500.865849 C2098.45725,498.800849 2093.87725,500.035849 2091.80725,503.625849" id="Fill-59" fill="#767B80"></path>
                <path d="M1931.27725,460.845849 C1931.27725,413.400849 1969.79725,374.880849 2017.24725,374.880849 C2037.61725,374.880849 2056.33725,381.985849 2071.08725,393.845849 C2074.29725,396.440849 2079.02725,395.930849 2081.62725,392.705849 C2084.21725,389.480849 2083.70725,384.755849 2080.48725,382.160849 C2063.16725,368.225849 2041.16725,359.880849 2017.24725,359.880849 C1961.51725,359.880849 1916.27725,405.120849 1916.27725,460.845849 C1916.27725,464.985849 1919.63725,468.345849 1923.77725,468.345849 C1927.91725,468.345849 1931.27725,464.985849 1931.27725,460.845849" id="Fill-60" fill="#767B80"></path>
                <path d="M2015.16725,417.085849 L1994.54725,431.290849 C1991.62725,433.300849 1987.62725,432.560849 1985.60725,429.645849 C1983.59725,426.725849 1984.33725,422.725849 1987.25725,420.715849 L2017.94725,399.580849 C2019.90725,398.225849 2022.45725,398.075849 2024.56725,399.185849 C2026.67725,400.290849 2028.00725,402.480849 2028.00725,404.865849 L2028.00725,507.100849 C2028.00725,510.640849 2025.12725,513.520849 2021.58725,513.520849 C2018.03725,513.520849 2015.16725,510.640849 2015.16725,507.100849 L2015.16725,417.085849" id="Fill-61" fill="#F36763"></path>
                <path d="M2914.16725,1239.27085 L2557.45725,1363.02085 L2200.75725,1239.27085 L2200.75725,1193.16085 C2200.75725,1173.14085 2216.24725,1151.38085 2235.13725,1144.83085 L2523.07725,1044.93085 C2541.99725,1038.37085 2572.93725,1038.37085 2591.84725,1044.93085 L2879.77725,1144.83085 C2898.68725,1151.39085 2914.16725,1173.14085 2914.16725,1193.16085 L2914.16725,1239.27085" id="Fill-62" fill="#F36763"></path>
                <path d="M2208.25725,1239.27085 L2208.25725,1193.16085 C2208.25725,1182.33085 2213.67725,1170.98085 2221.63725,1162.62085 C2224.49725,1159.62085 2224.37725,1154.87085 2221.38725,1152.02085 C2218.38725,1149.17085 2213.63725,1149.28085 2210.78725,1152.27085 C2200.15725,1163.43085 2193.25725,1178.72085 2193.25725,1193.16085 L2193.25725,1239.27085 C2193.25725,1243.40085 2196.61725,1246.77085 2200.75725,1246.77085 C2204.89725,1246.77085 2208.25725,1243.40085 2208.25725,1239.27085" id="Fill-63" fill="#767B80"></path>
                <path d="M2589.38725,1052.02085 L2877.32725,1151.91085 C2893.45725,1157.51085 2906.66725,1176.08085 2906.66725,1193.16085 L2906.66725,1239.27085 C2906.66725,1243.40085 2910.01725,1246.77085 2914.16725,1246.77085 C2918.29725,1246.77085 2921.66725,1243.40085 2921.66725,1239.27085 L2921.66725,1193.16085 C2921.66725,1170.21085 2903.92725,1145.26085 2882.22725,1137.74085 C2882.23725,1137.74085 2594.30725,1037.85085 2594.30725,1037.85085 C2590.39725,1036.49085 2586.11725,1038.56085 2584.75725,1042.48085 C2583.40725,1046.39085 2585.47725,1050.66085 2589.38725,1052.02085" id="Fill-64" fill="#767B80"></path>
                <path d="M2837.73725,1386.78085 C2837.73725,1403.71085 2823.87725,1417.57085 2806.95725,1417.57085 L2307.98725,1417.57085 C2291.04725,1417.57085 2277.18725,1403.72085 2277.18725,1386.78085 L2277.18725,964.290849 C2277.18725,947.360849 2291.04725,933.500849 2307.98725,933.500849 L2806.95725,933.510849 C2823.87725,933.510849 2837.73725,947.350849 2837.73725,964.290849 L2837.73725,1386.78085" id="Fill-65" fill="#FFFFFF"></path>
                <path d="M2284.68725,1178.83085 L2284.68725,964.290849 C2284.68725,951.480849 2295.16725,941.000849 2307.98725,941.000849 L2354.97725,941.000849 C2359.11725,941.000849 2362.47725,937.640849 2362.47725,933.500849 C2362.47725,929.360849 2359.11725,926.000849 2354.97725,926.000849 L2307.98725,926.000849 C2286.91725,926.000849 2269.68725,943.230849 2269.68725,964.290849 L2269.68725,1178.83085 C2269.68725,1182.96085 2273.04725,1186.33085 2277.18725,1186.33085 C2281.32725,1186.33085 2284.68725,1182.96085 2284.68725,1178.83085" id="Fill-66" fill="#767B80"></path>
                <path d="M2403.33725,941.000849 L2806.95725,941.010849 C2819.75725,941.010849 2830.23725,951.480849 2830.23725,964.290849 L2830.23725,1062.86085 C2830.23725,1067.00085 2833.59725,1070.36085 2837.73725,1070.36085 C2841.87725,1070.36085 2845.23725,1067.00085 2845.23725,1062.86085 L2845.23725,964.290849 C2845.23725,943.230849 2828.00725,926.010849 2806.95725,926.010849 L2403.33725,926.000849 C2399.19725,926.000849 2395.83725,929.370849 2395.83725,933.500849 C2395.83725,937.640849 2399.19725,941.000849 2403.33725,941.000849" id="Fill-67" fill="#767B80"></path>
                <path d="M2328.90725,1010.19085 L2447.19725,1010.19085 C2450.66725,1010.19085 2453.49725,1007.37085 2453.49725,1003.89085 C2453.49725,1000.42085 2450.66725,997.600849 2447.19725,997.600849 L2328.90725,997.600849 C2325.43725,997.600849 2322.61725,1000.42085 2322.61725,1003.89085 C2322.61725,1007.37085 2325.43725,1010.19085 2328.90725,1010.19085" id="Fill-68" fill="#767B80"></path>
                <path d="M2328.90725,1046.31085 L2447.19725,1046.31085 C2450.66725,1046.31085 2453.49725,1043.48085 2453.49725,1040.01085 C2453.49725,1036.54085 2450.66725,1033.72085 2447.19725,1033.72085 L2328.90725,1033.72085 C2325.43725,1033.72085 2322.61725,1036.54085 2322.61725,1040.01085 C2322.61725,1043.48085 2325.43725,1046.31085 2328.90725,1046.31085" id="Fill-69" fill="#767B80"></path>
                <path d="M2339.68725,1128.71085 L2769.18725,1128.71085 C2772.65725,1128.71085 2775.47725,1125.89085 2775.47725,1122.42085 C2775.47725,1118.95085 2772.65725,1116.13085 2769.18725,1116.13085 L2339.68725,1116.12085 C2336.21725,1116.12085 2333.39725,1118.95085 2333.39725,1122.42085 C2333.39725,1125.89085 2336.21725,1128.71085 2339.68725,1128.71085" id="Fill-70" fill="#767B80"></path>
                <path d="M2339.68725,1179.60085 L2769.18725,1179.60085 C2772.65725,1179.60085 2775.47725,1176.79085 2775.47725,1173.31085 C2775.47725,1169.84085 2772.65725,1167.02085 2769.18725,1167.02085 L2339.68725,1167.02085 C2336.21725,1167.02085 2333.39725,1169.84085 2333.39725,1173.31085 C2333.39725,1176.79085 2336.21725,1179.60085 2339.68725,1179.60085" id="Fill-71" fill="#767B80"></path>
                <path d="M2339.68725,1230.52085 L2769.18725,1230.52085 C2772.65725,1230.52085 2775.47725,1227.70085 2775.47725,1224.22085 C2775.47725,1220.75085 2772.65725,1217.93085 2769.18725,1217.93085 L2339.68725,1217.93085 C2336.21725,1217.93085 2333.39725,1220.75085 2333.39725,1224.22085 C2333.39725,1227.70085 2336.21725,1230.52085 2339.68725,1230.52085" id="Fill-72" fill="#767B80"></path>
                <path d="M2339.68725,1281.42085 L2769.18725,1281.42085 C2772.65725,1281.42085 2775.47725,1278.60085 2775.47725,1275.13085 C2775.47725,1271.66085 2772.65725,1268.84085 2769.18725,1268.84085 L2339.68725,1268.84085 C2336.21725,1268.84085 2333.39725,1271.66085 2333.39725,1275.13085 C2333.39725,1278.60085 2336.21725,1281.42085 2339.68725,1281.42085" id="Fill-73" fill="#767B80"></path>
                <path d="M2328.90725,1332.33085 L2758.40725,1332.33085 C2761.87725,1332.33085 2764.69725,1329.50085 2764.69725,1326.03085 C2764.69725,1322.56085 2761.87725,1319.74085 2758.40725,1319.74085 L2328.90725,1319.74085 C2325.43725,1319.74085 2322.61725,1322.56085 2322.61725,1326.03085 C2322.61725,1329.50085 2325.43725,1332.33085 2328.90725,1332.33085" id="Fill-74" fill="#767B80"></path>
                <path d="M2914.16725,1239.27085 L2914.16725,1598.38085 C2914.16725,1618.39085 2897.78725,1634.77085 2877.76725,1634.77085 L2237.16725,1634.77085 C2217.12725,1634.77085 2200.75725,1618.39085 2200.75725,1598.37085 L2200.75725,1239.27085 L2557.45725,1363.02085 L2914.16725,1239.27085" id="Fill-75" fill="#FBEDEC"></path>
                <path d="M2906.66725,1239.27085 L2906.66725,1337.46085 C2906.66725,1341.60085 2910.01725,1344.96085 2914.16725,1344.96085 C2918.29725,1344.96085 2921.66725,1341.60085 2921.66725,1337.46085 L2921.66725,1239.27085 C2921.66725,1235.13085 2918.29725,1231.77085 2914.16725,1231.77085 C2910.01725,1231.77085 2906.66725,1235.13085 2906.66725,1239.27085" id="Fill-76" fill="#767B80"></path>
                <path d="M2895.38725,1621.23085 C2890.50725,1625.02085 2884.38725,1627.28085 2877.77725,1627.28085 L2237.16725,1627.28085 C2229.20725,1627.28085 2221.98725,1624.02085 2216.74725,1618.78085 C2213.82725,1615.85085 2209.06725,1615.85085 2206.14725,1618.78085 C2203.20725,1621.71085 2203.21725,1626.46085 2206.14725,1629.39085 C2214.09725,1637.35085 2225.08725,1642.28085 2237.16725,1642.28085 L2877.77725,1642.28085 C2887.84725,1642.28085 2897.15725,1638.85085 2904.58725,1633.08085 C2907.85725,1630.54085 2908.45725,1625.83085 2905.91725,1622.56085 C2903.37725,1619.29085 2898.66725,1618.69085 2895.39725,1621.23085 L2895.38725,1621.23085" id="Fill-77" fill="#767B80"></path>
                <path d="M2208.25725,1249.81085 L2208.25725,1531.75085 C2208.25725,1535.89085 2204.89725,1539.25085 2200.75725,1539.25085 C2196.61725,1539.25085 2193.25725,1535.89085 2193.25725,1531.75085 L2193.25725,1239.27085 C2193.25725,1236.84085 2194.42725,1234.56085 2196.40725,1233.15085 C2198.37725,1231.75085 2200.91725,1231.38085 2203.20725,1232.18085 L2242.52725,1245.83085 C2246.43725,1247.18085 2248.51725,1251.46085 2247.15725,1255.36085 C2245.79725,1259.28085 2241.52725,1261.35085 2237.61725,1260.00085 L2208.25725,1249.81085" id="Fill-78" fill="#767B80"></path>
            </g>
        </g>
    </g>
</svg>