<?xml version="1.0" encoding="UTF-8"?>
<svg width="3380px" height="2590px" viewBox="0 0 3380 2590" version="1.1" xmlns="http://www.w3.org/2000/svg" xmlns:xlink="http://www.w3.org/1999/xlink">
    <title>services2</title>
    <g id="services2" stroke="none" stroke-width="1" fill="none" fill-rule="evenodd">
        <g id="Group-3" transform="translate(1642.715510, 1294.500000) rotate(-90.000000) translate(-1642.715510, -1294.500000) translate(528.715510, 182.000000)" fill="#ECEEF1" opacity="0.482282366">
            <g id="Group-2" transform="translate(1113.657244, 1112.500000) rotate(-90.000000) translate(-1113.657244, -1112.500000) translate(1.157244, -1.000000)">
                <path d="M694.713924,2155.17941 C706.668248,2160.45652 718.814941,2165.34885 730.906671,2170.3786 C755.172575,2180.27319 770.644493,2185.52282 781.994231,2187.77659 C793.508856,2189.70054 800.516563,2189.50814 807.441827,2189.31575 C814.394571,2189.09587 821.319835,2188.87599 832.642092,2190.63503 C838.330701,2191.48706 845.091077,2192.86131 853.555288,2194.92268 C861.992018,2197.23142 872.132583,2199.73255 884.581569,2202.34363 C984.091012,2223.64448 1087.7776,2231.78003 1190.4199,2224.24915 C1293.0622,2216.77324 1394.30296,2194.04316 1489.16808,2157.62557 C1679.33801,2084.79038 1842.384,1960.03608 1965.60973,1807.02722 C2088.91789,1653.82596 2174.52184,1470.55614 2208.35121,1274.28593 C2225.25215,1176.30199 2228.87967,1075.26722 2217.74978,975.386821 C2206.78478,875.533904 2180.89748,777.055236 2141.65432,685.117992 C2175.73102,779.309004 2191.3953,866.216497 2199.30989,952.436866 C2206.81226,1038.79466 2206.61989,1125.15245 2197.46865,1222.72412 C2191.36782,1221.95454 2179.35854,1220.52532 2171.99357,1268.01936 C2157.67587,1338.7382 2138.27414,1411.21608 2111.23263,1479.92852 C2084.10868,1548.50354 2051.68086,1614.0552 2015.26826,1671.99353 C1942.36063,1787.92516 1855.41009,1872.52392 1794.15449,1909.93097 C1784.26125,1916.58233 1774.23061,1922.95885 1762.30377,1929.33536 C1750.29448,1935.51948 1736.93862,1942.33575 1721.52166,1950.99352 C1706.407,1960.03608 1687.80223,1969.18858 1666.39437,1981.66675 C1645.37124,1994.69463 1619.15418,2007.69503 1589.11722,2025.50529 C1609.1785,2013.63178 1629.54207,2002.19803 1649.16365,1989.77482 C1668.26309,1976.637 1687.80223,1963.99392 1706.43448,1950.16897 C1702.752,1945.24916 1695.46948,1935.40954 1695.46948,1935.40954 C1620.91297,1987.63099 1528.71353,2035.31743 1430.46822,2065.35851 C1332.47025,2096.05922 1229.33328,2108.61986 1138.92012,2105.26669 C1138.92012,2105.26669 1138.89264,2093.03588 1138.89264,2086.90673 L1116.77027,2087.15409 C1109.40531,2086.90673 1102.06782,2086.30206 1094.67538,2085.8623 L1050.56805,2082.92141 C1029.76477,2069.64616 1044.54966,2064.47899 1080.49508,2060.93343 C1089.45395,2060.13636 1099.78688,2059.53169 1111.24655,2059.1469 C1122.70621,2058.56972 1135.34756,2056.89313 1148.86832,2055.95864 C1176.01975,2054.69434 1206.74373,2050.04937 1239.66622,2045.7892 C1305.29133,2035.09755 1378.61119,2015.83058 1445.1157,1988.31812 C1461.52198,1980.97963 1478.25804,1974.87797 1493.64751,1966.79738 C1509.00951,1958.82674 1524.06921,1951.07598 1538.57928,1943.57258 C1566.44522,1926.55938 1592.77222,1911.58007 1613.57549,1895.47387 C1610.14034,1890.41664 1603.29752,1880.27468 1599.86237,1875.16247 C1577.79496,1891.24118 1553.6115,1903.96673 1530.27996,1918.03904 L1529.37308,1916.41742 C1913.50536,1706.01993 2137.4497,1205.1887 1958.05239,758.970122 C1936.31476,704.934659 1908.53126,653.647694 1875.85611,605.658927 C1878.49431,608.352454 1881.07754,611.100952 1883.66077,613.876934 C1895.6151,627.399542 1907.95416,640.922151 1919.35886,654.252364 C1930.15897,668.159762 1940.46442,681.435005 1949.78055,693.390969 C1967.58837,718.072478 1980.91676,738.328905 1988.22676,746.794277 C2003.89104,773.482189 2012.4377,770.046567 2015.73544,747.453917 C2017.76905,736.514896 2016.77973,719.199362 2014.69116,698.0909 C2013.0148,676.680104 2007.87582,652.136021 2001.00552,624.980865 C1997.90014,611.183407 1993.47567,597.303494 1988.47409,583.066277 C1983.44503,568.884029 1978.60834,553.794777 1972.45255,539.200255 C1959.83867,510.148636 1946.12555,479.832707 1929.44446,451.907972 C1914.0275,422.938808 1894.95555,397.295325 1877.72483,372.366452 C1858.90021,349.196617 1841.55957,326.823847 1824.24641,310.003042 C1790.93919,274.739818 1795.22625,268.528214 1810.03862,269.682583 C1824.76855,270.781982 1849.96882,279.577174 1855.95972,272.65096 C1815.58983,242.280062 1786.59716,218.258193 1757.16479,193.933989 C1741.96768,182.500239 1726.63317,171.093974 1709.45741,159.550284 C1692.2267,148.116535 1672.22038,138.057033 1649.19113,127.227953 C1650.01557,125.661309 1633.71921,115.574323 1605.79831,101.529501 C1591.89282,94.3834069 1575.34913,85.8080944 1555.9474,78.1123012 C1536.62812,70.361538 1515.82484,60.6043716 1492.54826,53.4582779 C1401.31066,20.6412168 1282.64682,0.85203425 1205.64449,0 C1205.64449,0 1192.70084,0.742094346 1160.52035,2.55610275 C1128.44978,4.67244589 1077.14237,7.39345849 1001.62402,18.8821784 C951.305934,27.3200659 952.8174,34.3287348 953.971611,40.0456097 C952.762438,34.053885 952.762438,34.053885 951.525784,28.0346753 C927.72706,38.8087858 891.039652,47.9337978 854.407206,57.9932989 C817.77476,67.9153752 781.609494,80.0637345 759.129868,92.1571238 C756.848928,86.4677339 756.848928,86.4677339 754.567988,80.7783439 C665.144148,131.213274 568.630156,172.083433 491.930113,239.998809 C488.165188,235.188938 488.165188,235.188938 484.372782,230.351582 C464.531352,246.677658 444.882291,263.113673 429.685184,274.932213 C414.76289,287.025602 404.924619,295.13367 402.698641,292.797447 C398.521498,288.344881 398.521498,288.344881 394.316874,283.86483 C350.649239,314.180758 292.27916,400.675977 283.37525,393.090124 C288.102017,396.99299 288.102017,396.99299 292.828784,400.895857 C227.50596,480.217497 180.348212,556.873095 140.637871,630.450375 C131.156856,649.140158 121.840727,667.472637 112.689486,685.530266 C104.610012,704.192565 96.6679436,722.580014 88.7808378,740.802553 C84.9059879,749.95505 81.0586192,759.052577 77.2387317,768.122619 C73.9409871,777.46751 70.6707238,786.757432 67.4004604,796.019869 C61.0248208,814.654683 54.6766625,833.234526 48.3285042,851.786885 C16.0106073,951.639802 -2.73157448,1065.15275 0.483726493,1184.90479 C3.45169662,1304.9042 29.1466232,1427.59713 74.5180924,1541.85217 C164.958738,1771.35172 332.704012,1967.45702 534.086282,2093.1733 C579.237901,2121.40037 629.913243,2137.4516 591.631925,2099.96209 C613.314595,2114.00691 636.536213,2125.85294 659.840275,2137.56154 L694.713924,2155.17941" id="Fill-651"></path>
            </g>
        </g>
        <g id="Group" transform="translate(368.100000, 578.805000)">
            <path d="M2503.9,1417.485 L908.9,1417.485 C904.76,1417.485 901.4,1420.845 901.4,1424.985 C901.4,1429.125 904.76,1432.485 908.9,1432.485 L2503.9,1432.485 C2508.04,1432.485 2511.4,1429.125 2511.4,1424.985 C2511.4,1420.845 2508.04,1417.485 2503.9,1417.485" id="Fill-4" fill="#2D2E85"></path>
            <path d="M828.9,1417.485 L178.665,1417.485 C174.525,1417.485 171.165,1420.845 171.165,1424.985 C171.165,1429.125 174.525,1432.485 178.665,1432.485 L828.9,1432.485 C833.04,1432.485 836.4,1429.125 836.4,1424.985 C836.4,1420.845 833.04,1417.485 828.9,1417.485" id="Fill-5" fill="#2D2E85"></path>
            <path d="M1811.99,1425.175 L1754.22,968.005 C1751.39,945.615 1767.53,927.295 1790.1,927.295 L2277.03,927.295 L1811.99,1425.175" id="Fill-20" fill="#F36763"></path>
            <path d="M1811.99,1425.175 L2542.4,1425.175 L2635.4,897.205 L2281.14,897.205 C2258.57,897.205 2229.03,911.965 2215.48,930.035 L2149.82,1017.565 L1946.03,1017.565 C1923.46,1017.565 1900.89,1035.575 1895.86,1057.575 L1811.99,1425.175" id="Fill-22" fill="#FBEDEC"></path>
            <path d="M2626.46,904.705 L2281.14,904.705 C2272.32,904.705 2262.36,907.265 2252.86,911.415 C2249.07,913.065 2244.65,911.335 2242.99,907.535 C2241.33,903.735 2243.07,899.315 2246.86,897.665 C2258.36,892.645 2270.47,889.705 2281.14,889.705 L2635.4,889.705 C2637.61,889.705 2639.72,890.685 2641.15,892.385 C2642.57,894.085 2643.17,896.325 2642.78,898.505 L2587.56,1212.015 C2586.85,1216.095 2582.95,1218.815 2578.87,1218.105 C2574.8,1217.385 2572.07,1213.495 2572.79,1209.415 L2626.46,904.705" id="Fill-23" fill="#767B80"></path>
            <path d="M2146.07,1010.065 L2180.88,963.675 C2183.36,960.365 2188.07,959.695 2191.37,962.175 C2194.69,964.655 2195.36,969.365 2192.87,972.675 L2155.82,1022.065 C2154.41,1023.955 2152.19,1025.065 2149.82,1025.065 L1946.03,1025.065 C1926.75,1025.065 1907.47,1040.445 1903.18,1059.235 L1821.4,1417.675 L2536.11,1417.675 L2554.65,1312.405 C2555.36,1308.325 2559.26,1305.595 2563.34,1306.315 C2567.41,1307.035 2570.14,1310.925 2569.42,1315.005 L2549.78,1426.475 C2549.15,1430.065 2546.04,1432.675 2542.4,1432.675 L1811.99,1432.675 C1809.71,1432.675 1807.55,1431.635 1806.13,1429.855 C1804.7,1428.075 1804.17,1425.735 1804.68,1423.505 L1888.56,1055.905 C1894.31,1030.695 1920.17,1010.065 1946.03,1010.065 L2146.07,1010.065" id="Fill-24" fill="#767B80"></path>
            <polyline id="Fill-26" fill="#FBEDEC" points="1045.11 568.445 271.445 298.535 257.035 1425.175 1018.59 1425.175 1045.11 568.445"></polyline>
            <path d="M278.81,309.045 L277.435,416.825 C277.38,420.965 273.975,424.285 269.835,424.235 C265.7,424.175 262.38,420.775 262.434326,416.635 L263.945,298.445 C263.975,296.025 265.165,293.775 267.14,292.385 C269.115,291.005 271.64,290.655 273.915,291.455 L750.61,457.755 C754.52,459.115 756.59,463.405 755.22,467.305 C753.86,471.215 749.58,473.275 745.67,471.915 L278.81,309.045" id="Fill-27" fill="#767B80"></path>
            <path d="M233.195,1431.215 L542.1,1431.215 C546.24,1431.215 549.6,1427.855 549.6,1423.715 C549.6,1419.575 546.24,1416.215 542.1,1416.215 L233.195,1416.215 C229.055,1416.215 225.695,1419.575 225.695,1423.715 C225.695,1427.855 229.055,1431.215 233.195,1431.215" id="Fill-28" fill="#2D2E85"></path>
            <path d="M257.4,297.135 L33.66,297.135 C19.27,297.135 7.5,308.905 7.5,323.295 L7.5,1399.015 C7.5,1413.405 19.27,1425.175 33.66,1425.175 L257.4,1425.175 C271.79,1425.175 283.565,1413.405 283.565,1399.015 L283.565,323.295 C283.565,308.905 271.79,297.135 257.4,297.135 Z" id="Fill-29" fill="#FBEDEC"></path>
            <path d="M291.065,587.935 L291.065,323.295 C291.065,304.785 275.915,289.635 257.4,289.635 L33.66,289.635 C15.145,289.635 -5.96855898e-13,304.785 -5.96855898e-13,323.295 L-5.96855898e-13,1072.195 C-5.96855898e-13,1076.335 3.36,1079.695 7.5,1079.695 C11.635,1079.695 15,1076.335 15,1072.195 L15,323.295 C15,313.035 23.395,304.635 33.66,304.635 L257.4,304.635 C267.665,304.635 276.065,313.035 276.065,323.295 L276.065,587.935 C276.065,592.075 279.425,595.435 283.565,595.435 C287.7,595.435 291.065,592.075 291.065,587.935" id="Fill-30" fill="#767B80"></path>
            <path d="M-5.96855898e-13,1190.885 L-5.96855898e-13,1399.015 C-5.96855898e-13,1417.525 15.145,1432.675 33.66,1432.675 L257.4,1432.675 C275.915,1432.675 291.065,1417.525 291.065,1399.015 L291.065,814.845 C291.065,810.705 287.7,807.345 283.565,807.345 C279.425,807.345 276.065,810.705 276.065,814.845 L276.065,1399.015 C276.065,1409.275 267.665,1417.675 257.4,1417.675 L33.66,1417.675 C23.395,1417.675 15,1409.275 15,1399.015 L15,1190.885 C15,1186.755 11.635,1183.385 7.5,1183.385 C3.36,1183.385 -5.96855898e-13,1186.755 -5.96855898e-13,1190.885" id="Fill-31" fill="#767B80"></path>
            <path d="M239.08,515.305 C239.08,529.695 227.305,541.465 212.92,541.465 L78.15,541.465 C63.765,541.465 51.99,529.695 51.99,515.305 L51.99,444.765 C51.99,430.375 63.765,418.605 78.15,418.605 L212.92,418.605 C227.305,418.605 239.08,430.375 239.08,444.765 L239.08,515.305" id="Fill-32" fill="#FFFFFF"></path>
            <path d="M89.685,986.505 C89.685,995.145 83.4,1002.205 75.725,1002.205 C68.05,1002.205 61.765,995.145 61.765,986.505 L61.765,727.495 C61.765,718.865 68.05,711.795 75.725,711.795 C83.4,711.795 89.685,718.865 89.685,727.495 L89.685,986.505" id="Fill-33" fill="#FFFFFF"></path>
            <path d="M159.495,986.505 C159.495,995.145 153.21,1002.205 145.53,1002.205 C137.85,1002.205 131.565,995.145 131.565,986.505 L131.565,727.495 C131.565,718.865 137.85,711.795 145.53,711.795 C153.21,711.795 159.495,718.865 159.495,727.495 L159.495,986.505" id="Fill-34" fill="#FFFFFF"></path>
            <path d="M229.3,986.505 C229.3,995.145 223.015,1002.205 215.34,1002.205 C207.665,1002.205 201.38,995.145 201.38,986.505 L201.38,727.495 C201.38,718.865 207.665,711.795 215.34,711.795 C223.015,711.795 229.3,718.865 229.3,727.495 L229.3,986.505" id="Fill-35" fill="#FFFFFF"></path>
            <path d="M145.535,1197.675 C185.631,1197.675 218.135,1230.175 218.135,1270.275 C218.135,1310.375 185.631,1342.875 145.535,1342.875 C105.439,1342.875 72.935,1310.375 72.935,1270.275 C72.935,1230.175 105.439,1197.675 145.535,1197.675" id="Fill-36" fill="#F36763"></path>
            <path d="M145.535,1208.135 C179.83,1208.135 207.67,1235.985 207.67,1270.275 C207.67,1304.575 179.83,1332.405 145.535,1332.405 C111.24,1332.405 83.4,1304.575 83.4,1270.275 C83.4,1235.985 111.24,1208.135 145.535,1208.135 Z M145.535,1187.215 C99.69,1187.215 62.47,1224.425 62.47,1270.275 C62.47,1316.115 99.69,1353.345 145.535,1353.345 C191.38,1353.345 228.6,1316.115 228.6,1270.275 C228.6,1224.425 191.38,1187.215 145.535,1187.215 L145.535,1187.215 Z" id="Fill-37" fill="#FFFFFF"></path>
            <path d="M1900.99,631.815 L1188.86,878.865 L476.73,631.815 L476.73,539.755 C476.73,499.775 507.66,456.355 545.4,443.255 L1120.23,243.835 C1157.98,230.735 1219.78,230.735 1257.53,243.835 L1832.34,443.265 C1870.12,456.355 1900.99,499.775 1900.99,539.755 L1900.99,631.815" id="Fill-38" fill="#F36763"></path>
            <path d="M1748.41,926.305 C1748.41,960.105 1720.75,987.765 1686.95,987.765 L690.82,987.765 C657,987.765 629.33,960.105 629.33,926.305 L629.33,82.85 C629.33,49.04 657,21.385 690.82,21.385 L1686.95,21.385 C1720.75,21.385 1748.41,49.04 1748.41,82.845 L1748.41,926.305" id="Fill-41" fill="#FFFFFF"></path>
            <path d="M834.19,28.885 L1686.95,28.89 C1716.62,28.89 1740.91,53.165 1740.91,82.845 L1740.91,312.905 C1740.91,317.045 1744.27,320.405 1748.41,320.405 C1752.55,320.405 1755.91,317.045 1755.91,312.905 L1755.91,82.845 C1755.91,44.915 1724.87,13.89 1686.95,13.89 L834.19,13.885 C830.05,13.885 826.69,17.245 826.69,21.385 C826.69,25.525 830.05,28.885 834.19,28.885" id="Fill-42" fill="#767B80"></path>
            <path d="M1740.91,532.435 L1740.91,926.305 C1740.91,955.985 1716.62,980.265 1686.95,980.265 L690.82,980.265 C661.13,980.265 636.83,955.985 636.83,926.305 L636.83,82.85 C636.83,69.11 642.04,56.535 650.58,46.985 C653.33,43.9 653.07,39.155 649.98,36.395 C646.89,33.635 642.15,33.905 639.39,36.99 C628.48,49.2 621.83,65.285 621.83,82.85 L621.83,926.305 C621.83,964.235 652.88,995.265 690.82,995.265 L1686.95,995.265 C1724.88,995.265 1755.91,964.235 1755.91,926.305 L1755.91,532.435 C1755.91,528.295 1752.55,524.935 1748.41,524.935 C1744.27,524.935 1740.91,528.295 1740.91,532.435" id="Fill-43" fill="#767B80"></path>
            <path d="M968.74,173.55 L732.57,173.55 C726.14,173.55 720.92,168.335 720.92,161.905 C720.92,155.47 726.14,150.26 732.57,150.26 L968.74,150.26 C975.17,150.26 980.39,155.47 980.39,161.905 C980.39,168.335 975.18,173.55 968.74,173.55" id="Fill-44" fill="#767B80"></path>
            <path d="M968.74,245.665 L732.57,245.665 C726.14,245.665 720.92,240.445 720.92,234.025 C720.92,227.585 726.14,222.37 732.57,222.37 L968.74,222.37 C975.17,222.37 980.39,227.585 980.39,234.025 C980.39,240.445 975.18,245.665 968.74,245.665" id="Fill-45" fill="#767B80"></path>
            <path d="M1611.56,410.175 L754.11,410.175 C747.67,410.175 742.46,404.955 742.46,398.525 C742.46,392.095 747.67,386.885 754.11,386.885 L1611.56,386.885 C1617.99,386.885 1623.21,392.095 1623.21,398.525 C1623.2,404.955 1617.98,410.175 1611.56,410.175" id="Fill-46" fill="#767B80"></path>
            <path d="M1611.56,511.785 L754.11,511.785 C747.67,511.785 742.46,506.575 742.46,500.135 C742.46,493.715 747.67,488.485 754.11,488.485 L1611.56,488.485 C1617.99,488.485 1623.21,493.715 1623.21,500.135 C1623.2,506.575 1617.98,511.785 1611.56,511.785" id="Fill-47" fill="#767B80"></path>
            <path d="M1611.56,613.425 L754.11,613.425 C747.67,613.425 742.46,608.195 742.46,601.765 C742.46,595.335 747.67,590.115 754.11,590.115 L1611.56,590.115 C1617.99,590.115 1623.21,595.335 1623.21,601.765 C1623.2,608.195 1617.98,613.425 1611.56,613.425" id="Fill-48" fill="#767B80"></path>
            <path d="M1611.56,715.045 L754.11,715.045 C747.67,715.045 742.46,709.835 742.46,703.405 C742.46,696.965 747.67,691.755 754.11,691.755 L1611.56,691.755 C1617.99,691.755 1623.21,696.975 1623.21,703.405 C1623.2,709.835 1617.98,715.045 1611.56,715.045" id="Fill-49" fill="#767B80"></path>
            <path d="M1590.03,816.675 L732.57,816.675 C726.14,816.675 720.92,811.445 720.92,805.025 C720.92,798.585 726.14,793.385 732.57,793.385 L1590.03,793.385 C1596.47,793.385 1601.68,798.585 1601.68,805.025 C1601.68,811.445 1596.47,816.675 1590.03,816.675" id="Fill-50" fill="#767B80"></path>
            <path d="M1900.99,631.815 L1900.99,1348.745 C1900.99,1388.695 1868.3,1421.405 1828.33,1421.405 L549.42,1421.405 C509.42,1421.405 476.73,1388.695 476.73,1348.735 L476.73,631.815 L1188.84,878.865 L1900.99,631.815" id="Fill-51" fill="#FBEDEC"></path>
            <path d="M1893.49,642.345 L1664.3,721.865 C1660.39,723.215 1656.11,721.145 1654.76,717.235 C1653.4,713.325 1655.48,709.045 1659.39,707.695 L1898.53,624.725 C1900.82,623.925 1903.36,624.295 1905.34,625.695 C1907.32,627.105 1908.49,629.385 1908.49,631.815 L1908.49,1123.935 C1908.49,1128.075 1905.13,1131.435 1900.99,1131.435 C1896.85,1131.435 1893.49,1128.075 1893.49,1123.935 L1893.49,642.345" id="Fill-52" fill="#767B80"></path>
            <path d="M484.23,642.345 L484.23,1348.735 C484.23,1384.565 513.55,1413.905 549.42,1413.905 L1828.33,1413.905 C1864.17,1413.905 1893.49,1384.575 1893.49,1348.745 L1893.49,1276.675 C1893.49,1272.545 1896.85,1269.175 1900.99,1269.175 C1905.12,1269.175 1908.49,1272.545 1908.49,1276.675 L1908.49,1348.745 C1908.49,1392.825 1872.42,1428.905 1828.33,1428.905 L549.41,1428.905 C505.3,1428.905 469.22,1392.815 469.22,1348.735 L469.22,631.815 C469.22,629.385 470.4,627.105 472.37,625.695 C474.35,624.295 476.89,623.925 479.18,624.725 L575.2,658.035 C579.11,659.385 581.18,663.675 579.83,667.575 C578.47,671.485 574.19,673.565 570.28,672.205 L484.22,642.345 L484.23,642.345" id="Fill-53" fill="#767B80"></path>
            <polygon id="Fill-54" fill="#FFFFFF" points="1965.53 778.255 2536.32 778.255 2536.32 7.5 1965.53 7.5"></polygon>
            <path d="M2528.82,15 L2107.36,15 C2103.21,15 2099.86,11.64 2099.86,7.5 C2099.86,3.36 2103.21,1.42108547e-14 2107.36,1.42108547e-14 L2536.32,1.42108547e-14 C2540.45,1.42108547e-14 2543.82,3.36 2543.82,7.5 L2543.82,156.11 C2543.82,160.25 2540.45,163.61 2536.32,163.61 C2532.17,163.61 2528.82,160.25 2528.82,156.11 L2528.82,15" id="Fill-55" fill="#767B80"></path>
            <path d="M1973.03,15 L1973.03,674.055 C1973.03,678.195 1969.67,681.555 1965.53,681.555 C1961.39,681.555 1958.03,678.195 1958.03,674.055 L1958.03,7.5 C1958.03,3.36 1961.39,1.13686838e-13 1965.53,1.13686838e-13 L2052.22,1.13686838e-13 C2056.36,1.13686838e-13 2059.72,3.36 2059.72,7.5 C2059.72,11.64 2056.36,15 2052.22,15 L1973.03,15" id="Fill-56" fill="#767B80"></path>
            <path d="M2528.82,770.755 L2528.82,643.445 C2528.82,639.295 2532.17,635.945 2536.32,635.945 C2540.45,635.945 2543.82,639.295 2543.82,643.445 L2543.82,778.255 C2543.82,782.405 2540.45,785.755 2536.32,785.755 L2032.66,785.755 C2028.52,785.755 2025.16,782.405 2025.16,778.255 C2025.16,774.125 2028.52,770.755 2032.66,770.755 L2528.82,770.755" id="Fill-57" fill="#767B80"></path>
            <path d="M2379.9,109.53 C2379.9,114.315 2375.98,118.22 2371.2,118.22 L2112.24,118.22 C2107.46,118.22 2103.55,114.315 2103.55,109.53 L2103.55,106.855 C2103.55,102.075 2107.46,98.165 2112.24,98.165 L2371.2,98.165 C2375.98,98.165 2379.9,102.075 2379.9,106.855 L2379.9,109.53" id="Fill-58" fill="#767B80"></path>
            <path d="M2027.64,81.545 C2042.35,81.545 2054.28,93.477 2054.28,108.195 C2054.28,122.913 2042.35,134.845 2027.64,134.845 C2012.92,134.845 2000.98,122.913 2000.98,108.195 C2000.98,93.477 2012.92,81.545 2027.64,81.545" id="Fill-59" fill="#F36763"></path>
            <path d="M2147.57,195.915 L2449.94,195.915 C2452.76,195.915 2455.06,193.62 2455.06,190.795 C2455.06,187.965 2452.76,185.67 2449.94,185.67 L2147.57,185.67 C2144.74,185.67 2142.44,187.965 2142.44,190.795 C2142.44,193.62 2144.74,195.915 2147.57,195.915" id="Fill-60" fill="#767B80"></path>
            <path d="M2051.9,234.155 L2449.94,234.155 C2452.76,234.155 2455.06,231.855 2455.06,229.025 C2455.06,226.2 2452.76,223.905 2449.94,223.905 L2051.9,223.905 C2049.08,223.905 2046.78,226.2 2046.78,229.025 C2046.78,231.855 2049.08,234.155 2051.9,234.155" id="Fill-61" fill="#767B80"></path>
            <path d="M2051.9,272.385 L2449.94,272.385 C2452.76,272.385 2455.06,270.095 2455.06,267.265 C2455.06,264.445 2452.76,262.145 2449.94,262.145 L2051.9,262.145 C2049.08,262.145 2046.78,264.445 2046.78,267.265 C2046.78,270.095 2049.08,272.385 2051.9,272.385" id="Fill-62" fill="#767B80"></path>
            <path d="M2104.11,343.655 L2449.94,343.655 C2452.76,343.655 2455.06,341.355 2455.06,338.525 C2455.06,335.695 2452.76,333.405 2449.94,333.405 L2104.11,333.405 C2101.28,333.405 2098.99,335.695 2098.99,338.525 C2098.99,341.355 2101.28,343.655 2104.11,343.655" id="Fill-63" fill="#767B80"></path>
            <path d="M2104.11,385.365 L2449.94,385.365 C2452.76,385.365 2455.06,383.075 2455.06,380.235 C2455.06,377.415 2452.76,375.115 2449.94,375.115 L2104.11,375.115 C2101.28,375.115 2098.99,377.415 2098.99,380.235 C2098.99,383.075 2101.28,385.365 2104.11,385.365" id="Fill-64" fill="#767B80"></path>
            <path d="M2104.11,427.085 L2449.94,427.085 C2452.76,427.085 2455.06,424.785 2455.06,421.965 C2455.06,419.135 2452.76,416.835 2449.94,416.835 L2104.11,416.835 C2101.28,416.835 2098.99,419.135 2098.99,421.965 C2098.99,424.785 2101.28,427.085 2104.11,427.085" id="Fill-65" fill="#767B80"></path>
            <path d="M2104.11,468.795 L2449.94,468.795 C2452.76,468.795 2455.06,466.505 2455.06,463.675 C2455.06,460.845 2452.76,458.545 2449.94,458.545 L2104.11,458.545 C2101.28,458.545 2098.99,460.845 2098.99,463.675 C2098.99,466.505 2101.28,468.795 2104.11,468.795" id="Fill-66" fill="#767B80"></path>
            <path d="M2104.11,510.505 L2449.94,510.505 C2452.76,510.505 2455.06,508.215 2455.06,505.385 C2455.06,502.555 2452.76,500.265 2449.94,500.265 L2104.11,500.265 C2101.28,500.265 2098.99,502.555 2098.99,505.385 C2098.99,508.215 2101.28,510.505 2104.11,510.505" id="Fill-67" fill="#767B80"></path>
            <path d="M2104.11,552.215 L2449.94,552.215 C2452.76,552.215 2455.06,549.925 2455.06,547.105 C2455.06,544.275 2452.76,541.975 2449.94,541.975 L2104.11,541.975 C2101.28,541.975 2098.99,544.275 2098.99,547.105 C2098.99,549.925 2101.28,552.215 2104.11,552.215" id="Fill-68" fill="#767B80"></path>
            <path d="M2104.11,593.925 L2449.94,593.925 C2452.76,593.925 2455.06,591.635 2455.06,588.805 C2455.06,585.985 2452.76,583.685 2449.94,583.685 L2104.11,583.685 C2101.28,583.685 2098.99,585.985 2098.99,588.805 C2098.99,591.635 2101.28,593.925 2104.11,593.925" id="Fill-69" fill="#767B80"></path>
            <path d="M2057.77,330.405 C2062.25,330.405 2065.88,334.045 2065.88,338.525 C2065.88,343.005 2062.25,346.635 2057.77,346.635 C2053.28,346.635 2049.65,343.005 2049.65,338.525 C2049.65,334.045 2053.28,330.405 2057.77,330.405" id="Fill-70" fill="#767B80"></path>
            <path d="M2057.77,372.125 C2062.25,372.125 2065.88,375.755 2065.88,380.235 C2065.88,384.725 2062.25,388.355 2057.77,388.355 C2053.28,388.355 2049.65,384.725 2049.65,380.235 C2049.65,375.755 2053.28,372.125 2057.77,372.125" id="Fill-71" fill="#767B80"></path>
            <path d="M2057.77,413.845 C2062.25,413.845 2065.88,417.475 2065.88,421.965 C2065.88,426.445 2062.25,430.075 2057.77,430.075 C2053.28,430.075 2049.65,426.445 2049.65,421.965 C2049.65,417.475 2053.28,413.845 2057.77,413.845" id="Fill-72" fill="#767B80"></path>
            <path d="M2057.77,455.555 C2062.25,455.555 2065.88,459.185 2065.88,463.675 C2065.88,468.155 2062.25,471.785 2057.77,471.785 C2053.28,471.785 2049.65,468.155 2049.65,463.675 C2049.65,459.185 2053.28,455.555 2057.77,455.555" id="Fill-73" fill="#767B80"></path>
            <path d="M2057.77,497.275 C2062.25,497.275 2065.88,500.905 2065.88,505.385 C2065.88,509.865 2062.25,513.505 2057.77,513.505 C2053.28,513.505 2049.65,509.865 2049.65,505.385 C2049.65,500.905 2053.28,497.275 2057.77,497.275" id="Fill-74" fill="#767B80"></path>
            <path d="M2057.77,538.985 C2062.25,538.985 2065.88,542.615 2065.88,547.095 C2065.88,551.585 2062.25,555.215 2057.77,555.215 C2053.28,555.215 2049.65,551.585 2049.65,547.095 C2049.65,542.615 2053.28,538.985 2057.77,538.985" id="Fill-75" fill="#767B80"></path>
            <path d="M2057.77,580.695 C2062.25,580.695 2065.88,584.325 2065.88,588.805 C2065.88,593.295 2062.25,596.925 2057.77,596.925 C2053.28,596.925 2049.65,593.295 2049.65,588.805 C2049.65,584.325 2053.28,580.695 2057.77,580.695" id="Fill-76" fill="#767B80"></path>
        </g>
    </g>
</svg>