<?xml version="1.0" encoding="UTF-8"?>
<svg width="107px" height="66px" viewBox="0 0 107 66" version="1.1" xmlns="http://www.w3.org/2000/svg" xmlns:xlink="http://www.w3.org/1999/xlink">
    <title>Group</title>
    <g id="Page-1" stroke="none" stroke-width="1" fill="none" fill-rule="evenodd">
        <g id="59924" transform="translate(-655.000000, -591.000000)">
            <g id="Group" transform="translate(655.041600, 591.125063)">
                <path d="M38.8634,49.8969366 C44.7404,49.1229366 51.8524,50.7409366 57.7814,50.0609366 C64.9004,49.1229366 72.5794,49.4399366 79.6674,49.7319366 C79.6514,50.3479366 79.0374,51.2459366 79.6204,51.5779366 C81.9594,52.5979366 81.9284,53.8289366 81.8964,55.0599366 C81.8814,55.6749366 80.1254,54.9859366 80.6994,55.6259366 C78.9284,55.5529366 75.9654,55.7379366 77.7234,56.4269366 C78.2984,57.0659366 80.6764,56.5479366 81.2424,57.4949366 C81.8114,58.4429366 80.6054,59.3169366 81.1724,60.2639366 C81.7644,60.2879366 82.9454,60.3369366 83.5364,60.3599366 C84.1104,61.0009366 82.8984,62.1839366 83.4894,62.2069366 C85.2454,62.8949366 87.6164,62.6849366 89.9784,62.7829366 C89.9624,63.3979366 90.5384,64.0369366 89.3494,64.2969366 C68.6594,64.0589366 47.3644,64.4129366 26.7154,62.6359366 C24.3594,62.2309366 26.1634,61.0739366 27.9584,60.2249366 C27.3604,60.5089366 27.3844,59.5849366 26.7844,59.8679366 C26.8084,58.9449366 28.0284,57.4569366 30.3994,57.2459366 C29.8094,57.2219366 29.2194,57.1969366 28.6274,57.1729366 C28.0444,56.8419366 28.6504,56.2499366 28.6664,55.6359366 C29.2584,55.6599366 29.8484,55.6849366 29.8554,55.3759366 C29.8634,55.0679366 29.8794,54.4529366 29.8874,54.1449366 C29.2974,54.1209366 28.1144,54.0719366 27.5244,54.0479366 C28.1144,54.0719366 28.7054,54.0969366 28.7134,53.7899366 C28.7214,53.4819366 28.7364,52.8669366 28.7444,52.5589366 C29.9344,52.2999366 31.6894,52.9879366 32.8804,52.7279366 L32.9034,51.8069366 C31.7294,51.4499366 29.9494,51.6849366 28.7684,51.6369366 C29.3674,51.3519366 29.3754,51.0459366 29.3914,50.4299366 C31.1704,50.1949366 32.9194,51.1909366 34.7134,50.3419366 C34.1234,50.3169366 33.5324,50.2929366 32.9424,50.2679366 C34.1624,48.7789366 37.0834,50.1319366 38.8634,49.8969366" id="Fill-289" fill="#000000"></path>
                <path d="M36.0074,55.2959366 C35.8754,55.2959366 35.7684,55.3309366 35.6834,55.3999366 C35.5984,55.4719366 35.5564,55.5709366 35.5564,55.7039366 C35.5564,55.8349366 35.5954,55.9409366 35.6744,56.0209366 C35.7514,56.1019366 35.8544,56.1639366 35.9794,56.2069366 C36.1044,56.2499366 36.2454,56.2919366 36.3994,56.3309366 C36.5544,56.3699366 36.7074,56.4169366 36.8604,56.4729366 C37.0124,56.5279366 37.1514,56.5979366 37.2774,56.6799366 C37.4024,56.7629366 37.5054,56.8789366 37.5834,57.0289366 C37.6614,57.1799366 37.7004,57.3589366 37.7004,57.5699366 C37.7004,57.9359366 37.5514,58.2509366 37.2534,58.5129366 C36.9534,58.7729366 36.5614,58.9049366 36.0724,58.9049366 C35.5844,58.9049366 35.1904,58.7869366 34.8924,58.5529366 C34.5934,58.3169366 34.4434,57.9839366 34.4434,57.5519366 L35.5684,57.5519366 C35.5974,57.8969366 35.7744,58.0699366 36.1004,58.0699366 C36.2524,58.0699366 36.3724,58.0299366 36.4584,57.9499366 C36.5454,57.8699366 36.5884,57.7679366 36.5884,57.6429366 C36.5884,57.5199366 36.5494,57.4199366 36.4714,57.3409366 C36.3934,57.2639366 36.2904,57.2009366 36.1644,57.1549366 C36.0394,57.1099366 35.8984,57.0679366 35.7454,57.0289366 C35.5904,56.9899366 35.4374,56.9419366 35.2834,56.8839366 C35.1324,56.8259366 34.9924,56.7569366 34.8674,56.6769366 C34.7414,56.5969366 34.6404,56.4809366 34.5614,56.3309366 C34.4824,56.1809366 34.4434,56.0029366 34.4434,55.7959366 C34.4434,55.3929366 34.5944,55.0689366 34.8954,54.8259366 C35.1954,54.5829366 35.5794,54.4619366 36.0474,54.4619366 C36.5154,54.4619366 36.8934,54.5669366 37.1824,54.7789366 C37.4704,54.9919366 37.6204,55.3259366 37.6334,55.7839366 L36.4824,55.7839366 C36.4674,55.6269366 36.4164,55.5069366 36.3314,55.4229366 C36.2474,55.3379366 36.1394,55.2959366 36.0074,55.2959366" id="Fill-290" fill="#FFFFFF"></path>
                <polyline id="Fill-291" fill="#FFFFFF" points="41.3284 55.3259366 41.3284 54.5229366 44.7514 54.5229366 44.7514 55.3259366 43.5654 55.3259366 43.5654 58.8609366 42.5084 58.8609366 42.5084 55.3259366 41.3284 55.3259366"></polyline>
                <path d="M48.4534,57.1119366 L48.4534,54.5229366 L49.5114,54.5229366 L49.5114,57.1119366 C49.5114,57.3719366 49.5744,57.5719366 49.7014,57.7129366 C49.8294,57.8519366 50.0174,57.9219366 50.2654,57.9219366 C50.5124,57.9219366 50.7004,57.8519366 50.8334,57.7129366 C50.9654,57.5719366 51.0304,57.3719366 51.0304,57.1119366 L51.0304,54.5229366 L52.0874,54.5229366 L52.0874,57.1119366 C52.0874,57.4959366 51.9974,57.8269366 51.8184,58.1039366 C51.6404,58.3829366 51.4134,58.5859366 51.1394,58.7139366 C50.8644,58.8409366 50.5674,58.9049366 50.2454,58.9049366 C49.7434,58.9049366 49.3184,58.7479366 48.9734,58.4349366 C48.6264,58.1219366 48.4534,57.6819366 48.4534,57.1119366" id="Fill-292" fill="#FFFFFF"></path>
                <path d="M57.1374,58.0589366 L57.6064,58.0589366 C58.0114,58.0589366 58.3274,57.9349366 58.5584,57.6869366 C58.7894,57.4399366 58.9034,57.1079366 58.9034,56.6919366 C58.9034,56.2759366 58.7894,55.9439366 58.5584,55.6969366 C58.3274,55.4499366 58.0114,55.3259366 57.6064,55.3259366 L57.1374,55.3259366 L57.1374,58.0589366 Z M57.6064,54.5229366 C58.2994,54.5229366 58.8674,54.7239366 59.3124,55.1259366 C59.7574,55.5269366 59.9794,56.0489366 59.9794,56.6889366 C59.9794,57.3299366 59.7574,57.8519366 59.3124,58.2559366 C58.8674,58.6599366 58.2994,58.8609366 57.6064,58.8609366 L56.0804,58.8609366 L56.0804,54.5229366 L57.6064,54.5229366 L57.6064,54.5229366 Z" id="Fill-293" fill="#FFFFFF"></path>
                <polygon id="Fill-294" fill="#FFFFFF" points="63.7374 58.8609366 64.7944 58.8609366 64.7944 54.5229366 63.7374 54.5229366"></polygon>
                <path d="M71.6134,57.5879366 C71.8214,57.3609366 71.9264,57.0599366 71.9264,56.6799366 C71.9264,56.3009366 71.8214,55.9979366 71.6134,55.7709366 C71.4054,55.5449366 71.1274,55.4319366 70.7794,55.4319366 C70.4314,55.4319366 70.1524,55.5449366 69.9444,55.7709366 C69.7364,55.9979366 69.6324,56.3009366 69.6324,56.6799366 C69.6324,57.0599366 69.7364,57.3609366 69.9444,57.5879366 C70.1524,57.8149366 70.4314,57.9289366 70.7794,57.9289366 C71.1274,57.9289366 71.4054,57.8149366 71.6134,57.5879366 Z M69.2034,58.2739366 C68.7724,57.8539366 68.5574,57.3219366 68.5574,56.6799366 C68.5574,56.0369366 68.7724,55.5069366 69.2034,55.0889366 C69.6344,54.6709366 70.1614,54.4619366 70.7854,54.4619366 C71.4094,54.4619366 71.9354,54.6709366 72.3614,55.0889366 C72.7874,55.5069366 73.0014,56.0369366 73.0014,56.6799366 C73.0014,57.3219366 72.7864,57.8539366 72.3574,58.2739366 C71.9304,58.6939366 71.4044,58.9049366 70.7824,58.9049366 C70.1604,58.9049366 69.6344,58.6939366 69.2034,58.2739366 L69.2034,58.2739366 Z" id="Fill-295" fill="#FFFFFF"></path>
                <path d="M7.6234,20.9249366 C7.0144,21.1849366 6.4914,21.5399366 6.0564,21.9859366 C5.4034,22.7039366 4.8124,23.4579366 4.2844,24.2469366 C3.7564,25.0359366 3.2864,25.8709366 2.8724,26.7539366 C2.8504,26.8079366 2.8254,26.8699366 2.7984,26.9399366 C2.7714,27.0119366 2.7524,27.1019366 2.7414,27.2109366 C2.8834,27.0589366 3.0244,26.9329366 3.1664,26.8349366 C3.3074,26.7369366 3.4434,26.6399366 3.5744,26.5409366 C3.7914,26.3889366 4.0094,26.2329366 4.2284,26.0759366 C4.4454,25.9179366 4.6514,25.7459366 4.8484,25.5609366 C5.0544,25.3649366 5.2504,25.1669366 5.4364,24.9649366 C5.6204,24.7639366 5.8064,24.5549366 5.9914,24.3369366 C6.8404,23.3789366 7.3844,22.2419366 7.6234,20.9249366 Z M8.1134,34.4919366 C8.1244,33.6329366 8.0474,32.7559366 7.8854,31.8629366 C7.8184,31.4939366 7.7134,31.1429366 7.5654,30.8099366 C7.4194,30.4779366 7.2044,30.1819366 6.9214,29.9209366 C6.3124,29.3769366 5.6324,29.0179366 4.8804,28.8439366 C4.6944,28.7999366 4.5054,28.7749366 4.3094,28.7689366 C4.1124,28.7649366 3.9224,28.7939366 3.7374,28.8589366 C3.5424,28.9349366 3.3434,28.9929366 3.1424,29.0299366 C2.9394,29.0689366 2.7354,29.0989366 2.5294,29.1209366 C2.3764,29.1429366 2.2844,29.1669366 2.2524,29.1939366 C2.2194,29.2219366 2.1874,29.3099366 2.1544,29.4639366 C2.0994,29.7139366 2.0724,29.9609366 2.0724,30.2059366 C2.0724,30.4509366 2.0724,30.6989366 2.0724,30.9489366 C2.0724,31.1879366 2.0724,31.4259366 2.0724,31.6589366 C2.0724,31.8929366 2.0664,32.1299366 2.0564,32.3699366 C2.0454,32.7279366 2.0254,33.0849366 1.9984,33.4389366 C1.9724,33.7929366 1.9584,34.1439366 1.9584,34.4919366 C1.9584,34.7749366 1.9464,35.0589366 1.9254,35.3409366 C1.9024,35.6239366 1.8764,35.9069366 1.8444,36.1899366 C1.8114,36.5499366 1.8494,36.8789366 1.9584,37.1779366 C2.0664,37.4769366 2.2694,37.7409366 2.5624,37.9699366 C3.0624,38.3609366 3.5824,38.6199366 4.1214,38.7459366 C4.6594,38.8699366 5.2334,38.8239366 5.8444,38.6059366 C6.4644,38.3889366 6.9594,38.0619366 7.3294,37.6269366 C7.6994,37.1909366 7.9384,36.6419366 8.0474,35.9779366 C8.0804,35.7269366 8.0974,35.4799366 8.0974,35.2349366 C8.0974,34.9899366 8.1024,34.7429366 8.1134,34.4919366 Z M5.8114,27.5699366 C5.8444,27.6239366 5.8854,27.6539366 5.9334,27.6589366 C5.9824,27.6649366 6.0344,27.6789366 6.0884,27.6999366 C6.5134,27.8739366 6.9184,28.0729366 7.3054,28.2959366 C7.6914,28.5189366 8.0474,28.7889366 8.3744,29.1039366 C8.6574,29.3879366 8.9074,29.6949366 9.1254,30.0269366 C9.3434,30.3589366 9.5284,30.7149366 9.6804,31.0969366 C9.8444,31.4769366 9.9664,31.8609366 10.0484,32.2469366 C10.1294,32.6339366 10.2034,33.0329366 10.2684,33.4469366 C10.3334,33.9159366 10.3884,34.3809366 10.4324,34.8429366 C10.4754,35.3059366 10.4914,35.7769366 10.4804,36.2549366 C10.4804,36.6469366 10.4324,37.0229366 10.3334,37.3819366 C10.2354,37.7409366 10.1004,38.0899366 9.9254,38.4269366 C9.4684,39.3189366 8.8314,40.0599366 8.0154,40.6469366 C7.2304,41.2029366 6.3824,41.5019366 5.4684,41.5449366 C4.6514,41.5779366 3.8734,41.4689366 3.1334,41.2189366 C2.6214,41.0449366 2.1654,40.7559366 1.7624,40.3529366 C1.7074,40.2989366 1.6584,40.2449366 1.6144,40.1899366 C1.5714,40.1359366 1.5064,40.0919366 1.4194,40.0599366 C1.3964,40.1469366 1.3844,40.2259366 1.3784,40.2969366 C1.3734,40.3669366 1.3584,40.4399366 1.3384,40.5169366 C1.3264,40.5709366 1.3114,40.6169366 1.2884,40.6549366 C1.2674,40.6939366 1.2294,40.7129366 1.1744,40.7129366 C1.1204,40.7129366 1.0294,40.7129366 0.9044,40.7129366 C0.7794,40.7129366 0.7064,40.6909366 0.6844,40.6469366 C0.5974,40.4509366 0.5344,40.2469366 0.4964,40.0349366 C0.4584,39.8229366 0.4374,39.6069366 0.4314,39.3899366 C0.4264,39.1729366 0.4284,38.9549366 0.4394,38.7369366 C0.4504,38.5189366 0.4554,38.3019366 0.4554,38.0839366 C0.4444,37.1479366 0.4394,36.2179366 0.4394,35.2919366 C0.4394,34.3669366 0.4344,33.4419366 0.4234,32.5169366 C0.4234,31.9939366 0.4124,31.4749366 0.3914,30.9579366 C0.3684,30.4399366 0.3634,29.9209366 0.3744,29.3979366 C0.3744,29.0179366 0.3664,28.6369366 0.3504,28.2559366 C0.3334,27.8739366 0.3194,27.4929366 0.3094,27.1119366 C0.2764,26.1549366 0.2114,25.2129366 0.1124,24.2879366 C0.0594,23.8309366 0.0234,23.3849366 0.0064,22.9489366 C-0.0096,22.5149366 0.0044,22.0669366 0.0484,21.6099366 C0.0694,21.4579366 0.0774,21.3089366 0.0724,21.1609366 C0.0664,21.0149366 0.0634,20.8649366 0.0634,20.7129366 C0.0754,20.6029366 0.0914,20.4999366 0.1124,20.4019366 C0.1354,20.3049366 0.1564,20.2059366 0.1794,20.1079366 C0.1994,19.9769366 0.2514,19.8829366 0.3334,19.8219366 C0.4154,19.7629366 0.5164,19.7229366 0.6364,19.6999366 C0.7444,19.6789366 0.8344,19.6909366 0.9044,19.7409366 C0.9764,19.7899366 1.0384,19.8569366 1.0934,19.9439366 C1.1804,20.0649366 1.2504,20.1819366 1.3054,20.2959366 C1.3584,20.4099366 1.4304,20.5219366 1.5174,20.6309366 C1.5614,20.6739366 1.5824,20.7239366 1.5824,20.7769366 C1.5824,20.8319366 1.5824,20.8869366 1.5824,20.9409366 C1.6044,21.3109366 1.6264,21.6789366 1.6474,22.0429366 C1.6694,22.4079366 1.6914,22.7749366 1.7134,23.1449366 C1.7344,23.5259366 1.7594,23.9039366 1.7864,24.2799366 C1.8134,24.6549366 1.8544,25.0339366 1.9094,25.4139366 C1.9964,25.2629366 2.0774,25.1099366 2.1544,24.9569366 C2.2294,24.8059366 2.3124,24.6519366 2.3984,24.4999366 C2.6484,24.0099366 2.9354,23.5509366 3.2564,23.1209366 C3.5774,22.6899366 3.9174,22.2739366 4.2764,21.8719366 C4.5484,21.5569366 4.8344,21.2599366 5.1334,20.9809366 C5.4334,20.7039366 5.7564,20.4569366 6.1044,20.2389366 C6.6054,19.9119366 7.1554,19.7109366 7.7544,19.6349366 C8.1464,19.5809366 8.4784,19.7059366 8.7494,20.0109366 C8.9684,20.2709366 9.1084,20.5759366 9.1744,20.9249366 C9.2064,21.0879366 9.2394,21.2509366 9.2724,21.4139366 C9.3054,21.5769366 9.3324,21.7409366 9.3544,21.9039366 C9.3874,22.2199366 9.3754,22.5299366 9.3214,22.8349366 C9.2674,23.1399366 9.1854,23.4379366 9.0764,23.7329366 C8.8584,24.3529366 8.5574,24.9049366 8.1704,25.3899366 C7.7834,25.8749366 7.3354,26.3169366 6.8234,26.7209366 C6.6924,26.8289366 6.5624,26.9379366 6.4314,27.0469366 C6.3004,27.1559366 6.1594,27.2549366 6.0074,27.3409366 C5.9634,27.3619366 5.9224,27.3899366 5.8854,27.4229366 C5.8464,27.4559366 5.8214,27.5039366 5.8114,27.5699366 L5.8114,27.5699366 Z" id="Fill-296" fill="#272525"></path>
                <path d="M18.7264,23.2429366 C18.4654,23.8089366 18.2094,24.3559366 17.9584,24.8839366 C17.7084,25.4119366 17.4634,25.9369366 17.2244,26.4589366 C16.7234,27.5159366 16.2874,28.5709366 15.9184,29.6269366 C15.8964,29.6919366 15.8744,29.7549366 15.8524,29.8139366 C15.8304,29.8739366 15.8304,29.9479366 15.8524,30.0349366 C16.1034,30.0129366 16.3484,29.9919366 16.5874,29.9699366 C16.8254,29.9479366 17.0654,29.9359366 17.3064,29.9359366 C17.6214,29.9259366 17.9374,29.9239366 18.2524,29.9289366 C18.5674,29.9349366 18.8834,29.9359366 19.1994,29.9359366 C19.3954,29.9359366 19.5094,29.9179366 19.5424,29.8799366 C19.5744,29.8419366 19.5804,29.7299366 19.5594,29.5449366 C19.4604,28.7619366 19.3624,27.9799366 19.2654,27.2019366 C19.1664,26.4239366 19.0684,25.6429366 18.9714,24.8589366 C18.9374,24.6089366 18.9044,24.3509366 18.8724,24.0839366 C18.8404,23.8169366 18.7914,23.5369366 18.7264,23.2429366 Z M25.8284,40.8439366 C25.8284,40.9629366 25.7654,41.0689366 25.6404,41.1609366 C25.5154,41.2549366 25.3974,41.3269366 25.2894,41.3819366 C25.2014,41.4259366 25.1174,41.4689366 25.0364,41.5129366 C24.9544,41.5559366 24.8704,41.5719366 24.7834,41.5609366 C24.5324,41.5399366 24.2824,41.5349366 24.0314,41.5449366 C23.7814,41.5559366 23.5424,41.4959366 23.3134,41.3649366 C23.0734,41.2459366 22.8674,41.0909366 22.6934,40.8999366 C22.5194,40.7099366 22.3714,40.4899366 22.2524,40.2389366 C22.0564,39.8579366 21.8934,39.4719366 21.7634,39.0799366 C21.6324,38.6879366 21.5224,38.2859366 21.4364,37.8719366 C21.3384,37.3819366 21.2214,36.9029366 21.0854,36.4349366 C20.9484,35.9669366 20.8154,35.4939366 20.6854,35.0149366 C20.5434,34.5029366 20.4214,33.9879366 20.3174,33.4719366 C20.2144,32.9549366 20.1074,32.4349366 19.9994,31.9119366 C19.9994,31.8909366 19.9964,31.8719366 19.9914,31.8549366 C19.9844,31.8389366 19.9824,31.8199366 19.9824,31.7979366 C19.9614,31.6789366 19.9384,31.5859366 19.9174,31.5209366 C19.8964,31.4549366 19.8654,31.4059366 19.8274,31.3729366 C19.7894,31.3409366 19.7374,31.3219366 19.6734,31.3159366 C19.6074,31.3109366 19.5154,31.3089366 19.3954,31.3089366 C18.3714,31.3089366 17.3494,31.2589366 16.3254,31.1609366 C16.2714,31.1509366 16.2114,31.1469366 16.1464,31.1529366 C16.0804,31.1589366 15.9994,31.1609366 15.9014,31.1609366 C15.7604,31.1719366 15.6564,31.1759366 15.5914,31.1699366 C15.5254,31.1639366 15.4744,31.1719366 15.4364,31.1939366 C15.3974,31.2159366 15.3624,31.2659366 15.3304,31.3409366 C15.2974,31.4169366 15.2484,31.5429366 15.1834,31.7169366 C14.8234,32.5989366 14.4624,33.4769366 14.0974,34.3529366 C13.7324,35.2289366 13.3704,36.1079366 13.0124,36.9899366 C12.8814,37.3059366 12.7644,37.6239366 12.6604,37.9449366 C12.5574,38.2669366 12.4444,38.5899366 12.3254,38.9169366 C12.2714,39.0909366 12.1974,39.2489366 12.1044,39.3899366 C12.0134,39.5319366 11.8904,39.6619366 11.7374,39.7819366 C11.6724,39.8369366 11.6044,39.8829366 11.5334,39.9209366 C11.4624,39.9589366 11.3844,39.9509366 11.2974,39.8959366 C11.2094,39.8429366 11.1584,39.7729366 11.1424,39.6919366 C11.1254,39.6099366 11.1284,39.5259366 11.1504,39.4389366 C11.2704,38.9719366 11.3874,38.5059366 11.5014,38.0429366 C11.6154,37.5799366 11.7494,37.1209366 11.9004,36.6639366 C12.2824,35.4769366 12.7034,34.3099366 13.1664,33.1619366 C13.6294,32.0139366 14.0664,30.8459366 14.4804,29.6599366 C14.7094,28.9839366 14.9564,28.3279366 15.2244,27.6919366 C15.4904,27.0549366 15.7604,26.4099366 16.0324,25.7569366 C16.3044,25.1149366 16.5704,24.4779366 16.8324,23.8479366 C17.0934,23.2169366 17.3544,22.5849366 17.6154,21.9529366 L18.0404,20.8099366 C18.0834,20.7239366 18.1154,20.6419366 18.1384,20.5649366 C18.1594,20.4889366 18.2144,20.4249366 18.3014,20.3689366 C18.4534,20.2819366 18.5924,20.1889366 18.7184,20.0929366 C18.8424,19.9939366 18.9714,19.8959366 19.1014,19.7979366 C19.2104,19.7229366 19.3414,19.6559366 19.4924,19.6019366 C19.6884,19.5589366 19.8794,19.5449366 20.0634,19.5609366 C20.2494,19.5769366 20.3584,19.6839366 20.3914,19.8799366 C20.5544,20.3579366 20.7384,20.9349366 20.9464,21.6099366 C21.1314,22.1869366 21.3444,22.8999366 21.5824,23.7489366 C21.8224,24.5979366 22.1004,25.5949366 22.4154,26.7369366 C22.5674,27.5099366 22.7264,28.2739366 22.8894,29.0299366 C23.0524,29.7869366 23.2424,30.5409366 23.4604,31.2919366 C23.5914,31.7489366 23.7054,32.2119366 23.8034,32.6799366 C23.9004,33.1469366 24.0044,33.6159366 24.1134,34.0839366 C24.4294,35.2599366 24.7174,36.3259366 24.9794,37.2839366 C25.0874,37.6979366 25.1934,38.1029366 25.2974,38.5009366 C25.4004,38.8969366 25.4934,39.2599366 25.5744,39.5859366 C25.6564,39.9129366 25.7194,40.1899366 25.7624,40.4189366 C25.8064,40.6469366 25.8284,40.7889366 25.8284,40.8439366 L25.8284,40.8439366 Z" id="Fill-297" fill="#272525"></path>
                <path d="M33.4024,19.6999366 C34.2084,19.7659366 34.9484,19.9859366 35.6234,20.3609366 C36.2984,20.7359366 36.8584,21.3219366 37.3054,22.1159366 C37.6094,22.6609366 37.7454,23.2599366 37.7134,23.9119366 C37.7134,23.9769366 37.7084,24.0259366 37.6974,24.0599366 C37.6754,24.1459366 37.6424,24.2269366 37.5994,24.3049366 C37.5554,24.3809366 37.4844,24.4299366 37.3874,24.4509366 C37.2014,24.4949366 37.0434,24.4189366 36.9134,24.2229366 C36.7934,24.0159366 36.6654,23.8139366 36.5294,23.6189366 C36.3934,23.4229366 36.2544,23.2219366 36.1124,23.0149366 C35.9174,22.7309366 35.6834,22.5029366 35.4114,22.3289366 C35.1394,22.1549366 34.8394,22.0229366 34.5134,21.9359366 C34.3284,21.8829366 34.1514,21.8829366 33.9824,21.9359366 C33.8134,21.9909366 33.6434,22.0509366 33.4684,22.1159366 C33.0114,22.3019366 32.6384,22.5679366 32.3504,22.9169366 C32.0624,23.2649366 31.8034,23.6409366 31.5744,24.0429366 C31.3454,24.4459366 31.1634,24.8589366 31.0274,25.2839366 C30.8914,25.7089366 30.7794,26.1489366 30.6924,26.6059366 C30.6054,27.0629366 30.5354,27.5179366 30.4804,27.9699366 C30.4264,28.4219366 30.3714,28.8759366 30.3164,29.3329366 C30.2844,29.6159366 30.2604,29.8929366 30.2434,30.1659366 C30.2284,30.4369366 30.2084,30.7149366 30.1874,30.9979366 C30.1764,31.2809366 30.1644,31.5609366 30.1534,31.8389366 C30.1434,32.1169366 30.1384,32.3969366 30.1384,32.6799366 C30.1264,33.2569366 30.1434,33.8289366 30.1874,34.3929366 C30.2294,34.9609366 30.3014,35.5259366 30.3984,36.0929366 C30.4414,36.3529366 30.4854,36.6169366 30.5294,36.8849366 C30.5724,37.1499366 30.6384,37.4089366 30.7254,37.6589366 C30.8234,37.9649366 30.9454,38.2499366 31.0934,38.5179366 C31.2394,38.7829366 31.4434,39.0149366 31.7044,39.2109366 C31.7924,39.2649366 31.8764,39.3139366 31.9584,39.3569366 C32.0394,39.4009366 32.1244,39.4339366 32.2114,39.4559366 C32.3634,39.4989366 32.5074,39.5049366 32.6444,39.4719366 C32.7794,39.4389366 32.9134,39.3519366 33.0444,39.2109366 C33.3924,38.8409366 33.6754,38.4399366 33.8934,38.0109366 C34.1094,37.5799366 34.2784,37.1209366 34.3984,36.6309366 C34.5294,36.1079366 34.6274,35.5639366 34.6924,34.9979366 C34.7154,34.8559366 34.7504,34.7279366 34.7994,34.6139366 C34.8484,34.4999366 34.9164,34.3889366 35.0034,34.2789366 C35.1114,34.1599366 35.2394,34.1139366 35.3874,34.1409366 C35.5334,34.1689366 35.6404,34.2529366 35.7054,34.3929366 C35.7054,34.4159366 35.7074,34.4299366 35.7134,34.4349366 C35.7184,34.4399366 35.7224,34.4539366 35.7224,34.4759366 C35.7324,34.7369366 35.7704,34.9959366 35.8364,35.2519366 C35.9004,35.5069366 35.9114,35.7709366 35.8684,36.0429366 C35.8134,36.4249366 35.7404,36.8029366 35.6474,37.1779366 C35.5564,37.5529366 35.4334,37.9149366 35.2804,38.2639366 C35.1394,38.6019366 34.9704,38.9139366 34.7744,39.2019366 C34.5784,39.4909366 34.3664,39.7709366 34.1374,40.0439366 C34.0184,40.1849366 33.8964,40.3179366 33.7704,40.4429366 C33.6454,40.5679366 33.5214,40.6959366 33.4024,40.8269366 C33.1854,41.0559366 32.9404,41.2159366 32.6684,41.3089366 C32.3964,41.4009366 32.1134,41.4749366 31.8184,41.5289366 C31.2744,41.6159366 30.7664,41.5919366 30.2924,41.4559366 C29.8184,41.3189366 29.3544,41.1099366 28.8964,40.8269366 C28.2874,40.4569366 27.8304,39.9889366 27.5254,39.4229366 C27.2204,38.8569366 26.9914,38.2419366 26.8404,37.5779366 C26.7524,37.1649366 26.6714,36.7509366 26.5954,36.3369366 C26.5184,35.9239366 26.4704,35.5049366 26.4474,35.0799366 C26.3934,34.4269366 26.3634,33.7759366 26.3574,33.1289366 C26.3534,32.4809366 26.3714,31.8309366 26.4154,31.1779366 C26.4584,30.4599366 26.5184,29.7519366 26.5954,29.0559366 C26.6714,28.3589366 26.7794,27.6619366 26.9214,26.9659366 C27.0294,26.3669366 27.1464,25.7759366 27.2714,25.1939366 C27.3964,24.6119366 27.5904,24.0429366 27.8524,23.4879366 C28.1354,22.8999366 28.4664,22.3669366 28.8484,21.8879366 C29.2294,21.4089366 29.6864,20.9839366 30.2204,20.6139366 C30.6764,20.2989366 31.1664,20.0729366 31.6884,19.9359366 C32.2114,19.8009366 32.7824,19.7229366 33.4024,19.6999366" id="Fill-298" fill="#272525"></path>
                <path d="M42.2204,29.8219366 C42.2734,29.8659366 42.3224,29.9039366 42.3664,29.9359366 C42.4094,29.9699366 42.4534,29.9969366 42.4974,30.0179366 C43.3134,30.4859366 44.1264,30.9549366 44.9374,31.4229366 C45.7484,31.8909366 46.5624,32.3529366 47.3794,32.8099366 C47.9344,33.1149366 48.4884,33.4089366 49.0444,33.6919366 C49.5994,33.9759366 50.1544,34.2679366 50.7094,34.5739366 C50.9714,34.7269366 51.2244,34.8819366 51.4694,35.0389366 C51.7134,35.1969366 51.9614,35.3569366 52.2114,35.5199366 C52.3754,35.6299366 52.5324,35.7329366 52.6854,35.8309366 C52.8374,35.9289366 52.9894,36.0379366 53.1424,36.1569366 C53.3064,36.2879366 53.4604,36.4189366 53.6064,36.5499366 C53.7544,36.6799366 53.9034,36.8149366 54.0564,36.9569366 C54.1764,37.0659366 54.2954,37.1779366 54.4154,37.2919366 C54.5354,37.4059366 54.6544,37.5229366 54.7744,37.6429366 C54.8954,37.7629366 54.9224,37.8929366 54.8564,38.0349366 C54.8234,38.1219366 54.7804,38.1869366 54.7264,38.2299366 C54.6714,38.2739366 54.5954,38.2909366 54.4974,38.2799366 C54.2254,38.2579366 53.9524,38.2259366 53.6814,38.1829366 C53.4084,38.1389366 53.1474,38.0519366 52.8964,37.9209366 C52.5374,37.7359366 52.1754,37.5449366 51.8124,37.3499366 C51.4464,37.1529366 51.0904,36.9519366 50.7424,36.7449366 C50.2084,36.4299366 49.6814,36.1079366 49.1584,35.7819366 C48.6364,35.4549366 48.1074,35.1349366 47.5744,34.8179366 C47.0204,34.4919366 46.4644,34.1739366 45.9094,33.8639366 C45.3544,33.5539366 44.7994,33.2409366 44.2444,32.9249366 C43.7864,32.6749366 43.3354,32.4269366 42.8884,32.1819366 C42.4414,31.9359366 41.9914,31.6889366 41.5334,31.4389366 C41.4794,31.4169366 41.3874,31.3729366 41.2564,31.3089366 C41.2564,31.3949366 41.2534,31.4669366 41.2474,31.5209366 C41.2424,31.5749366 41.2454,31.6299366 41.2564,31.6839366 C41.2994,32.1419366 41.3404,32.6019366 41.3784,33.0629366 C41.4164,33.5259366 41.4634,33.9859366 41.5184,34.4429366 C41.5714,34.8999366 41.6234,35.3569366 41.6724,35.8139366 C41.7214,36.2709366 41.7724,36.7339366 41.8274,37.2019366 C41.8504,37.4199366 41.8654,37.6349366 41.8764,37.8479366 C41.8874,38.0599366 41.9034,38.2739366 41.9254,38.4919366 C41.9474,38.8179366 41.9664,39.1449366 41.9824,39.4719366 C41.9994,39.7989366 42.0074,40.1189366 42.0074,40.4349366 C42.0074,40.5769366 41.9914,40.7189366 41.9584,40.8599366 C41.9254,41.0009366 41.8824,41.1369366 41.8274,41.2679366 C41.7834,41.3979366 41.7074,41.4719366 41.5994,41.4879366 C41.4904,41.5039366 41.3764,41.5179366 41.2564,41.5289366 C41.0494,41.5509366 40.8864,41.4689366 40.7664,41.2839366 C40.5374,40.8929366 40.3634,40.4859366 40.2444,40.0669366 C40.1234,39.6479366 40.0254,39.2109366 39.9494,38.7539366 C39.8524,38.1549366 39.7514,37.5599366 39.6474,36.9659366 C39.5444,36.3729366 39.4434,35.7769366 39.3464,35.1779366 C39.2704,34.7319366 39.2044,34.2909366 39.1494,33.8549366 C39.0964,33.4199366 39.0414,32.9789366 38.9864,32.5319366 C38.9214,32.0319366 38.8614,31.5309366 38.8074,31.0299366 C38.7534,30.5299366 38.7034,30.0289366 38.6604,29.5289366 C38.6164,29.1479366 38.5844,28.7619366 38.5624,28.3699366 C38.5404,27.9769366 38.5184,27.5919366 38.4974,27.2109366 C38.4424,26.5579366 38.3984,25.9129366 38.3664,25.2749366 C38.3334,24.6389366 38.2954,23.9939366 38.2524,23.3409366 C38.2294,22.9279366 38.2194,22.5109366 38.2194,22.0919366 C38.2194,21.6729366 38.2414,21.2569366 38.2844,20.8429366 C38.3064,20.6369366 38.3474,20.4429366 38.4074,20.2639366 C38.4674,20.0839366 38.5404,19.9069366 38.6274,19.7319366 C38.7584,19.4609366 38.9484,19.4119366 39.1994,19.5859366 C39.3184,19.6509366 39.4194,19.7349366 39.5004,19.8389366 C39.5824,19.9419366 39.6564,20.0539366 39.7214,20.1729366 C39.8624,20.4569366 39.9794,20.7449366 40.0724,21.0389366 C40.1654,21.3329366 40.2494,21.6379366 40.3254,21.9529366 C40.4014,22.2359366 40.4704,22.5219366 40.5294,22.8099366 C40.5894,23.0989366 40.6414,23.3899366 40.6854,23.6839366 C40.7504,24.2269366 40.8074,24.7669366 40.8554,25.2999366 C40.9044,25.8339366 40.9514,26.3719366 40.9944,26.9159366 C41.0174,27.1999366 41.0294,27.4789366 41.0354,27.7569366 C41.0414,28.0349366 41.0544,28.3149366 41.0764,28.5989366 C41.0984,28.5879366 41.1204,28.5819366 41.1424,28.5819366 C41.1634,28.5819366 41.1854,28.5759366 41.2074,28.5649366 C41.6644,28.2499366 42.1354,27.9499366 42.6194,27.6679366 C43.1044,27.3849366 43.5914,27.1069366 44.0804,26.8349366 C44.5924,26.5519366 45.0934,26.2709366 45.5824,25.9939366 C46.0724,25.7169366 46.5734,25.4409366 47.0844,25.1699366 C47.3564,25.0179366 47.6344,24.8729366 47.9174,24.7359366 C48.2004,24.6009366 48.4824,24.4629366 48.7674,24.3199366 C48.8544,24.2769366 48.9484,24.2419366 49.0524,24.2149366 C49.1554,24.1869366 49.2564,24.1629366 49.3544,24.1409366 C49.4084,24.1189366 49.4654,24.1109366 49.5254,24.1159366 C49.5854,24.1219366 49.6434,24.1299366 49.6974,24.1409366 C49.8934,24.1949366 50.0104,24.2689366 50.0484,24.3609366 C50.0864,24.4539366 50.0624,24.5929366 49.9754,24.7779366 C49.8764,24.9739366 49.7544,25.1369366 49.6074,25.2679366 C49.4604,25.3979366 49.2944,25.5179366 49.1094,25.6269366 C48.0214,26.2909366 46.9354,26.9489366 45.8524,27.6019366 C44.7694,28.2559366 43.6834,28.9139366 42.5954,29.5779366 C42.5404,29.6099366 42.4854,29.6449366 42.4324,29.6839366 C42.3774,29.7229366 42.3074,29.7679366 42.2204,29.8219366" id="Fill-299" fill="#272525"></path>
                <path d="M64.2764,28.2389366 L64.0804,28.6799366 C63.9184,29.1039366 63.7544,29.5259366 63.5914,29.9449366 C63.4284,30.3639366 63.2644,30.7799366 63.1024,31.1939366 C62.8834,31.7819366 62.5514,32.3209366 62.1044,32.8099366 C61.9204,33.0179366 61.7084,33.1699366 61.4694,33.2679366 C61.2294,33.3649366 60.9794,33.4359366 60.7174,33.4789366 C60.6634,33.5019366 60.6034,33.5129366 60.5384,33.5129366 C60.4734,33.5129366 60.4124,33.5179366 60.3574,33.5289366 C59.9444,33.5839366 59.5834,33.5289366 59.2724,33.3649366 C58.9624,33.2019366 58.6774,32.9789366 58.4154,32.6959366 C58.1874,32.4449366 58.0024,32.1769366 57.8604,31.8889366 C57.7194,31.5999366 57.5994,31.2919366 57.5014,30.9659366 C57.4144,30.7049366 57.3544,30.4399366 57.3214,30.1739366 C57.2894,29.9069366 57.2574,29.6329366 57.2234,29.3499366 C57.1584,28.8049366 57.1454,28.2709366 57.1834,27.7489366 C57.2214,27.2269366 57.2574,26.6989366 57.2894,26.1659366 C57.3214,25.7729366 57.3644,25.3819366 57.4194,24.9899366 C57.4744,24.5979366 57.5384,24.2119366 57.6154,23.8309366 C57.6594,23.6129366 57.7194,23.4009366 57.7954,23.1929366 C57.8714,22.9869366 57.9584,22.7799366 58.0574,22.5739366 C58.1004,22.5079366 58.1274,22.4589366 58.1384,22.4269366 C58.1594,22.3399366 58.1924,22.2639366 58.2354,22.1979366 C58.2794,22.1329366 58.3504,22.1009366 58.4484,22.1009366 C58.5674,22.0899366 58.6774,22.0949366 58.7744,22.1159366 C58.8724,22.1389366 58.9654,22.1919366 59.0524,22.2789366 C59.1834,22.4209366 59.2864,22.5649366 59.3624,22.7119366 C59.4384,22.8589366 59.4664,23.0309366 59.4434,23.2269366 C59.4434,23.3139366 59.4494,23.3789366 59.4604,23.4229366 C59.5474,23.8909366 59.5964,24.3579366 59.6074,24.8259366 C59.6184,25.2949366 59.6294,25.7629366 59.6404,26.2299366 C59.6504,26.9599366 59.6784,27.6819366 59.7224,28.3939366 C59.7654,29.1069366 59.8634,29.8219366 60.0154,30.5409366 C60.0694,30.7689366 60.1354,30.9929366 60.2114,31.2109366 C60.2874,31.4289366 60.3914,31.6299366 60.5214,31.8139366 C60.5754,31.8799366 60.6334,31.9419366 60.6924,32.0029366 C60.7524,32.0619366 60.8154,32.1299366 60.8814,32.2059366 C61.0224,32.0869366 61.1524,31.9699366 61.2724,31.8549366 C61.3924,31.7409366 61.4894,31.6079366 61.5664,31.4549366 C61.7084,31.1719366 61.8444,30.8899366 61.9754,30.6059366 C62.1044,30.3229366 62.2254,30.0349366 62.3334,29.7409366 C62.5194,29.2629366 62.6904,28.7889366 62.8494,28.3199366 C63.0064,27.8519366 63.1724,27.3789366 63.3464,26.8999366 C63.7814,25.7569366 64.2874,24.6249366 64.8644,23.5039366 C64.9404,23.3519366 65.0004,23.1929366 65.0444,23.0309366 C65.0874,22.8669366 65.1254,22.7039366 65.1584,22.5409366 C65.2674,22.0839366 65.4034,21.6429366 65.5664,21.2179366 C65.7294,20.7939366 65.9144,20.3749366 66.1224,19.9609366 C66.1654,19.8739366 66.2174,19.8109366 66.2764,19.7729366 C66.3364,19.7349366 66.4104,19.7059366 66.4974,19.6839366 C66.6284,19.6509366 66.7554,19.6239366 66.8814,19.6019366 C67.0064,19.5809366 67.1404,19.5919366 67.2814,19.6349366 C67.4334,19.6889366 67.5534,19.7659366 67.6414,19.8629366 C67.7274,19.9609366 67.7984,20.0749366 67.8534,20.2059366 C67.9614,20.4449366 68.0214,20.6849366 68.0314,20.9249366 C68.0434,21.1639366 68.037516,21.4089366 68.0164,21.6589366 C67.9504,22.3889366 67.8854,23.1119366 67.8194,23.8309366 C67.7554,24.5499366 67.6944,25.2719366 67.6414,26.0019366 C67.5974,26.6009366 67.5394,27.1999366 67.4684,27.7989366 C67.3974,28.3959366 67.3184,28.9899366 67.2314,29.5779366 C67.1994,29.8169366 67.1644,30.0519366 67.1254,30.2799366 C67.0884,30.5089366 67.0464,30.7419366 67.0034,30.9809366 C66.9814,31.1559366 66.9594,31.3299366 66.9384,31.5049366 C66.9164,31.6789366 66.8954,31.8529366 66.8724,32.0269366 C66.7974,32.4949366 66.7234,32.9599366 66.6524,33.4229366 C66.5814,33.8859366 66.5024,34.3509366 66.4154,34.8179366 C66.3604,35.1119366 66.3014,35.4059366 66.2364,35.6999366 C66.1704,35.9939366 66.1054,36.2939366 66.0404,36.5989366 C65.8874,37.2519366 65.6584,37.8509366 65.3544,38.3939366 C65.0504,38.9379366 64.6464,39.4339366 64.1464,39.8799366 C63.4714,40.4679366 62.7204,40.9139366 61.8934,41.2189366 C61.6204,41.3169366 61.3494,41.3979366 61.0764,41.4639366 C60.8044,41.5289366 60.5214,41.5669366 60.2284,41.5779366 C59.7924,41.5999366 59.3734,41.5669366 58.9704,41.4799366 C58.5674,41.3929366 58.1814,41.2249366 57.8114,40.9749366 C57.7574,40.9399366 57.6964,40.9119366 57.6324,40.8839366 C57.5664,40.8569366 57.5064,40.8269366 57.4524,40.7939366 C57.2344,40.6639366 57.0334,40.5169366 56.8484,40.3529366 C56.6624,40.1899366 56.4994,39.9999366 56.3584,39.7819366 C56.1074,39.4339366 55.8964,39.0709366 55.7214,38.6959366 C55.5474,38.3209366 55.4434,37.9209366 55.4114,37.4959366 C55.3894,37.2679366 55.3764,37.0419366 55.3704,36.8179366 C55.3654,36.5959366 55.3894,36.3749366 55.4434,36.1569366 C55.4984,35.8859366 55.5934,35.6299366 55.7294,35.3909366 C55.8654,35.1499366 56.0744,34.9659366 56.3584,34.8349366 C56.4784,34.7799366 56.5924,34.7919366 56.7014,34.8669366 C56.9184,35.0309366 57.0334,35.2429366 57.0444,35.5049366 C57.0444,35.8519366 57.1014,36.1799366 57.2154,36.4829366 C57.3294,36.7889366 57.4634,37.0829366 57.6154,37.3659366 C57.7894,37.6919366 58.0184,37.9559366 58.3014,38.1569366 C58.5834,38.3589366 58.8894,38.4979366 59.2154,38.5739366 C59.5424,38.6499366 59.8794,38.6639366 60.2284,38.6139366 C60.5754,38.5649366 60.8974,38.4479366 61.1904,38.2639366 C61.8874,37.8279366 62.3934,37.2349366 62.7094,36.4829366 C62.7964,36.3099366 62.8614,36.1279366 62.9054,35.9359366 C62.9484,35.7469366 62.9924,35.5589366 63.0354,35.3739366 C63.1344,34.9609366 63.2244,34.5469366 63.3054,34.1329366 C63.3874,33.7199366 63.4714,33.3059366 63.5594,32.8919366 C63.6564,32.3479366 63.7484,31.8099366 63.8364,31.2759366 C63.9234,30.7419366 64.0164,30.1979366 64.1134,29.6429366 L64.3094,28.5169366 C64.3204,28.4619366 64.3284,28.4129366 64.3334,28.3699366 C64.3394,28.3259366 64.3484,28.2819366 64.3584,28.2389366 L64.2764,28.2389366" id="Fill-300" fill="#272525"></path>
                <path d="M76.1134,23.2429366 C75.8534,23.8089366 75.5974,24.3559366 75.3474,24.8839366 C75.0964,25.4119366 74.8514,25.9369366 74.6114,26.4589366 C74.1104,27.5159366 73.6754,28.5709366 73.3064,29.6269366 C73.2844,29.6919366 73.2624,29.7549366 73.2404,29.8139366 C73.2184,29.8739366 73.2184,29.9479366 73.2404,30.0349366 C73.4904,30.0129366 73.7354,29.9919366 73.9754,29.9699366 C74.2144,29.9479366 74.4534,29.9359366 74.6934,29.9359366 C75.0094,29.9259366 75.3244,29.9239366 75.6404,29.9289366 C75.9554,29.9349366 76.2714,29.9359366 76.5874,29.9359366 C76.7834,29.9359366 76.8974,29.9179366 76.9304,29.8799366 C76.9634,29.8419366 76.9684,29.7299366 76.9464,29.5449366 C76.8494,28.7619366 76.7514,27.9799366 76.6524,27.2019366 C76.5554,26.4239366 76.4564,25.6429366 76.3584,24.8589366 C76.3264,24.6089366 76.2934,24.3509366 76.2614,24.0839366 C76.2284,23.8169366 76.1794,23.5369366 76.1134,23.2429366 Z M83.2164,40.8439366 C83.2164,40.9629366 83.1534,41.0689366 83.0284,41.1609366 C82.9034,41.2549366 82.7854,41.3269366 82.6774,41.3819366 C82.5904,41.4259366 82.5064,41.4689366 82.4244,41.5129366 C82.3434,41.5559366 82.2584,41.5719366 82.1714,41.5609366 C81.9214,41.5399366 81.6704,41.5349366 81.4204,41.5449366 C81.1694,41.5559366 80.9304,41.4959366 80.7024,41.3649366 C80.4624,41.2459366 80.2554,41.0909366 80.0814,40.8999366 C79.9064,40.7099366 79.7604,40.4899366 79.6414,40.2389366 C79.4444,39.8579366 79.2814,39.4719366 79.1504,39.0799366 C79.0204,38.6879366 78.9114,38.2859366 78.8244,37.8719366 C78.7274,37.3819366 78.6084,36.9029366 78.4734,36.4349366 C78.3374,35.9669366 78.2034,35.4939366 78.0724,35.0149366 C77.9314,34.5029366 77.8094,33.9879366 77.7054,33.4719366 C77.6034,32.9549366 77.4964,32.4349366 77.3874,31.9119366 C77.3874,31.8909366 77.3844,31.8719366 77.3794,31.8549366 C77.3734,31.8389366 77.3714,31.8199366 77.3714,31.7979366 C77.3494,31.6789366 77.3274,31.5859366 77.3064,31.5209366 C77.2834,31.4549366 77.2544,31.4059366 77.2164,31.3729366 C77.1774,31.3409366 77.1264,31.3219366 77.0614,31.3159366 C76.9954,31.3109366 76.9024,31.3089366 76.7834,31.3089366 C75.7604,31.3089366 74.7364,31.2589366 73.7144,31.1609366 C73.6594,31.1509366 73.6004,31.1469366 73.5344,31.1529366 C73.4694,31.1589366 73.3874,31.1609366 73.2894,31.1609366 C73.1474,31.1719366 73.0444,31.1759366 72.9794,31.1699366 C72.9144,31.1639366 72.8624,31.1719366 72.8234,31.1939366 C72.7854,31.2159366 72.7504,31.2659366 72.7184,31.3409366 C72.6864,31.4169366 72.6364,31.5429366 72.5704,31.7169366 C72.2124,32.5989366 71.8504,33.4769366 71.4844,34.3529366 C71.1204,35.2289366 70.7584,36.1079366 70.3994,36.9899366 C70.2694,37.3059366 70.1514,37.6239366 70.0484,37.9449366 C69.9444,38.2669366 69.8334,38.5899366 69.7134,38.9169366 C69.6594,39.0909366 69.5854,39.2489366 69.4934,39.3899366 C69.4004,39.5319366 69.2784,39.6619366 69.1254,39.7819366 C69.0614,39.8369366 68.9924,39.8829366 68.9224,39.9209366 C68.8514,39.9589366 68.7724,39.9509366 68.6864,39.8959366 C68.5984,39.8429366 68.5464,39.7729366 68.5294,39.6919366 C68.5144,39.6099366 68.5174,39.5259366 68.5384,39.4389366 C68.6584,38.9719366 68.7744,38.5059366 68.8894,38.0429366 C69.0034,37.5799366 69.1374,37.1209366 69.2894,36.6639366 C69.6704,35.4769366 70.0914,34.3099366 70.5554,33.1619366 C71.0174,32.0139366 71.4554,30.8459366 71.8694,29.6599366 C72.0984,28.9839366 72.3454,28.3279366 72.6114,27.6919366 C72.8784,27.0549366 73.1474,26.4099366 73.4204,25.7569366 C73.6914,25.1149366 73.9594,24.4779366 74.2204,23.8479366 C74.4804,23.2169366 74.7424,22.5849366 75.0044,21.9529366 L75.4284,20.8099366 C75.4714,20.7239366 75.5044,20.6419366 75.5254,20.5649366 C75.5484,20.4889366 75.6034,20.4249366 75.6894,20.3689366 C75.8414,20.2819366 75.9794,20.1889366 76.1054,20.0929366 C76.2304,19.9939366 76.3584,19.8959366 76.4894,19.7979366 C76.5984,19.7229366 76.7294,19.6559366 76.8814,19.6019366 C77.0774,19.5589366 77.2684,19.5449366 77.4524,19.5609366 C77.6384,19.5769366 77.7464,19.6839366 77.7794,19.8799366 C77.9424,20.3579366 78.1274,20.9349366 78.3344,21.6099366 C78.5194,22.1869366 78.7314,22.8999366 78.9714,23.7489366 C79.2104,24.5979366 79.4874,25.5949366 79.8044,26.7369366 C79.9564,27.5099366 80.1134,28.2739366 80.2774,29.0299366 C80.4404,29.7869366 80.6314,30.5409366 80.8494,31.2919366 C80.9794,31.7489366 81.0944,32.2119366 81.1914,32.6799366 C81.2894,33.1469366 81.3934,33.6159366 81.5014,34.0839366 C81.8174,35.2599366 82.1054,36.3259366 82.3674,37.2839366 C82.4764,37.6979366 82.5824,38.1029366 82.6864,38.5009366 C82.7884,38.8969366 82.8814,39.2599366 82.9634,39.5859366 C83.0454,39.9129366 83.1074,40.1899366 83.1504,40.4189366 C83.1944,40.6469366 83.2164,40.7889366 83.2164,40.8439366 L83.2164,40.8439366 Z" id="Fill-301" fill="#272525"></path>
                <path d="M86.1874,25.7249366 C86.1984,25.7459366 86.2154,25.7679366 86.2364,25.7899366 C86.3464,25.7359366 86.4514,25.6759366 86.5554,25.6099366 C86.6584,25.5449366 86.7654,25.4849366 86.8734,25.4309366 C87.4064,25.1149366 87.9374,24.7999366 88.4654,24.4829366 C88.9934,24.1679366 89.5024,23.8199366 89.9914,23.4379366 C90.2204,23.2539366 90.4484,23.0709366 90.6774,22.8929366 C90.9054,22.7119366 91.1124,22.5079366 91.2974,22.2789366 C91.4724,22.0619366 91.6104,21.8329366 91.7144,21.5939366 C91.8174,21.3549366 91.8634,21.0939366 91.8534,20.8099366 C91.8424,20.6899366 91.8174,20.6109366 91.7794,20.5739366 C91.7414,20.5349366 91.6624,20.5389366 91.5424,20.5819366 C91.1734,20.7009366 90.8464,20.8379366 90.5624,20.9889366 C90.0734,21.2399366 89.6294,21.5449366 89.2324,21.9039366 C88.8354,22.2639366 88.4684,22.6549366 88.1304,23.0789366 C87.8144,23.4819366 87.5074,23.8849366 87.2074,24.2879366 C86.9084,24.6909366 86.6114,25.0989366 86.3184,25.5129366 C86.2854,25.5449366 86.2614,25.5799366 86.2444,25.6179366 C86.2294,25.6569366 86.2094,25.6919366 86.1874,25.7249366 Z M85.8454,41.3979366 C85.7254,41.3009366 85.6354,41.1879366 85.5754,41.0629366 C85.5154,40.9389366 85.4634,40.8099366 85.4204,40.6799366 C85.3984,40.5929366 85.3764,40.5059366 85.3544,40.4189366 C85.3334,40.3319366 85.3114,40.2449366 85.2894,40.1579366 C85.1804,39.8629366 85.1074,39.5669366 85.0694,39.2679366 C85.0304,38.9689366 84.9904,38.6609366 84.9464,38.3449366 C84.8924,37.8229366 84.8354,37.3039366 84.7754,36.7859366 C84.7154,36.2689366 84.6584,35.7489366 84.6044,35.2269366 C84.5494,34.7369366 84.4974,34.2589366 84.4494,33.7899366 C84.3994,33.3219366 84.3484,32.8429366 84.2934,32.3529366 C84.1854,31.5049366 84.1084,30.6609366 84.0644,29.8219366 C84.0214,28.9839366 83.9784,28.1419366 83.9344,27.2919366 C83.8584,27.1499366 83.8364,27.0119366 83.8694,26.8759366 C83.9014,26.7389366 83.9124,26.5959366 83.9014,26.4429366 C83.8914,26.1599366 83.8774,25.8799366 83.8614,25.6019366 C83.8454,25.3249366 83.8304,25.0439366 83.8194,24.7619366 C83.7984,24.4679366 83.7874,24.1709366 83.7874,23.8719366 C83.7874,23.5719366 83.7824,23.2749366 83.7714,22.9809366 C83.7714,22.9489366 83.7764,22.9139366 83.7874,22.8759366 C83.7984,22.8379366 83.7984,22.8029366 83.7874,22.7689366 C83.7224,22.5189366 83.7494,22.3019366 83.8694,22.1159366 C83.9884,21.9319366 84.1254,21.7519366 84.2774,21.5769366 C84.3104,21.5339366 84.3584,21.5129366 84.4244,21.5129366 C84.5554,21.5019366 84.6834,21.4929366 84.8084,21.4879366 C84.9334,21.4819366 85.0564,21.4899366 85.1754,21.5129366 C85.3494,21.5339366 85.5024,21.6039366 85.6334,21.7249366 C85.7634,21.8449366 85.8454,21.9969366 85.8774,22.1819366 C85.9094,22.4209366 85.9394,22.6579366 85.9674,22.8929366 C85.9944,23.1259366 86.0234,23.3629366 86.0574,23.6019366 C86.0574,23.6349366 86.0594,23.6699366 86.0654,23.7089366 C86.0704,23.7459366 86.0784,23.7929366 86.0904,23.8479366 C86.3394,23.5319366 86.5824,23.2269366 86.8154,22.9329366 C87.0504,22.6389366 87.2924,22.3509366 87.5424,22.0669366 C87.8914,21.6759366 88.2644,21.3109366 88.6614,20.9739366 C89.0594,20.6369366 89.4904,20.3429366 89.9594,20.0929366 C90.6124,19.7429366 91.2874,19.5749366 91.9834,19.5859366 C92.2334,19.5969366 92.4484,19.6539366 92.6284,19.7579366 C92.8084,19.8609366 92.9464,20.0379366 93.0454,20.2879366 C93.0994,20.4179366 93.1374,20.5469366 93.1584,20.6719366 C93.1814,20.7969366 93.1814,20.9309366 93.1584,21.0709366 C93.1264,21.5839366 93.0074,22.0509366 92.8004,22.4759366 C92.5934,22.8999366 92.3204,23.2979366 91.9834,23.6669366 C91.4174,24.2879366 90.8034,24.8429366 90.1394,25.3329366 C89.4754,25.8229366 88.7724,26.2639366 88.0324,26.6549366 C87.9454,26.7099366 87.8574,26.7619366 87.7714,26.8099366 C87.6844,26.8589366 87.5864,26.9109366 87.4784,26.9659366 C87.5104,27.0099366 87.5404,27.0499366 87.5664,27.0879366 C87.5944,27.1259366 87.6294,27.1609366 87.6734,27.1939366 C88.4024,27.9129366 89.0944,28.6959366 89.7464,29.5449366 C90.0514,29.9479366 90.3344,30.3609366 90.5964,30.7859366 C90.8574,31.2109366 91.1024,31.6449366 91.3304,32.0929366 C91.6134,32.6259366 91.8424,33.1719366 92.0164,33.7329366 C92.1904,34.2939366 92.3484,34.8619366 92.4904,35.4379366 C92.5984,35.8749366 92.6994,36.3069366 92.7914,36.7359366 C92.8844,37.1669366 92.9744,37.5999366 93.0624,38.0349366 C93.1374,38.4159366 93.1864,38.7999366 93.2084,39.1849366 C93.2294,39.5719366 93.2084,39.9619366 93.1434,40.3529366 C93.1214,40.4739366 93.1024,40.5899366 93.0864,40.7039366 C93.0694,40.8179366 93.0504,40.9349366 93.0284,41.0559366 C92.9744,41.1759366 92.9144,41.2729366 92.8494,41.3499366 C92.7834,41.4259366 92.7044,41.4849366 92.6124,41.5289366 C92.5194,41.5719366 92.4024,41.5779366 92.2614,41.5449366 C91.9354,41.2189366 91.7174,40.8529366 91.6074,40.4509366 C91.5214,40.0919366 91.4374,39.7299366 91.3544,39.3659366 C91.2724,39.0009366 91.2004,38.6399366 91.1354,38.2799366 C90.9814,37.4529366 90.8084,36.6339366 90.6124,35.8229366 C90.4164,35.0129366 90.1654,34.2149366 89.8604,33.4309366 C89.5564,32.6259366 89.1944,31.8549366 88.7754,31.1199366 C88.3564,30.3859366 87.8474,29.7029366 87.2494,29.0719366 C87.1074,28.9199366 86.9694,28.7649366 86.8324,28.6059366 C86.6964,28.4479366 86.5474,28.2769366 86.3834,28.0919366 C86.3834,28.1569366 86.3814,28.2089366 86.3754,28.2469366 C86.3694,28.2849366 86.3674,28.3149366 86.3674,28.3369366 C86.3894,28.5879366 86.4104,28.8409366 86.4334,29.0969366 C86.4544,29.3519366 86.4814,29.6049366 86.5144,29.8549366 C86.5684,30.3449366 86.6314,30.8239366 86.7014,31.2919366 C86.7724,31.7599366 86.8404,32.2389366 86.9064,32.7279366 C86.9934,33.2949366 87.0804,33.8579366 87.1674,34.4189366 C87.2544,34.9789366 87.3304,35.5419366 87.3964,36.1079366 C87.4504,36.5119366 87.4904,36.9109366 87.5184,37.3089366 C87.5454,37.7059366 87.5594,38.1049366 87.5594,38.5089366 C87.5694,38.7919366 87.5534,39.0629366 87.5104,39.3249366 C87.4664,39.5859366 87.4234,39.8519366 87.3794,40.1249366 C87.3574,40.2769366 87.3334,40.4329366 87.3064,40.5899366 C87.2784,40.7479366 87.2374,40.9029366 87.1844,41.0559366 C87.1294,41.1969366 87.0154,41.3249366 86.8404,41.4389366 C86.6664,41.5539366 86.5034,41.5999366 86.3514,41.5779366 C86.2854,41.5559366 86.2254,41.5369366 86.1714,41.5199366 C86.1164,41.5039366 86.0624,41.4849366 86.0084,41.4639366 C85.9534,41.4409366 85.8984,41.4209366 85.8454,41.3979366 L85.8454,41.3979366 Z" id="Fill-302" fill="#272525"></path>
                <path d="M97.9424,37.2679366 C98.0514,37.1479366 98.1334,37.0279366 98.1874,36.9089366 C98.2414,36.7889366 98.2944,36.6779366 98.3434,36.5739366 C98.3924,36.4709366 98.4434,36.3639366 98.4984,36.2549366 C98.8564,35.6349366 99.1994,35.0069366 99.5264,34.3699366 C99.8544,33.7329366 100.1744,33.0879366 100.4894,32.4349366 C100.6754,32.0649366 100.8524,31.6969366 101.0214,31.3329366 C101.1894,30.9689366 101.3664,30.5959366 101.5514,30.2149366 C101.7694,29.7789366 101.9804,29.3469366 102.1874,28.9159366 C102.3954,28.4859366 102.5904,28.0429366 102.7754,27.5859366 C102.9724,27.1289366 103.1564,26.6769366 103.3304,26.2299366 C103.5054,25.7839366 103.6514,25.3159366 103.7714,24.8259366 C103.8374,24.5769366 103.9024,24.3289366 103.9674,24.0839366 C104.0334,23.8389366 104.0764,23.5859366 104.0984,23.3239366 C104.1204,23.0849366 104.1144,22.8489366 104.0814,22.6139366 C104.0494,22.3809366 103.9734,22.1549366 103.8534,21.9359366 C103.7664,21.7519366 103.6684,21.6299366 103.5604,21.5689366 C103.4504,21.5099366 103.2924,21.4899366 103.0864,21.5129366 C103.0314,21.5229366 102.9814,21.5309366 102.9384,21.5369366 C102.8954,21.5419366 102.8474,21.5569366 102.7924,21.5769366 C102.4004,21.6859366 102.0414,21.8479366 101.7154,22.0599366 C101.3884,22.2709366 101.0724,22.5029366 100.7684,22.7529366 C100.1364,23.2869366 99.5754,23.8689366 99.0854,24.4999366 C98.5964,25.1319366 98.1444,25.8009366 97.7304,26.5089366 C97.5784,26.7809366 97.4614,27.0609366 97.3804,27.3499366 C97.2984,27.6379366 97.2734,27.9449366 97.3064,28.2709366 C97.3384,28.6309366 97.3604,28.9899366 97.3714,29.3499366 C97.3824,29.7079366 97.3984,30.0669366 97.4204,30.4269366 C97.4644,31.2109366 97.5074,31.9879366 97.5514,32.7619366 C97.5944,33.5339366 97.6484,34.3119366 97.7144,35.0959366 C97.7474,35.4119366 97.7744,35.7329366 97.7964,36.0599366 C97.8174,36.3859366 97.8394,36.7129366 97.8614,37.0389366 C97.8614,37.0709366 97.8634,37.1099366 97.8694,37.1529366 C97.8744,37.1969366 97.8984,37.2349366 97.9424,37.2679366 Z M97.2084,23.7979366 C97.3384,23.6019366 97.4614,23.4199366 97.5754,23.2519366 C97.6894,23.0829366 97.8074,22.9169366 97.9264,22.7529366 C98.2744,22.2419366 98.6724,21.7959366 99.1184,21.4139366 C99.5644,21.0329366 100.0494,20.6849366 100.5714,20.3689366 C101.0614,20.0539366 101.6164,19.8199366 102.2364,19.6679366 C102.9004,19.5149366 103.4644,19.5689366 103.9274,19.8299366 C104.3894,20.0929366 104.7784,20.4829366 105.0944,21.0059366 C105.2904,21.3549366 105.4264,21.7139366 105.5024,22.0839366 C105.5784,22.4539366 105.6274,22.8299366 105.6484,23.2099366 C105.6714,23.7549366 105.6274,24.2849366 105.5184,24.8019366 C105.4094,25.3189366 105.2794,25.8389366 105.1264,26.3609366 C104.8544,27.2549366 104.5474,28.1309366 104.2044,28.9899366 C103.8614,29.8499366 103.4994,30.7049366 103.1184,31.5539366 C102.8134,32.2389366 102.5084,32.9169366 102.2044,33.5859366 C101.8994,34.2549366 101.5784,34.9169366 101.2414,35.5689366 C100.9464,36.1469366 100.6504,36.7129366 100.3514,37.2679366 C100.0514,37.8229366 99.7444,38.3839366 99.4294,38.9489366 C99.3304,39.1349366 99.2384,39.3219366 99.1514,39.5129366 C99.0634,39.7029366 98.9774,39.8959366 98.8904,40.0919366 C98.7704,40.3639366 98.6124,40.5989366 98.4164,40.7939366 C98.2214,40.9899366 97.9974,41.1639366 97.7474,41.3169366 C97.5514,41.4359366 97.3534,41.5019366 97.1514,41.5129366 C96.9494,41.5229366 96.7454,41.5449366 96.5384,41.5779366 C96.4624,41.5779366 96.4074,41.5609366 96.3754,41.5289366 C96.2564,41.4089366 96.1394,41.2919366 96.0244,41.1779366 C95.9104,41.0629366 95.8204,40.9199366 95.7554,40.7449366 C95.5704,40.2559366 95.4394,39.7569366 95.3624,39.2519366 C95.2874,38.7459366 95.2224,38.2299366 95.1674,37.7089366 C95.1124,37.1429366 95.0504,36.5819366 94.9794,36.0259366 C94.9084,35.4719366 94.8414,34.9109366 94.7754,34.3459366 C94.6994,33.7679366 94.6344,33.1939366 94.5794,32.6229366 C94.5244,32.0509366 94.4924,31.4719366 94.4814,30.8839366 C94.4594,30.2639366 94.4304,29.6539366 94.3924,29.0559366 C94.3544,28.4569366 94.3344,27.8469366 94.3344,27.2269366 C94.3344,26.7269366 94.3404,26.2259366 94.3514,25.7249366 C94.3614,25.2249366 94.3954,24.7239366 94.4484,24.2229366 C94.4714,24.0049366 94.4844,23.7809366 94.4894,23.5529366 C94.4954,23.3239366 94.5094,23.0959366 94.5304,22.8669366 C94.5534,22.5849366 94.6284,22.3399366 94.7594,22.1329366 C94.8904,21.9269366 95.0634,21.7459366 95.2814,21.5939366 C95.5544,21.3979366 95.8224,21.3489366 96.0904,21.4469366 C96.3564,21.5449366 96.5614,21.7349366 96.7024,22.0179366 C96.7894,22.2149366 96.8684,22.4209366 96.9384,22.6389366 C97.0104,22.8559366 97.0624,23.0739366 97.0944,23.2919366 C97.1154,23.4009366 97.1534,23.5689366 97.2084,23.7979366 L97.2084,23.7979366 Z" id="Fill-303" fill="#272525"></path>
                <path d="M44.8564,2.93993657 C44.6404,2.92693657 44.4284,2.91893657 44.2224,2.91593657 C44.0154,2.91193657 43.8074,2.90393657 43.5964,2.89093657 C43.2414,2.87793657 42.8854,2.86793657 42.5274,2.86093657 C42.1694,2.85393657 41.8104,2.84493657 41.4484,2.83193657 C41.4154,2.83193657 41.3874,2.82793657 41.3594,2.82193657 C41.3344,2.81493657 41.3044,2.81793657 41.2714,2.83193657 C41.1204,2.86393657 40.9794,2.85893657 40.8484,2.81593657 C40.7164,2.77393657 40.5854,2.71393657 40.4534,2.63493657 C40.3154,2.54993657 40.2244,2.42193657 40.1784,2.25093657 C40.1514,2.15793657 40.1484,2.08293657 40.1684,2.02393657 C40.1874,1.96493657 40.2434,1.91893657 40.3354,1.88593657 C40.4474,1.83993657 40.5594,1.80293657 40.6704,1.77293657 C40.7824,1.74293657 40.8944,1.72193657 41.0054,1.70893657 C41.3404,1.68293657 41.6774,1.66093657 42.0154,1.64393657 C42.3534,1.62793657 42.6924,1.61293657 43.0344,1.60093657 C43.3764,1.58693657 43.7174,1.57393657 44.0594,1.56093657 C44.4004,1.54793657 44.7414,1.53393657 45.0834,1.52093657 C45.2544,1.51593657 45.4234,1.51393657 45.5914,1.51693657 C45.7584,1.51893657 45.9274,1.51593657 46.0984,1.50193657 C46.6304,1.46893657 47.1574,1.46193657 47.6794,1.48193657 C48.2014,1.50193657 48.7284,1.52793657 49.2604,1.56093657 C49.4564,1.57393657 49.6704,1.57793657 49.9004,1.57093657 C50.1304,1.56393657 50.3404,1.59393657 50.5304,1.65893657 C50.5834,1.67293657 50.6214,1.69393657 50.6444,1.72393657 C50.6674,1.75293657 50.7114,1.77093657 50.7774,1.77693657 C50.7714,1.80993657 50.7674,1.83593657 50.7674,1.85193657 C50.7674,1.86793657 50.7644,1.88293657 50.7574,1.89593657 L50.3734,2.54593657 C50.2944,2.68993657 50.1794,2.77193657 50.0284,2.79193657 C49.7984,2.81793657 49.5714,2.84693657 49.3494,2.87593657 C49.1254,2.90493657 48.9014,2.92693657 48.6794,2.93993657 C48.3244,2.95293657 47.9764,2.96093657 47.6354,2.96493657 C47.2934,2.96793657 46.9454,2.97293657 46.5904,2.97893657 C46.5714,2.97893657 46.5514,2.98093657 46.5314,2.98393657 C46.5124,2.98793657 46.4884,2.99293657 46.4624,2.99893657 C46.4624,3.03193657 46.4614,3.06093657 46.4574,3.08793657 C46.4544,3.11393657 46.4564,3.13993657 46.4624,3.16693657 C46.5344,3.55993657 46.5804,3.95593657 46.6014,4.35293657 C46.6204,4.75093657 46.6364,5.15293657 46.6494,5.55993657 C46.6624,5.91493657 46.6774,6.26493657 46.6934,6.60893657 C46.7104,6.95393657 46.7254,7.30393657 46.7384,7.65793657 C46.7584,8.16393657 46.7794,8.66593657 46.8024,9.16593657 C46.8254,9.66493657 46.8444,10.1699366 46.8564,10.6829366 C46.8694,11.0299366 46.8814,11.3749366 46.8914,11.7169366 C46.9004,12.0579366 46.9054,12.4059366 46.9054,12.7609366 C46.9054,12.9049366 46.9004,13.0489366 46.8914,13.1889366 C46.8814,13.3309366 46.8724,13.4769366 46.8664,13.6279366 C46.8594,13.6799366 46.8544,13.7349366 46.8524,13.7949366 C46.8484,13.8539366 46.8474,13.9129366 46.8474,13.9729366 C46.8474,14.0589366 46.8404,14.1389366 46.8274,14.2139366 C46.8134,14.2889366 46.7844,14.3629366 46.7384,14.4349366 C46.6794,14.5339366 46.6114,14.6019366 46.5364,14.6429366 C46.4614,14.6819366 46.3634,14.6909366 46.2454,14.6719366 C46.0354,14.6399366 45.8624,14.5599366 45.7294,14.4349366 C45.5944,14.3099366 45.4804,14.1599366 45.3894,13.9819366 C45.2974,13.8109366 45.2294,13.6379366 45.1874,13.4599366 C45.1444,13.2829366 45.1064,13.1019366 45.0734,12.9179366 C45.0214,12.5899366 44.9864,12.2659366 44.9704,11.9429366 C44.9534,11.6209366 44.9484,11.2969366 44.9554,10.9679366 C44.9554,10.8559366 44.9524,10.7499366 44.9454,10.6469366 C44.9384,10.5459366 44.9334,10.4389366 44.9264,10.3269366 L44.8664,8.96893657 C44.8344,8.35793657 44.8044,7.75193657 44.7784,7.15093657 C44.7514,6.55093657 44.7294,5.94393657 44.7094,5.33393657 C44.6884,4.57793657 44.7384,3.82993657 44.8564,3.08793657 C44.8634,3.06793657 44.8654,3.04693657 44.8614,3.02293657 C44.8584,3.00093657 44.8564,2.97293657 44.8564,2.93993657" id="Fill-304" fill="#272525"></path>
                <path d="M53.0434,11.4999366 C53.0564,11.3679366 53.0724,11.2369366 53.0924,11.1059366 C53.1114,10.9749366 53.1284,10.8439366 53.1424,10.7119366 C53.1744,10.4559366 53.2014,10.1999366 53.2254,9.94293657 C53.2474,9.68693657 53.2784,9.43193657 53.3184,9.17493657 C53.3644,8.90593657 53.4124,8.63893657 53.4614,8.37293657 C53.5114,8.10593657 53.5674,7.83893657 53.6344,7.56893657 C53.7064,7.27993657 53.7934,6.99793657 53.8954,6.72293657 C53.9964,6.44693657 54.1234,6.18193657 54.2734,5.92493657 C54.3724,5.76093657 54.4734,5.60193657 54.5744,5.44693657 C54.6764,5.29293657 54.8034,5.15293657 54.9534,5.02793657 C55.0064,4.98193657 55.0614,4.93793657 55.1164,4.89493657 C55.1724,4.85193657 55.2294,4.81393657 55.2894,4.78193657 C55.3604,4.73593657 55.4374,4.71193657 55.5164,4.70793657 C55.5944,4.70493657 55.6764,4.71293657 55.7614,4.73293657 C55.9064,4.76593657 56.0424,4.81593657 56.1704,4.88593657 C56.2994,4.95393657 56.4214,5.03193657 56.5404,5.11693657 C56.5924,5.14293657 56.6214,5.16593657 56.6284,5.18593657 C56.7004,5.30993657 56.7714,5.43293657 56.8404,5.54993657 C56.9094,5.66793657 56.9634,5.79293657 57.0034,5.92493657 C57.0554,6.09593657 57.0964,6.26693657 57.1254,6.43593657 C57.1554,6.60693657 57.1864,6.78093657 57.2194,6.95893657 C57.2394,7.05793657 57.2504,7.15893657 57.2544,7.26493657 C57.2574,7.36893657 57.2714,7.47193657 57.2984,7.56893657 C57.3514,7.78693657 57.3654,8.00493657 57.3424,8.22493657 C57.3194,8.44493657 57.3244,8.66293657 57.3574,8.87993657 C57.3704,8.91893657 57.3724,8.95993657 57.3624,9.00293657 C57.3524,9.04593657 57.3484,9.08993657 57.3484,9.13593657 C57.3544,9.28693657 57.3584,9.44093657 57.3624,9.59893657 C57.3654,9.75593657 57.3734,9.91093657 57.3874,10.0609366 C57.4064,10.3109366 57.4294,10.5639366 57.4554,10.8199366 C57.4814,11.0759366 57.5084,11.3289366 57.5344,11.5789366 C57.5544,11.8289366 57.5714,12.0799366 57.5894,12.3319366 C57.6054,12.5849366 57.6304,12.8369366 57.6624,13.0859366 C57.6764,13.1779366 57.6994,13.2669366 57.7314,13.3519366 C57.7644,13.4369366 57.7944,13.5259366 57.8204,13.6169366 C57.8404,13.6899366 57.8504,13.7689366 57.8504,13.8539366 C57.8504,13.9339366 57.8424,14.0099366 57.8254,14.0859366 C57.8094,14.1609366 57.7844,14.2349366 57.7514,14.3079366 C57.6924,14.4719366 57.5804,14.5339366 57.4164,14.4939366 C56.9174,14.3629366 56.5594,14.0769366 56.3424,13.6379366 C56.1464,13.2429366 55.9934,12.8389366 55.8854,12.4209366 C55.7764,12.0039366 55.7024,11.5789366 55.6634,11.1449366 C55.6104,10.6139366 55.5764,10.0819366 55.5604,9.54993657 C55.5434,9.01793657 55.5514,8.48493657 55.5844,7.95393657 C55.6044,7.64493657 55.6044,7.33793657 55.5894,7.03193657 C55.5724,6.72693657 55.5584,6.41993657 55.5454,6.11193657 C55.5454,6.08593657 55.5404,6.05993657 55.5304,6.03793657 C55.5204,6.01493657 55.5094,5.97693657 55.4954,5.92493657 C55.4374,6.01793657 55.3824,6.10193657 55.3334,6.18193657 C55.2834,6.25993657 55.2424,6.33493657 55.2104,6.40693657 C55.0714,6.69593657 54.9484,6.98693657 54.8414,7.27893657 C54.7324,7.57093657 54.6464,7.87493657 54.5794,8.18993657 C54.5604,8.30193657 54.5334,8.41393657 54.5004,8.52493657 C54.4684,8.63693657 54.4374,8.74793657 54.4124,8.85993657 C54.3794,8.99093657 54.3514,9.12593657 54.3284,9.26393657 C54.3054,9.40193657 54.2804,9.53593657 54.2554,9.66793657 C54.1824,10.0029366 54.1234,10.3379366 54.0774,10.6719366 C54.0244,10.9809366 53.9804,11.2879366 53.9434,11.5939366 C53.9084,11.8989366 53.8664,12.2059366 53.8204,12.5149366 C53.7944,12.6909366 53.7634,12.8649366 53.7284,13.0359366 C53.6914,13.2079366 53.6404,13.3789366 53.5744,13.5489366 C53.5164,13.7069366 53.4304,13.8429366 53.3184,13.9579366 C53.2074,14.0719366 53.0924,14.1829366 52.9744,14.2879366 C52.9014,14.3529366 52.8214,14.4109366 52.7324,14.4599366 C52.6444,14.5089366 52.5544,14.5569366 52.4624,14.6019366 C52.3374,14.6619366 52.2334,14.6769366 52.1514,14.6469366 C52.0694,14.6169366 51.9884,14.5469366 51.9094,14.4349366 C51.8184,14.2979366 51.7394,14.1529366 51.6734,14.0019366 C51.6074,13.8509366 51.5624,13.6929366 51.5354,13.5289366 C51.5024,13.3189366 51.4774,13.1119366 51.4574,12.9089366 C51.4374,12.7049366 51.4144,12.4979366 51.3884,12.2879366 C51.3744,12.1429366 51.3584,11.9989366 51.3384,11.8539366 C51.3194,11.7109366 51.2994,11.5649366 51.2794,11.4209366 C51.2204,10.9349366 51.1704,10.4519366 51.1264,9.97393657 C51.0844,9.49393657 51.0604,9.00793657 51.0534,8.51593657 C51.0394,7.73393657 51.0294,6.95593657 51.0234,6.18193657 C51.0174,5.40593657 51.0104,4.62793657 51.0044,3.84693657 C50.9974,3.28793657 50.9974,2.73193657 51.0044,2.18193657 C51.0104,1.62993657 51.0144,1.07493657 51.0144,0.516936567 C51.0144,0.391936567 51.0524,0.279936567 51.1264,0.181936567 C51.2024,0.0829365672 51.3094,0.0239365672 51.4464,0.00493656716 C51.6444,-0.0160634328 51.8184,0.0299365672 51.9694,0.142936567 C52.0874,0.221936567 52.1744,0.315936567 52.2294,0.427936567 C52.2864,0.539936567 52.3304,0.660936567 52.3624,0.792936567 C52.4224,1.03593657 52.4564,1.27893657 52.4664,1.52093657 C52.4774,1.76493657 52.4874,2.00793657 52.5014,2.25093657 C52.5084,2.47393657 52.5184,2.69293657 52.5304,2.90993657 C52.5434,3.12793657 52.5574,3.34393657 52.5704,3.55993657 C52.5764,3.68493657 52.5804,3.80893657 52.5804,3.92993657 C52.5804,4.05193657 52.5834,4.17493657 52.5894,4.29893657 C52.5964,4.41793657 52.6014,4.53593657 52.6044,4.65393657 C52.6074,4.77193657 52.6164,4.89093657 52.6294,5.00893657 C52.6424,5.21193657 52.6574,5.41393657 52.6734,5.61393657 C52.6894,5.81493657 52.7074,6.01793657 52.7284,6.22093657 C52.7604,6.49593657 52.7714,6.76793657 52.7624,7.03793657 C52.7524,7.30693657 52.7404,7.57893657 52.7284,7.85493657 C52.7214,7.96793657 52.7244,8.07893657 52.7374,8.18993657 C52.7514,8.30193657 52.7634,8.41393657 52.7764,8.52493657 C52.7834,8.64993657 52.7904,8.77493657 52.7964,8.89893657 C52.8034,9.02393657 52.8124,9.15193657 52.8254,9.28393657 C52.8394,9.46093657 52.8494,9.63793657 52.8554,9.81493657 C52.8624,9.99293657 52.8714,10.1739366 52.8854,10.3569366 C52.8984,10.5209366 52.9094,10.6829366 52.9194,10.8399366 C52.9304,10.9979366 52.9404,11.1579366 52.9544,11.3219366 C52.9614,11.3549366 52.9674,11.3869366 52.9744,11.4159366 C52.9804,11.4459366 52.9864,11.4769366 52.9934,11.5099366 C53.0134,11.5099366 53.0294,11.5069366 53.0434,11.4999366" id="Fill-305" fill="#272525"></path>
                <path d="M60.7844,10.6629366 C60.8704,10.6489366 60.9474,10.6399366 61.0164,10.6329366 C61.0844,10.6259366 61.1524,10.6139366 61.2184,10.5939366 C61.4484,10.5409366 61.6664,10.4649366 61.8734,10.3619366 C62.0794,10.2609366 62.2744,10.1409366 62.4594,10.0029366 C62.6094,9.89093657 62.7554,9.77793657 62.8934,9.66293657 C63.0304,9.54793657 63.1654,9.42793657 63.2974,9.30293657 C63.5724,9.05393657 63.7894,8.77093657 63.9464,8.45593657 C64.1044,8.14093657 64.2134,7.80293657 64.2714,7.44193657 C64.3044,7.27793657 64.3044,7.12193657 64.2714,6.97393657 C64.2384,6.82593657 64.1664,6.68593657 64.0554,6.55493657 C63.8454,6.30593657 63.5974,6.14293657 63.3124,6.06693657 C63.0254,5.99193657 62.7344,6.02593657 62.4384,6.17093657 C62.1844,6.29593657 61.9614,6.45793657 61.7744,6.65893657 C61.5874,6.85793657 61.4324,7.08393657 61.3074,7.33293657 C61.0974,7.75393657 60.9454,8.20393657 60.8544,8.68293657 C60.8014,8.93893657 60.7634,9.19493657 60.7404,9.45093657 C60.7174,9.70693657 60.7124,9.96693657 60.7264,10.2289366 C60.7314,10.3019366 60.7404,10.3719366 60.7504,10.4409366 C60.7604,10.5099366 60.7714,10.5839366 60.7844,10.6629366 Z M65.3354,10.6719366 C65.2104,10.9479366 65.0844,11.2209366 64.9564,11.4899366 C64.8284,11.7599366 64.6914,12.0279366 64.5474,12.2979366 C64.4164,12.5539366 64.2674,12.7989366 64.0994,13.0319366 C63.9324,13.2649366 63.7534,13.4899366 63.5624,13.7069366 C63.2734,14.0479366 62.9464,14.3059366 62.5824,14.4789366 C62.2184,14.6539366 61.7994,14.7139366 61.3264,14.6619366 C60.8334,14.6089366 60.4134,14.4549366 60.0654,14.1989366 C59.7184,13.9429366 59.4294,13.5989366 59.1984,13.1649366 C59.0414,12.8499366 58.9184,12.5289366 58.8294,12.2039366 C58.7404,11.8789366 58.6804,11.5429366 58.6464,11.1939366 C58.6144,10.9259366 58.6004,10.6599366 58.6034,10.3959366 C58.6064,10.1339366 58.6144,9.86793657 58.6274,9.59893657 C58.6404,9.32293657 58.6704,9.05093657 58.7164,8.78093657 C58.7624,8.51193657 58.8244,8.24293657 58.9034,7.97393657 C59.0154,7.57893657 59.1504,7.19893657 59.3124,6.83093657 C59.4734,6.46393657 59.6854,6.11893657 59.9474,5.79693657 C60.1044,5.59993657 60.2784,5.42393657 60.4704,5.26893657 C60.6594,5.11493657 60.8664,4.97793657 61.0904,4.85993657 C61.2794,4.76293657 61.4764,4.68193657 61.6764,4.61893657 C61.8764,4.55693657 62.0814,4.51893657 62.2914,4.50693657 C62.5284,4.49293657 62.7614,4.50693657 62.9914,4.54593657 C63.2214,4.58493657 63.4404,4.68093657 63.6504,4.83093657 C63.7034,4.86993657 63.7584,4.90793657 63.8134,4.94393657 C63.8694,4.97993657 63.9274,5.01593657 63.9864,5.04793657 C64.1894,5.17993657 64.3644,5.33693657 64.5134,5.51993657 C64.6604,5.70493657 64.7964,5.90093657 64.9214,6.11193657 C65.0464,6.32193657 65.1254,6.54493657 65.1584,6.78093657 C65.1914,7.01793657 65.1854,7.26193657 65.1394,7.51093657 C64.9804,8.32493657 64.5974,9.02393657 63.9864,9.60793657 C63.8094,9.77893657 63.6284,9.94493657 63.4444,10.1059366 C63.2604,10.2669366 63.0664,10.4169366 62.8624,10.5549366 C62.5744,10.7449366 62.2734,10.8989366 61.9614,11.0169366 C61.6494,11.1359366 61.3164,11.2009366 60.9624,11.2139366 C60.9554,11.2139366 60.9264,11.2209366 60.8734,11.2339366 C60.9194,11.5169366 60.9874,11.7819366 61.0804,12.0319366 C61.1724,12.2819366 61.3074,12.5119366 61.4834,12.7219366 C61.6354,12.8929366 61.8044,13.0199366 61.9914,13.1049366 C62.1784,13.1909366 62.3834,13.2399366 62.6074,13.2539366 C62.6984,13.2599366 62.7794,13.2419366 62.8494,13.1989366 C62.9174,13.1559366 62.9874,13.1079366 63.0614,13.0569366 C63.2114,12.9249366 63.3494,12.7819366 63.4744,12.6279366 C63.5984,12.4739366 63.7134,12.3099366 63.8184,12.1409366 C63.9704,11.9099366 64.1074,11.6779366 64.2314,11.4399366 C64.3564,11.2039366 64.4694,10.9619366 64.5664,10.7119366 C64.6194,10.5939366 64.6804,10.4929366 64.7494,10.4119366 C64.8184,10.3289366 64.9184,10.2779366 65.0504,10.2589366 C65.1294,10.2659366 65.1974,10.2849366 65.2564,10.3179366 C65.3034,10.3509366 65.3394,10.3949366 65.3654,10.4509366 C65.3914,10.5069366 65.3814,10.5809366 65.3354,10.6719366 L65.3354,10.6719366 Z" id="Fill-306" fill="#272525"></path>
            </g>
        </g>
    </g>
</svg>