<?xml version="1.0" encoding="UTF-8"?>
<svg width="129px" height="58px" viewBox="0 0 129 58" version="1.1" xmlns="http://www.w3.org/2000/svg" xmlns:xlink="http://www.w3.org/1999/xlink">
    <title>Group 4</title>
    <g id="Page-1" stroke="none" stroke-width="1" fill="none" fill-rule="evenodd">
        <g id="59924" transform="translate(-644.000000, -52.000000)">
            <g id="Group-4" transform="translate(644.270658, 52.326000)">
                <path d="M108.474342,21.826 C108.416342,21.646 108.361342,21.467 108.296342,21.291 L108.060342,20.771 C107.912342,20.255 107.652342,19.695 107.406342,19.109 C107.098342,18.555 106.792342,17.968 106.419342,17.497 C105.705342,16.519 104.897342,15.841 104.568342,15.68 C103.726342,15.17 102.856342,14.807 102.000342,14.502 C101.140342,14.232 100.290342,14.003 99.4583425,13.864 C97.7913425,13.553 96.1963425,13.461 94.6673425,13.405 C93.1253425,13.359 91.7053425,13.384 90.3213425,13.393 C88.9363425,13.41 87.5973425,13.445 86.3173425,13.526 C81.2293425,13.73 76.1923425,13.755 71.3163425,13.871 C68.7223425,13.929 66.1803425,14.028 63.6983425,14.18 L63.2743425,13.888 C62.4683425,14.047 61.6763425,14.158 61.5013425,14.337 C61.1023425,14.368 60.7013425,14.398 60.3053425,14.432 C59.0873425,14.301 58.0723425,14.358 57.2973425,14.732 C56.3843425,14.588 56.9763425,14.479 56.4543425,14.348 C55.0713425,14.448 53.5713425,14.475 52.0363425,14.449 C51.5773425,14.333 50.9043425,14.244 49.5073425,14.239 L49.4713425,14.358 C44.8103425,14.108 40.2133425,13.426 37.8263425,12.698 C35.3043425,13.624 32.1383425,12.892 29.2253425,13.305 C27.5043425,13.458 25.6233425,13.72 23.8333425,13.942 C22.9333425,14.058 22.0933425,14.13 21.1733425,14.236 C20.2783425,14.353 19.4233425,14.514 18.6323425,14.689 C17.7013425,14.926 16.7933425,15.364 16.0293425,15.934 C15.2603425,16.503 14.6423425,17.186 14.1503425,17.875 C13.1863425,19.271 12.6633425,20.644 12.2683425,21.957 C11.9663425,22.966 11.7803425,23.982 11.7103425,24.978 C11.6893425,25.089 11.6593425,25.197 11.6413425,25.308 C11.6503425,25.486 11.6673425,25.658 11.6833425,25.83 C11.6793425,27.183 11.8913425,28.484 12.3333425,29.664 C12.5443425,30.281 12.9473425,30.798 13.3443425,31.24 C13.4803425,31.39 13.6203425,31.53 13.7593425,31.672 C14.7083425,33.177 16.0463425,34.794 16.0463425,35.485 C18.7913425,37.591 22.5543425,37.588 26.0123425,37.49 C31.2703425,37.343 36.5283425,37.194 41.7863425,37.046 C42.2643425,37.099 42.7493425,37.174 43.1913425,37.331 L43.2753425,37.004 C45.3323425,36.947 47.3883425,36.888 49.4463425,36.831 C53.7643425,37.274 59.8343425,37.086 65.0003425,37.095 C66.1143425,37.079 66.8323425,36.468 67.9473425,36.451 C68.4743425,36.564 69.0003425,36.676 69.5253425,36.788 C70.6423425,36.772 72.3473425,36.626 72.8753425,36.739 C74.9813425,37.187 78.0353425,37.201 81.1763425,37.139 C84.3233425,37.065 87.5313425,36.973 90.0593425,37.033 C91.7403425,37.074 93.4813425,36.916 95.2963425,36.602 C97.1103425,36.266 99.0083425,35.788 100.992342,34.988 C101.425342,34.851 101.870342,34.641 102.336342,34.41 C102.570342,34.301 102.811342,34.134 103.054342,33.987 C103.300342,33.835 103.548342,33.674 103.777342,33.484 C104.741342,32.769 105.623342,31.822 106.379342,30.739 C107.136342,29.653 107.763342,28.419 108.190342,27.094 C108.606342,25.765 108.821342,24.341 108.761342,22.926 C108.703342,22.555 108.594342,22.188 108.474342,21.826" id="Fill-516" fill="#ECEEF1"></path>
                <path d="M63.8553425,38.438 C63.6143425,38.435 63.3663425,38.433 63.1373425,38.426 C63.4323425,38.437 63.6673425,38.44 63.8553425,38.438" id="Fill-517" fill="#EFC5CD"></path>
                <path d="M63.5223425,37.797 C63.4783425,37.97 65.5053425,38.42 63.8553425,38.438 C64.7833425,38.449 65.6123425,38.469 64.8233425,38.786 C66.6093425,38.759 64.9473425,38.303 66.1263425,38.047 C65.1583425,38.348 64.3893425,37.88 63.5223425,37.797" id="Fill-518" fill="#EFC5CD"></path>
                <path d="M70.3283425,38.127 C69.4353425,38.141 68.6413425,37.768 67.8853425,38.115 C68.7523425,38.199 69.8333425,38.327 70.3283425,38.127" id="Fill-519" fill="#EFC5CD"></path>
                <polyline id="Fill-520" fill="#EFC5CD" points="68.2443425 39.311 68.7143425 39.207 67.4733425 38.842 68.2443425 39.311"></polyline>
                <path d="M73.1983425,38.82 C73.5353425,38.88 73.7963425,38.959 73.8593425,39.082 L70.7113425,39.227 L73.5503425,39.424 C75.2653425,39.096 74.4273425,38.952 73.1983425,38.82" id="Fill-521" fill="#EFC5CD"></path>
                <path d="M69.5463425,38.572 C69.5153425,38.685 70.9323425,38.645 72.1563425,38.712 C71.3363425,38.624 70.5973425,38.524 70.4893425,38.366 L69.5463425,38.572" id="Fill-522" fill="#EFC5CD"></path>
                <path d="M73.1983425,38.82 C72.9003425,38.768 72.5463425,38.733 72.1563425,38.712 C72.5063425,38.748 72.8633425,38.785 73.1983425,38.82" id="Fill-523" fill="#EFC5CD"></path>
                <path d="M76.1773425,39.577 L76.6253425,39.57 L76.7463425,39.088 C75.8333425,39.198 76.2013425,39.48 76.1773425,39.577" id="Fill-524" fill="#EFC5CD"></path>
                <path d="M79.6473425,39.908 C80.9593425,39.985 80.0223425,40.192 79.9713425,40.383 C80.7903425,40.659 82.4373425,40.299 83.1193425,40.241 C82.0893425,39.921 80.9593425,39.985 79.6473425,39.908" id="Fill-525" fill="#EFC5CD"></path>
                <path d="M83.8363425,40.903 L81.1603425,40.942 C81.6923425,41.462 82.7083425,40.967 83.8363425,40.903" id="Fill-526" fill="#EFC5CD"></path>
                <path d="M86.6953425,40.186 L88.1843425,40.59 C88.4313425,40.535 88.2333425,40.398 88.7303425,40.286 C88.3083425,40.109 87.3613425,40.225 86.6953425,40.186" id="Fill-527" fill="#EFC5CD"></path>
                <path d="M48.3993425,48.219 L49.1093425,48.219 C49.2663425,48.219 49.3923425,48.177 49.4873425,48.092 C49.5833425,48.007 49.6303425,47.889 49.6303425,47.739 C49.6303425,47.589 49.5823425,47.47 49.4853425,47.384 C49.3883425,47.297 49.2613425,47.254 49.1053425,47.254 L48.3993425,47.254 L48.3993425,48.219 Z M48.3993425,45.808 L48.3993425,46.714 L49.0343425,46.714 C49.1913425,46.714 49.3153425,46.674 49.4073425,46.596 C49.5003425,46.517 49.5453425,46.406 49.5453425,46.263 C49.5453425,46.119 49.5003425,46.008 49.4073425,45.927 C49.3153425,45.848 49.1913425,45.808 49.0343425,45.808 L48.3993425,45.808 Z M47.6943425,45.267 L49.1093425,45.267 C49.4663425,45.267 49.7483425,45.354 49.9533425,45.528 C50.1583425,45.701 50.2603425,45.921 50.2603425,46.188 C50.2603425,46.578 50.0343425,46.84 49.5803425,46.973 C49.8103425,47.007 49.9943425,47.106 50.1333425,47.271 C50.2713425,47.436 50.3403425,47.627 50.3403425,47.844 C50.3403425,48.118 50.2373425,48.338 50.0303425,48.507 C49.8243425,48.675 49.5433425,48.759 49.1903425,48.759 L47.6943425,48.759 L47.6943425,45.267 L47.6943425,45.267 Z" id="Fill-528" fill="#000000"></path>
                <path d="M55.0393425,47.564 L56.0343425,47.564 L55.5343425,46.108 L55.0393425,47.564 Z M56.4393425,48.759 L56.2133425,48.104 L54.8533425,48.104 L54.6273425,48.759 L53.8823425,48.759 L55.1193425,45.257 L55.9543425,45.257 L57.1853425,48.759 L56.4393425,48.759 L56.4393425,48.759 Z" id="Fill-529" fill="#000000"></path>
                <path d="M61.5833425,45.808 L61.5833425,46.828 L62.1633425,46.828 C62.3393425,46.828 62.4743425,46.782 62.5683425,46.691 C62.6613425,46.599 62.7083425,46.475 62.7083425,46.318 C62.7083425,46.161 62.6613425,46.037 62.5683425,45.946 C62.4743425,45.854 62.3393425,45.808 62.1633425,45.808 L61.5833425,45.808 Z M61.5833425,47.368 L61.5833425,48.759 L60.8763425,48.759 L60.8763425,45.267 L62.1633425,45.267 C62.5663425,45.267 62.8763425,45.368 63.0953425,45.57 C63.3143425,45.772 63.4233425,46.021 63.4233425,46.318 C63.4233425,46.538 63.3563425,46.743 63.2233425,46.933 C63.0893425,47.123 62.8793425,47.254 62.5923425,47.324 L63.4833425,48.759 L62.6483425,48.759 L61.8123425,47.368 L61.5833425,47.368 L61.5833425,47.368 Z" id="Fill-530" fill="#000000"></path>
                <path d="M67.8613425,48.067 C67.9583425,48.168 68.0743425,48.219 68.2103425,48.219 C68.3483425,48.219 68.4653425,48.168 68.5643425,48.067 C68.6623425,47.965 68.7113425,47.842 68.7113425,47.699 C68.7113425,47.556 68.6623425,47.435 68.5643425,47.336 C68.4653425,47.238 68.3483425,47.188 68.2103425,47.188 C68.0743425,47.188 67.9583425,47.238 67.8613425,47.336 C67.7643425,47.435 67.7153425,47.556 67.7153425,47.699 C67.7153425,47.842 67.7643425,47.965 67.8613425,48.067 Z M68.2063425,48.795 C67.9023425,48.795 67.6453425,48.69 67.4333425,48.482 C67.2213425,48.273 67.1163425,48.023 67.1163425,47.729 C67.1163425,47.435 67.1993425,47.19 67.3663425,46.994 C67.5323425,46.797 67.7353425,46.681 67.9763425,46.648 C67.7793425,46.362 67.6813425,46.11 67.6813425,45.895 C67.6813425,45.68 67.7673425,45.487 67.9413425,45.315 C68.1143425,45.143 68.3523425,45.057 68.6563425,45.057 C68.9593425,45.057 69.2003425,45.137 69.3763425,45.297 C69.5533425,45.457 69.6423425,45.646 69.6423425,45.863 C69.6423425,45.973 69.6223425,46.068 69.5823425,46.148 L68.9073425,46.148 C68.9363425,46.094 68.9523425,46.027 68.9523425,45.946 C68.9523425,45.864 68.9233425,45.795 68.8693425,45.738 C68.8143425,45.681 68.7433425,45.653 68.6563425,45.653 C68.5703425,45.653 68.5003425,45.681 68.4463425,45.738 C68.3933425,45.795 68.3663425,45.868 68.3663425,45.96 C68.3663425,46.052 68.4173425,46.165 68.5163425,46.298 L70.3633425,48.759 L69.5423425,48.759 L69.1563425,48.229 C69.0703425,48.396 68.9403425,48.532 68.7693425,48.637 C68.5973425,48.742 68.4103425,48.795 68.2063425,48.795 L68.2063425,48.795 Z" id="Fill-531" fill="#000000"></path>
                <path d="M29.2573425,53.97 L29.2573425,54.991 L29.8383425,54.991 C30.0153425,54.991 30.1503425,54.945 30.2443425,54.853 C30.3363425,54.761 30.3833425,54.637 30.3833425,54.481 C30.3833425,54.324 30.3363425,54.2 30.2443425,54.108 C30.1503425,54.016 30.0153425,53.97 29.8383425,53.97 L29.2573425,53.97 Z M29.2573425,55.531 L29.2573425,56.922 L28.5523425,56.922 L28.5523425,53.43 L29.8383425,53.43 C30.2423425,53.43 30.5523425,53.531 30.7713425,53.733 C30.9903425,53.935 31.0993425,54.184 31.0993425,54.481 C31.0993425,54.7 31.0323425,54.906 30.8983425,55.096 C30.7653425,55.286 30.5553425,55.416 30.2683425,55.487 L31.1593425,56.922 L30.3233425,56.922 L29.4883425,55.531 L29.2573425,55.531 L29.2573425,55.531 Z" id="Fill-532" fill="#000000"></path>
                <polyline id="Fill-533" fill="#000000" points="37.0173425 53.42 37.0173425 53.96 35.7073425 53.96 35.7073425 54.876 36.8673425 54.876 36.8673425 55.416 35.7073425 55.416 35.7073425 56.382 37.0173425 56.382 37.0173425 56.922 35.0003425 56.922 35.0003425 53.42 37.0173425 53.42"></polyline>
                <path d="M42.0703425,53.945 C41.9303425,53.945 41.8163425,53.981 41.7273425,54.053 C41.6393425,54.125 41.5953425,54.224 41.5953425,54.35 C41.5953425,54.477 41.6263425,54.576 41.6923425,54.648 C41.7573425,54.72 41.8433425,54.775 41.9503425,54.814 C42.0563425,54.851 42.1733425,54.886 42.3003425,54.916 C42.4263425,54.945 42.5533425,54.983 42.6803425,55.026 C42.8073425,55.069 42.9233425,55.122 43.0313425,55.186 C43.1373425,55.249 43.2233425,55.342 43.2893425,55.464 C43.3533425,55.585 43.3863425,55.733 43.3863425,55.906 C43.3863425,56.193 43.2723425,56.44 43.0433425,56.647 C42.8153425,56.853 42.5113425,56.957 42.1323425,56.957 C41.7533425,56.957 41.4483425,56.868 41.2143425,56.689 C40.9813425,56.51 40.8653425,56.26 40.8653425,55.937 L41.6153425,55.937 C41.6413425,56.244 41.8163425,56.396 42.1403425,56.396 C42.3003425,56.396 42.4263425,56.355 42.5203425,56.272 C42.6143425,56.189 42.6613425,56.077 42.6613425,55.939 C42.6613425,55.8 42.5993425,55.691 42.4753425,55.611 C42.3523425,55.531 42.2033425,55.471 42.0283425,55.431 C41.8523425,55.391 41.6763425,55.343 41.5003425,55.286 C41.3233425,55.229 41.1723425,55.131 41.0493425,54.988 C40.9263425,54.847 40.8653425,54.659 40.8653425,54.425 C40.8653425,54.109 40.9793425,53.855 41.2093425,53.665 C41.4403425,53.475 41.7363425,53.38 42.0973425,53.38 C42.4593425,53.38 42.7503425,53.462 42.9713425,53.628 C43.1913425,53.793 43.3113425,54.044 43.3313425,54.381 L42.5603425,54.381 C42.5473425,54.247 42.4983425,54.141 42.4103425,54.063 C42.3243425,53.985 42.2103425,53.945 42.0703425,53.945" id="Fill-534" fill="#000000"></path>
                <polyline id="Fill-535" fill="#000000" points="47.0583425 53.97 47.0583425 53.43 49.6453425 53.43 49.6453425 53.97 48.6993425 53.97 48.6993425 56.922 47.9993425 56.922 47.9993425 53.97 47.0583425 53.97"></polyline>
                <path d="M54.2783425,55.726 L55.2733425,55.726 L54.7733425,54.27 L54.2783425,55.726 Z M55.6783425,56.922 L55.4533425,56.267 L54.0923425,56.267 L53.8683425,56.922 L53.1223425,56.922 L54.3583425,53.42 L55.1933425,53.42 L56.4243425,56.922 L55.6783425,56.922 L55.6783425,56.922 Z" id="Fill-536" fill="#000000"></path>
                <path d="M60.1063425,55.581 L60.1063425,53.43 L60.8123425,53.43 L60.8123425,55.581 C60.8123425,55.821 60.8733425,56.003 60.9953425,56.127 C61.1163425,56.25 61.2903425,56.311 61.5173425,56.311 C61.7443425,56.311 61.9183425,56.25 62.0423425,56.127 C62.1663425,56.003 62.2273425,55.821 62.2273425,55.581 L62.2273425,53.43 L62.9283425,53.43 L62.9283425,55.581 C62.9283425,56.022 62.7903425,56.361 62.5133425,56.599 C62.2363425,56.838 61.8993425,56.957 61.5013425,56.957 C61.1053425,56.957 60.7733425,56.839 60.5063425,56.602 C60.2403425,56.365 60.1063425,56.025 60.1063425,55.581" id="Fill-537" fill="#000000"></path>
                <path d="M67.5713425,53.97 L67.5713425,54.991 L68.1523425,54.991 C68.3293425,54.991 68.4633425,54.945 68.5573425,54.853 C68.6503425,54.761 68.6973425,54.637 68.6973425,54.481 C68.6973425,54.324 68.6503425,54.2 68.5573425,54.108 C68.4633425,54.016 68.3293425,53.97 68.1523425,53.97 L67.5713425,53.97 Z M67.5713425,55.531 L67.5713425,56.922 L66.8663425,56.922 L66.8663425,53.43 L68.1523425,53.43 C68.5553425,53.43 68.8663425,53.531 69.0843425,53.733 C69.3033425,53.935 69.4133425,54.184 69.4133425,54.481 C69.4133425,54.7 69.3453425,54.906 69.2123425,55.096 C69.0793425,55.286 68.8693425,55.416 68.5823425,55.487 L69.4723425,56.922 L68.6373425,56.922 L67.8013425,55.531 L67.5713425,55.531 L67.5713425,55.531 Z" id="Fill-538" fill="#000000"></path>
                <path d="M74.2063425,55.726 L75.2013425,55.726 L74.7013425,54.27 L74.2063425,55.726 Z M75.6063425,56.922 L75.3803425,56.267 L74.0203425,56.267 L73.7943425,56.922 L73.0493425,56.922 L74.2853425,53.42 L75.1213425,53.42 L76.3513425,56.922 L75.6063425,56.922 L75.6063425,56.922 Z" id="Fill-539" fill="#000000"></path>
                <polyline id="Fill-540" fill="#000000" points="82.3303425 53.42 83.0363425 53.42 83.0363425 56.922 82.3303425 56.922 80.7493425 54.501 80.7493425 56.922 80.0433425 56.922 80.0433425 53.42 80.7493425 53.42 82.3303425 55.841 82.3303425 53.42"></polyline>
                <polyline id="Fill-541" fill="#000000" points="86.7833425 53.97 86.7833425 53.43 89.3703425 53.43 89.3703425 53.97 88.4233425 53.97 88.4233425 56.922 87.7233425 56.922 87.7233425 53.97 86.7833425 53.97"></polyline>
                <path d="M24.3313425,12.825 C24.3313425,12.664 24.4383425,12.503 24.5453425,12.396 C25.3503425,11.591 25.6193425,10.625 26.2623425,9.712 C25.6193425,10.249 23.8483425,12.771 23.5263425,13.523 C23.9553425,13.362 24.2233425,13.093 24.3313425,12.825 Z M19.0723425,20.069 C19.3403425,19.694 19.6093425,19.211 19.8763425,18.728 C20.1993425,17.976 20.6283425,17.225 21.4333425,16.581 C21.5943425,16.366 21.7543425,16.045 21.7543425,15.777 C20.9513425,16.474 19.2333425,19.103 18.6973425,20.445 C18.8573425,20.337 18.9643425,20.23 19.0723425,20.069 Z M11.7203425,30.533 C11.7743425,30.425 11.8283425,30.318 11.9893425,30.05 C11.9893425,29.996 11.9893425,29.943 11.9893425,29.782 C11.8813425,29.996 11.7203425,30.103 11.6673425,30.157 C11.6673425,30.318 11.6673425,30.425 11.6143425,30.533 C11.6673425,30.533 11.6673425,30.533 11.7203425,30.533 Z M14.6713425,9.122 C14.9403425,8.801 15.2083425,8.425 15.4773425,8.049 C16.2283425,6.923 17.2483425,6.332 18.3213425,6.01 C18.6433425,5.903 19.1253425,6.064 19.3943425,6.225 C19.8763425,6.44 20.3063425,6.6 20.9513425,6.44 C21.5943425,6.332 22.0233425,6.44 22.1843425,6.815 C22.1843425,7.03 22.0773425,7.405 22.1303425,7.512 C22.1843425,7.888 22.1843425,8.211 21.8633425,8.694 C21.7543425,8.746 21.8083425,8.854 21.8083425,8.962 C21.7543425,10.195 22.0773425,9.122 21.5403425,10.357 C21.2723425,10.947 21.2183425,11.483 21.0033425,11.966 C18.4283425,18.46 21.1113425,15.24 23.2573425,12.396 C23.4723425,11.805 23.8483425,11.322 24.3313425,10.84 C25.0823425,9.766 25.9943425,8.801 26.7463425,7.674 C27.9803425,6.064 29.4283425,4.615 31.0383425,3.488 C31.6283425,3.112 32.1653425,2.522 32.7023425,2.629 C33.2393425,2.683 33.7753425,2.898 34.1513425,3.22 C34.5263425,3.542 34.8483425,3.917 35.0633425,4.346 C35.1703425,4.4 35.2233425,4.454 35.2773425,4.454 C36.0293425,4.615 36.0293425,5.366 36.0293425,6.064 C35.9753425,6.225 35.8683425,6.385 35.8683425,6.493 C35.1703425,8.049 34.4723425,9.498 34.2573425,10.947 C34.1513425,11.698 34.0423425,12.503 33.9893425,13.2 C33.8823425,13.898 33.8293425,14.703 33.6673425,15.508 C33.5603425,16.206 33.5603425,16.903 32.9703425,17.601 C32.9703425,17.655 32.9173425,17.708 32.9703425,17.815 C33.3453425,18.137 32.8093425,18.513 32.6483425,18.888 C32.5943425,19.049 32.4873425,19.264 32.5943425,19.426 C32.7553425,20.015 32.7023425,20.552 32.2193425,21.249 C32.2193425,21.303 32.1653425,21.411 32.1653425,21.572 C32.0043425,22.054 31.8973425,22.484 31.7903425,22.913 C31.8433425,22.913 31.8433425,22.86 32.0573425,22.752 C31.8973425,23.503 30.9853425,24.148 31.2533425,24.845 C31.6283425,24.845 31.5753425,25.22 31.4673425,25.703 C31.2003425,26.777 31.0913425,27.797 30.6093425,28.923 C30.6633425,28.977 30.6093425,29.03 30.6633425,29.084 C30.9313425,29.62 30.2883425,30.372 30.4483425,31.069 C30.5013425,31.499 30.1793425,32.035 30.4483425,32.572 C30.4483425,32.84 30.2343425,33.269 29.8583425,33.645 C29.7503425,33.86 29.4823425,34.021 29.2673425,34.235 C28.9463425,34.987 28.8913425,35.04 28.1943425,35.094 C28.0343425,35.094 27.8723425,35.148 27.5503425,35.202 C27.1743425,35.255 26.9063425,35.255 26.7463425,34.987 C26.6923425,34.88 26.5313425,34.826 26.3163425,34.772 C25.6193425,34.611 25.4043425,33.968 25.7263425,33.269 C26.2623425,31.338 26.4773425,29.62 26.7463425,27.797 C26.9063425,27.366 27.0133425,26.83 27.1213425,26.401 C27.3353425,25.757 27.4973425,25.006 27.8193425,24.255 C27.8193425,24.469 27.7113425,24.737 27.7113425,25.006 C27.8723425,24.899 27.8723425,24.899 27.9253425,24.899 C28.0343425,24.523 28.1943425,24.148 28.2483425,23.718 C28.4093425,22.752 28.8913425,21.732 28.7853425,20.82 C28.7313425,20.766 28.7313425,20.659 28.7853425,20.606 C29.3213425,20.069 28.8373425,19.532 29.2673425,18.996 C29.4283425,18.835 29.3753425,18.62 29.4283425,18.513 C29.3213425,17.923 29.5363425,17.332 29.9123425,16.742 C29.9123425,16.634 29.9123425,16.528 29.9123425,16.474 C29.9123425,16.474 29.9123425,16.474 29.8583425,16.42 C29.4823425,17.225 29.1603425,18.03 28.8373425,18.835 C28.7853425,18.835 28.7313425,18.835 28.6773425,18.835 C29.4823425,14.113 29.6973425,13.523 26.0473425,18.62 C25.9943425,18.566 25.9403425,18.513 25.9403425,18.46 C25.8333425,18.46 25.7803425,18.513 25.7803425,18.513 C25.7803425,18.674 25.6713425,18.835 25.6193425,18.996 C25.3503425,19.694 25.0823425,19.962 24.3843425,20.391 C24.2233425,20.445 24.1163425,20.606 24.1163425,20.713 C23.8483425,20.928 23.7403425,21.142 23.6333425,21.357 C23.0423425,23.02 19.5543425,27.957 18.5353425,29.62 C18.1063425,30.372 17.4623425,30.801 16.7103425,31.499 C16.7103425,31.177 16.6573425,30.962 16.8183425,30.748 C16.7643425,30.748 16.7103425,30.748 16.7103425,30.748 C16.4973425,31.123 16.2283425,31.445 15.9593425,31.82 C15.9593425,31.767 15.9063425,31.767 15.8523425,31.714 C15.5313425,32.465 14.9943425,32.679 14.4033425,32.84 C13.3313425,33.216 12.4713425,33.269 11.6143425,33.002 C11.0773425,32.84 10.3793425,32.786 9.95034248,32.411 C9.57434248,32.143 9.52034248,32.196 9.89634248,31.552 C10.4323425,30.694 10.9163425,29.835 11.5053425,29.084 C12.0963425,28.225 12.4713425,27.528 12.3653425,26.777 C13.5453425,20.82 16.8723425,13.254 12.4713425,20.123 C11.9353425,20.982 11.3993425,21.947 10.6473425,22.752 C8.93034248,26.455 4.69134248,31.928 4.04634248,35.899 C3.99434248,36.22 3.88634248,36.651 3.67134248,37.08 C3.34934248,37.562 3.08134248,37.616 2.81334248,37.402 C2.65234248,37.348 2.59834248,37.348 2.54434248,37.294 C2.27634248,36.651 1.74034248,36.543 1.04234248,36.436 C0.613342478,36.382 0.344342478,36.114 0.0223424781,35.952 C-0.0316575219,35.899 0.0223424781,35.631 0.0773424781,35.523 C1.09634248,33.699 1.52534248,31.982 1.95534248,30.211 C2.11534248,29.568 2.11534248,28.869 2.38334248,28.172 C2.54434248,27.366 3.88634248,24.201 4.10034248,23.396 C4.31534248,22.537 4.53034248,21.679 4.74534248,20.82 C5.17334248,19.157 5.54934248,17.493 6.03234248,15.83 C6.08534248,15.508 6.24834248,15.132 6.24834248,14.757 C6.30034248,13.523 6.73034248,12.288 7.21334248,11 C7.37434248,10.625 7.42734248,10.195 7.64234248,9.766 C7.75034248,9.391 7.91134248,8.962 8.07234248,8.586 C8.23234248,8.211 8.44834248,8.049 8.71534248,8.156 C8.98434248,8.425 9.36034248,8.639 9.62734248,8.908 C9.78934248,9.122 9.73534248,9.445 9.78934248,9.766 C9.62734248,10.84 9.36034248,11.912 9.03834248,12.986 C7.80334248,18.942 12.4173425,12.128 13.0623425,11.162 C13.5453425,10.464 14.1893425,9.82 14.6713425,9.122 L14.6713425,9.122 Z" id="Fill-542" fill="#000000"></path>
                <path d="M37.3173425,29.568 C37.2633425,29.835 37.2633425,30.157 37.2633425,30.425 C37.1553425,30.533 37.2633425,30.586 37.3173425,30.694 C37.4233425,30.962 37.6383425,31.231 37.9073425,31.338 C37.9603425,31.338 37.9603425,31.338 38.0143425,31.284 C38.0673425,31.231 38.1743425,31.177 38.2293425,31.123 C39.1403425,30.157 39.7853425,28.923 40.3213425,27.689 C40.5893425,27.259 40.6973425,26.777 40.8583425,26.401 C39.6243425,25.864 39.0343425,26.348 38.3353425,27.259 C37.7463425,28.118 37.6383425,28.601 37.3173425,29.568 Z M42.0923425,19.103 C41.9843425,18.46 41.8773425,17.976 41.7163425,17.386 C41.5553425,16.849 41.3403425,16.42 40.9653425,16.098 C40.7503425,15.884 40.5893425,15.615 40.2683425,15.454 C39.9463425,15.186 39.6773425,14.971 39.3013425,14.757 C38.6583425,14.22 37.4773425,15.347 37.1013425,15.723 C35.6533425,17.762 37.0483425,20.552 38.3893425,22.001 C39.9463425,25.06 42.7903425,23.986 42.1463425,20.391 C42.2523425,19.962 42.2523425,19.479 42.0923425,19.103 Z M35.7073425,21.249 C35.1163425,20.283 34.8483425,19.103 34.6873425,17.869 C34.5263425,16.957 34.7943425,16.098 35.2773425,15.24 C35.3313425,15.132 35.4383425,15.025 35.6533425,14.971 C36.0833425,14.596 36.6193425,14.274 37.2633425,13.898 C37.7463425,13.576 38.3893425,13.523 38.9803425,13.63 C39.4093425,13.63 40.5893425,14.703 40.8583425,14.918 C41.1803425,15.186 41.5013425,15.508 41.8773425,15.723 C42.3603425,16.152 42.6823425,16.634 42.9513425,17.332 C43.1123425,17.762 43.2183425,18.137 43.4343425,18.513 C43.5943425,18.996 43.6483425,19.532 43.7553425,20.069 C43.8093425,20.552 43.8093425,20.928 43.9173425,21.357 C43.9693425,21.411 43.9693425,21.411 43.9693425,21.518 C43.8093425,20.659 44.0243425,21.894 43.9693425,22.054 C43.9173425,22.699 44.0783425,23.289 43.9173425,23.879 C43.7553425,24.201 44.0783425,24.577 44.5063425,24.577 C47.1363425,24.416 48.1563425,24.791 50.7313425,24.362 C51.0003425,24.255 51.2683425,24.094 51.5893425,23.932 C51.6973425,23.879 51.8583425,23.772 51.9653425,23.718 C52.0733425,23.879 52.0193425,24.094 51.9653425,24.201 C51.8043425,24.469 52.3413425,24.577 52.1263425,24.791 C50.5173425,26.508 45.5803425,26.455 43.6483425,26.455 C43.5943425,26.455 43.5413425,26.455 43.4873425,26.455 C43.3263425,26.455 43.1663425,26.508 43.1663425,26.616 C43.1663425,26.723 43.1123425,26.777 43.0583425,26.883 C42.8973425,27.797 42.4143425,28.654 42.0393425,29.568 C41.7703425,30.211 41.3943425,30.694 41.0183425,31.177 C40.8043425,31.499 40.5893425,31.874 40.2683425,32.089 C40.1613425,32.143 40.0523425,32.25 39.8923425,32.357 C39.7853425,32.411 39.6243425,32.518 39.5703425,32.679 C39.1403425,33.162 38.6583425,33.538 38.0673425,33.699 C37.9603425,33.699 37.6923425,33.806 37.5313425,33.914 C36.7803425,34.128 36.0293425,34.074 35.3313425,33.968 C34.3653425,33.86 33.7213425,33.162 33.1843425,32.25 C33.0233425,31.82 32.8633425,31.284 32.7013425,30.801 C32.5943425,29.835 32.5413425,28.869 32.6483425,27.85 C32.7553425,26.83 33.0773425,25.864 33.5603425,24.899 C34.0423425,23.718 34.7413425,22.699 35.5453425,21.732 C35.7073425,21.679 35.7073425,21.572 35.7603425,21.411 C35.7603425,21.357 35.7603425,21.303 35.7073425,21.249 L35.7073425,21.249 Z" id="Fill-543" fill="#000000"></path>
                <path d="M66.6153425,24.416 C66.2923425,24.845 65.9703425,25.328 65.6493425,25.757 C65.2733425,26.294 64.9513425,26.83 64.6823425,27.42 C64.6823425,27.474 64.6823425,27.582 64.6293425,27.582 C64.2533425,28.118 63.9323425,28.654 63.5563425,29.084 C62.9653425,29.728 62.4293425,30.318 61.8383425,30.908 C61.2483425,31.445 60.6593425,31.874 60.0143425,32.25 C59.6383425,32.465 57.7073425,33.485 57.2783425,33.485 C56.7943425,33.538 55.0243425,33.323 54.5413425,33.485 C53.7903425,33.645 52.1793425,32.948 51.4823425,32.679 C50.7313425,32.357 50.0343425,31.982 49.3893425,31.499 C48.3703425,30.694 47.8333425,29.568 47.6723425,28.011 C47.5653425,27.099 47.5653425,26.186 47.6723425,25.274 C47.7263425,24.737 47.8333425,24.201 47.9953425,23.665 C48.1563425,23.289 48.2623425,22.913 48.4233425,22.537 C48.7993425,21.357 49.4433425,20.391 49.9793425,19.371 C50.1413425,19.157 50.2483425,18.942 50.4093425,18.728 C50.8383425,18.084 51.2673425,17.493 51.8043425,17.064 C52.4483425,16.528 53.0393425,15.937 53.7363425,15.454 C54.1123425,15.186 54.4873425,15.079 54.8633425,15.079 C55.0243425,15.079 55.1853425,15.025 55.3463425,14.971 C55.7753425,14.757 56.2053425,14.649 56.5803425,14.703 C56.6333425,14.757 56.6333425,14.757 56.6333425,14.703 C57.2783425,14.649 57.8683425,14.864 58.4053425,15.24 C58.4583425,15.24 58.5123425,15.294 58.5653425,15.294 C58.6193425,15.294 58.6723425,15.294 58.7263425,15.24 C58.8873425,15.132 58.9953425,15.079 59.1563425,15.186 C59.3173425,15.347 59.4243425,15.508 59.3713425,15.777 C59.2633425,16.045 59.3173425,16.259 59.4243425,16.474 C59.4783425,16.528 59.4243425,16.634 59.4783425,16.689 C59.3713425,16.849 59.2633425,17.01 59.1563425,17.172 C59.2093425,17.493 59.2633425,17.815 59.3713425,18.137 C59.4783425,18.62 59.5313425,19.157 59.5313425,19.64 C59.5313425,19.908 59.5313425,20.176 59.4783425,20.445 C59.2633425,21.411 58.9413425,22.323 58.5653425,23.182 C58.4053425,23.557 58.1903425,23.772 57.8683425,23.825 C57.7603425,23.825 57.6533425,23.879 57.5463425,23.879 C57.3843425,23.879 57.2783425,23.825 57.2243425,23.772 C56.9563425,23.503 56.5803425,23.343 56.2583425,23.182 C56.2053425,23.128 56.1513425,23.128 56.0973425,23.074 C55.9363425,22.966 55.8293425,22.806 55.8823425,22.537 C55.9363425,22.269 55.9903425,22.001 56.0433425,21.786 C56.3653425,20.713 56.6333425,19.694 57.0633425,18.674 C57.0633425,18.62 57.0633425,18.513 57.1173425,18.352 C57.0093425,18.46 56.9563425,18.46 56.9023425,18.513 C56.5803425,19.211 56.0433425,19.747 55.6143425,20.337 C55.1853425,20.928 54.8093425,21.572 54.4873425,22.269 C54.0583425,23.182 53.6283425,24.04 53.1993425,24.952 C52.7703425,25.757 52.5013425,26.669 52.2333425,27.582 C52.1263425,27.85 52.1263425,28.118 52.0733425,28.44 C52.0193425,28.816 52.0733425,29.191 52.2333425,29.568 C52.3953425,29.889 52.5553425,30.265 52.7163425,30.64 C52.8243425,30.855 52.9853425,31.069 53.1453425,31.284 C53.4143425,31.606 54.7553425,31.069 55.1303425,31.016 C56.3123425,30.855 58.8333425,29.782 59.8533425,28.869 C60.6593425,28.172 62.1613425,27.099 62.8583425,26.294 C63.1263425,25.971 63.3953425,25.65 63.6643425,25.328 C64.1463425,24.684 65.6493425,23.611 66.1313425,22.913 C66.4003425,22.537 67.2583425,22.054 67.5273425,21.679 C67.6883425,21.465 67.5273425,22.43 67.7953425,22.269 C67.6883425,22.752 66.9363425,24.04 66.6153425,24.416" id="Fill-544" fill="#000000"></path>
                <path d="M73.2133425,23.718 C73.0003425,24.255 72.8383425,24.737 72.5703425,25.114 C72.3553425,25.65 72.0333425,26.026 71.8733425,26.508 C71.2823425,27.366 72.9453425,26.83 73.2673425,26.508 C74.5553425,25.543 75.4673425,24.04 76.1653425,22.377 C77.0243425,19.586 76.0043425,19.854 74.6633425,21.572 C74.0733425,22.215 73.5363425,22.966 73.2133425,23.718 Z M63.4483425,27.045 C63.4483425,27.099 63.4483425,27.099 63.4483425,27.206 C63.4483425,27.528 63.4483425,27.85 63.4483425,28.172 C63.5553425,27.528 63.5553425,27.474 63.4483425,27.045 Z M74.7703425,32.035 C75.0393425,32.572 75.3613425,33.109 75.6823425,33.538 C75.8973425,33.968 76.2183425,34.182 76.5943425,34.182 C77.2393425,34.343 77.7753425,34.235 78.3123425,34.021 C78.8483425,33.86 80.7803425,32.303 81.3703425,32.035 C81.5843425,31.928 83.7853425,29.568 84.0533425,29.406 C84.9123425,28.494 85.5553425,27.366 86.2533425,26.24 C86.7903425,25.382 87.2193425,24.416 87.7553425,23.557 C87.8643425,23.343 87.9703425,23.128 88.0783425,22.86 C88.1313425,22.591 88.1853425,22.43 88.2393425,22.215 C88.5073425,22.966 89.2053425,22.377 88.9903425,22.913 C88.8823425,23.182 88.8303425,23.449 88.8303425,23.611 C88.7763425,24.148 87.9703425,25.22 87.8093425,25.596 C87.5423425,26.348 87.3273425,27.045 86.8973425,27.742 L86.8973425,27.85 C86.5763425,28.494 86.0923425,29.191 85.7703425,29.889 C85.3953425,30.318 82.8733425,33.109 82.4443425,33.485 C82.0683425,33.806 81.7993425,33.914 81.5313425,34.021 C80.7263425,34.45 78.6333425,36.168 77.8293425,36.382 C77.2923425,36.489 76.7023425,36.651 76.1653425,36.651 C75.3063425,36.703 74.4483425,36.382 73.8583425,35.792 C73.5893425,35.469 73.2673425,35.094 73.0003425,34.718 C72.4093425,33.699 71.6583425,32.572 71.1223425,31.391 C70.6383425,30.801 70.4773425,30.318 69.9943425,31.016 C69.8873425,31.177 69.8873425,31.499 69.7793425,31.66 C69.5653425,31.982 69.4043425,32.303 69.2433425,32.626 C69.1353425,33.002 68.9213425,33.377 68.7593425,33.645 C68.5453425,33.86 68.3843425,33.968 68.1163425,33.914 C67.9023425,33.914 67.5803425,33.914 67.3113425,34.182 C66.1843425,34.665 65.7553425,34.665 64.9503425,33.968 C63.9303425,33.323 63.5553425,32.196 63.3403425,31.016 C63.2873425,30.908 63.2873425,30.855 63.2873425,30.694 C63.4483425,29.889 63.2873425,29.03 63.2333425,28.172 C63.1253425,27.099 63.2333425,26.026 63.2873425,24.952 C63.3403425,24.469 63.4483425,24.04 63.4483425,23.557 C63.5013425,22.054 63.9303425,20.606 64.3063425,19.157 C64.5753425,18.298 64.8423425,17.386 65.1653425,16.581 C65.6483425,15.079 66.2923425,13.576 66.9353425,12.074 C67.3113425,11.429 67.5263425,10.732 67.9023425,10.142 C68.8133425,8.156 69.9943425,6.225 71.0673425,4.454 C71.8733425,3.327 72.6243425,2.254 73.5363425,1.395 C73.9113425,1.073 74.2873425,0.697 74.7163425,0.376 C75.0923425,0.054 75.5753425,0.054 76.0583425,0 C76.1113425,0 76.2183425,0.161 76.3273425,0.215 C76.5943425,0.805 77.2393425,1.18 77.7753425,1.61 C78.6873425,2.308 79.4933425,3.166 80.2443425,4.346 C80.5653425,4.776 80.7803425,5.474 80.7803425,6.117 C80.7803425,6.225 80.7803425,6.44 80.7803425,6.6 C80.7263425,6.868 80.4043425,7.083 80.2443425,7.083 C80.1363425,6.976 79.9753425,6.923 79.8683425,6.868 C79.7603425,6.708 79.5453425,6.6 79.4383425,6.44 C78.9023425,6.01 78.4723425,6.064 77.8823425,6.654 C77.3993425,7.083 76.9173425,7.674 76.3793425,8.156 C76.3273425,8.371 76.1653425,8.532 76.0583425,8.694 C75.5213425,9.551 74.9303425,10.303 74.3943425,11.054 C74.3943425,11.162 74.2873425,11.322 74.2333425,11.429 C74.0193425,11.966 73.8043425,12.503 73.4283425,13.093 C73.0533425,13.845 72.6243425,14.596 72.2483425,15.454 C72.0333425,15.83 71.8733425,16.152 71.6583425,16.581 C71.2283425,17.601 70.6923425,18.674 70.2623425,19.747 C69.6723425,21.035 69.1353425,22.377 68.7593425,23.718 C68.7073425,24.04 68.5993425,24.255 68.5453425,24.523 C68.3843425,25.22 68.2773425,25.971 68.0623425,26.562 C67.8473425,28.279 68.3313425,28.225 68.7073425,27.635 C69.5113425,26.401 70.1013425,24.952 71.0133425,23.718 C71.9263425,22.43 72.9453425,21.142 74.0733425,20.069 C75.2523425,19.157 76.3273425,18.835 77.5603425,19.049 C77.8293425,19.049 78.0433425,19.211 78.2053425,19.532 C78.2583425,19.694 78.3123425,19.747 78.4183425,19.908 C78.8483425,20.498 79.0093425,21.142 79.0093425,21.894 C79.0093425,23.182 78.8483425,24.469 78.4183425,25.811 C78.3653425,26.026 78.3653425,26.133 78.3123425,26.348 C78.0433425,27.045 77.7753425,27.635 77.2923425,28.279 C76.9703425,28.548 76.7553425,28.869 76.4873425,29.084 C76.1113425,29.568 75.6823425,29.889 75.2523425,30.05 C75.0393425,30.103 74.7703425,30.211 74.5553425,30.318 C74.3943425,30.318 74.3943425,30.533 74.2333425,30.586 C74.2873425,31.231 74.5553425,31.66 74.7703425,32.035 L74.7703425,32.035 Z" id="Fill-545" fill="#000000"></path>
                <path d="M91.1373425,28.601 C90.2253425,29.084 89.0443425,29.03 88.4543425,29.191 C87.9713425,29.191 86.7373425,28.923 86.3623425,28.709 C85.0203425,27.903 84.9663425,27.528 84.6983425,25.757 C84.5373425,25.328 84.6433425,24.362 84.9663425,23.503 C85.2343425,22.269 88.1313425,17.815 88.6153425,16.689 C88.8833425,16.098 89.1513425,15.508 89.5813425,14.864 C89.7423425,14.488 90.0103425,14.381 90.2793425,14.22 C90.6543425,14.059 91.0293425,14.059 91.2973425,13.791 C92.1033425,13.362 91.5123425,12.986 92.0493425,12.932 C92.5853425,12.932 92.9613425,13.147 93.2303425,13.523 C93.4453425,13.576 93.4453425,13.845 93.6593425,14.059 C93.8203425,14.166 93.7663425,14.381 93.7663425,14.596 C93.4453425,15.937 92.2633425,18.46 91.9423425,19.747 C91.6733425,20.123 91.5663425,21.625 91.4593425,21.947 C91.3513425,22.484 91.2453425,22.966 90.9763425,23.503 C90.8693425,23.932 90.6003425,24.737 90.8693425,24.952 C91.0833425,25.22 91.1913425,26.133 91.5123425,26.026 C92.8003425,25.328 94.5173425,25.274 95.2143425,24.416 C95.6443425,23.825 95.9133425,24.094 96.3423425,23.557 C96.7173425,23.182 96.8253425,22.86 96.9863425,22.591 C97.3083425,21.894 97.3623425,22.108 97.6303425,21.518 C97.9523425,20.82 98.4343425,20.176 98.8643425,19.586 C99.0253425,19.103 99.2403425,18.781 99.5623425,18.352 C100.098342,18.191 100.044342,18.245 100.259342,18.298 C101.064342,18.245 100.366342,18.298 100.849342,18.566 C100.957342,18.781 100.849342,18.996 101.010342,19.103 C100.634342,20.123 100.582342,21.196 100.098342,22.377 C99.9373425,22.752 100.044342,22.377 99.7223425,22.86 C99.7763425,23.182 99.5623425,23.665 99.3473425,24.094 C99.1323425,24.577 99.1863425,25.166 98.8643425,25.596 C98.4343425,27.42 98.2203425,28.386 98.2203425,28.601 C98.0593425,29.299 99.9373425,29.782 101.815342,29.191 C103.049342,28.654 105.250342,26.562 106.269342,24.899 C106.645342,24.255 106.967342,23.611 107.557342,22.752 C108.093342,21.786 108.523342,23.396 108.308342,23.772 C108.147342,24.04 108.040342,24.255 107.986342,24.416 C107.557342,24.737 107.074342,26.455 106.699342,26.777 C106.591342,26.883 106.645342,27.045 106.376342,27.152 C105.679342,28.065 104.284342,29.568 103.210342,30.425 C102.728342,30.533 102.673342,30.694 102.191342,30.908 C101.815342,31.284 101.708342,31.338 101.225342,31.606 C100.849342,31.767 100.796342,31.82 100.634342,31.982 C100.206342,31.874 100.098342,32.035 99.9373425,32.143 C98.9173425,32.733 94.5713425,32.948 94.2493425,31.123 C93.9813425,29.46 93.7123425,28.548 94.1963425,26.723 C94.1963425,26.562 94.1963425,26.562 94.1963425,26.508 C93.4453425,27.259 92.0493425,28.011 91.1373425,28.601" id="Fill-546" fill="#000000"></path>
                <path d="M114.532342,28.816 C114.210342,28.977 113.996342,29.352 113.996342,29.996 C114.048342,30.265 114.210342,30.479 114.371342,30.479 C114.479342,30.372 114.639342,30.372 114.747342,30.265 C115.014342,30.103 115.283342,29.889 115.445342,29.62 C116.035342,28.816 116.249342,27.957 116.088342,28.279 C115.498342,28.548 115.014342,28.44 114.532342,28.816 Z M120.810342,24.577 C120.864342,25.918 121.293342,25.435 123.279342,25.114 C123.922342,25.006 124.888342,24.737 125.854342,23.772 C126.337342,23.289 126.927342,23.879 127.196342,24.148 C127.196342,24.362 126.499342,25.435 126.391342,25.543 C124.137342,26.883 122.957342,26.883 121.293342,27.099 C119.952342,27.42 119.844342,28.118 119.362342,29.191 L119.147342,29.62 C118.986342,30.265 118.610342,30.748 118.342342,31.231 C118.234342,31.338 118.127342,31.499 118.020342,31.552 L117.483342,32.196 C117.268342,32.572 116.947342,33.002 116.571342,33.269 L116.196342,33.699 L115.659342,34.182 C115.498342,34.235 115.336342,34.235 115.176342,34.182 C115.014342,34.074 114.800342,33.914 114.639342,33.86 C114.585342,33.699 114.585342,33.538 114.585342,33.377 C114.479342,32.894 114.317342,32.465 113.834342,32.411 C113.620342,32.303 113.458342,32.089 113.297342,31.928 C113.083342,31.606 112.922342,31.499 112.654342,31.338 C112.171342,31.016 112.063342,30.157 112.493342,29.46 C112.708342,28.977 112.976342,28.709 113.297342,28.494 C113.620342,28.225 113.996342,28.011 114.371342,27.85 C115.014342,27.42 115.605342,27.42 116.302342,27.099 C116.678342,26.883 116.947342,26.508 117.162342,25.918 C117.537342,24.523 117.966342,22.484 118.127342,21.035 L118.127342,19.211 C118.127342,19.103 118.127342,18.996 118.074342,18.888 C118.020342,18.62 117.751342,18.513 117.590342,18.728 C117.483342,18.781 117.430342,18.835 117.376342,18.996 C117.000342,19.586 116.625342,20.176 116.356342,20.82 C115.551342,22.377 114.800342,24.04 113.996342,25.543 C113.405342,26.669 112.869342,27.689 112.385342,28.869 C111.581342,30.801 109.756342,32.733 109.059342,34.826 C108.897342,35.202 108.791342,35.577 108.468342,35.792 C108.200342,35.899 108.093342,36.328 108.093342,36.651 C108.093342,37.026 108.040342,37.455 107.931342,37.777 C107.825342,37.991 107.717342,38.206 107.610342,38.314 C107.288342,38.689 107.180342,38.957 107.019342,39.226 C106.483342,40.568 106.053342,41.909 105.946342,43.358 C105.893342,44.002 105.893342,44.646 105.731342,45.289 C105.678342,45.772 105.463342,46.148 105.087342,46.309 C104.820342,46.47 104.605342,46.685 104.444342,47.114 C104.390342,47.168 104.229342,47.383 104.175342,47.383 C104.014342,47.383 103.960342,47.757 103.854342,47.919 L103.799342,47.919 C102.942342,48.08 102.405342,47.436 102.083342,46.416 C101.760342,45.397 101.654342,44.27 101.600342,43.197 C101.493342,40.621 101.654342,38.153 101.976342,35.577 C102.083342,34.557 102.297342,33.485 102.458342,32.518 C102.673342,30.855 103.048342,29.191 103.478342,27.635 C104.068342,25.274 104.711342,22.966 105.410342,20.713 C105.571342,20.176 105.786342,19.694 105.946342,19.049 C106.590342,17.44 107.127342,15.723 107.771342,14.059 C108.040342,13.254 108.468342,12.342 108.844342,11.537 C109.113342,11.322 109.380342,11.322 109.649342,11.537 L110.937342,12.342 L110.991342,12.396 C111.795342,13.362 112.279342,14.542 112.439342,16.152 C112.546342,16.957 112.493342,17.869 112.279342,18.781 C111.957342,20.069 111.581342,21.465 111.097342,22.806 C110.776342,23.665 110.454342,24.737 110.131342,25.703 C109.273342,28.709 110.991342,28.333 111.366342,27.42 C111.527342,26.991 112.332342,25.918 112.493342,25.382 L114.263342,21.732 C114.532342,21.035 114.800342,20.552 115.230342,20.015 C115.605342,19.586 115.981342,19.049 116.411342,18.62 C116.732342,18.298 117.214342,18.03 117.590342,18.03 L118.502342,18.03 C118.986342,17.923 119.416342,18.352 119.844342,18.728 C120.113342,18.888 120.328342,19.318 120.381342,19.747 C120.434342,20.176 120.542342,20.659 120.542342,21.035 L120.756342,22.591 L120.810342,24.577 L120.810342,24.577 Z" id="Fill-547" fill="#000000"></path>
            </g>
        </g>
    </g>
</svg>