<?xml version="1.0" encoding="UTF-8"?>
<svg width="196px" height="58px" viewBox="0 0 196 58" version="1.1" xmlns="http://www.w3.org/2000/svg" xmlns:xlink="http://www.w3.org/1999/xlink">
    <title>Alyvia</title>
    <g id="Page-1" stroke="none" stroke-width="1" fill="none" fill-rule="evenodd">
        <path d="M12.3,45 C12.6,45 12.72,44.64 12.48,44.52 C11.76,44.34 10.74,43.68 10.74,42.06 C10.74,41.64 10.8,41.16 10.92,40.56 L11.4,39.06 L21.24,39.06 L21.72,40.56 C21.84,41.16 21.96,41.64 21.96,42.06 C21.96,43.68 20.88,44.34 20.16,44.52 C19.92,44.58 19.92,45 20.34,45 L37.38,45 C37.68,45 37.8,44.64 37.62,44.52 C36.72,44.04 35.52,42.96 34.86,40.68 L34.74,40.26 C31.5,29.7 28.5,19.8 25.26,9.3 C25.08,8.64 25.02,8.16 25.02,7.74 C25.02,6.9 25.32,6.48 25.62,6.24 C25.86,6 25.74,5.7 25.44,5.7 L12,5.7 L12,5.76 C11.64,5.76 11.58,6 11.82,6.24 C12.12,6.48 12.42,6.9 12.42,7.74 C12.42,8.1 12.36,8.64 12.18,9.24 L3.12,40.2 C2.4,42.72 1.2,43.98 0.24,44.52 C0.06,44.64 0.18,45 0.48,45 L12.3,45 Z M19.32,32.76 L13.2,32.76 L16.2,22.56 L19.32,32.76 Z M57.3133333,45.06 C57.5533333,45 57.6733333,44.7 57.4933333,44.58 C56.9533333,44.1 56.2933333,43.2 56.1133333,41.64 L56.1133333,6.12 C56.1133333,4.08 56.9533333,2.46 57.6133333,1.5 C57.7333333,1.32 57.5533333,1.14 57.3733333,1.26 C54.2533333,3 49.2133333,4.08 44.8933333,4.08 C43.9933333,4.08 43.0933333,4.08 42.2533333,3.96 C42.1333333,3.96 42.0733333,4.08 42.1333333,4.2 C42.7333333,4.68 43.5133333,5.88 43.5133333,8.52 L43.5133333,41.22 C43.4533333,43.08 42.6733333,44.04 42.0733333,44.58 C41.8933333,44.7 42.0133333,45.06 42.2533333,45.06 L57.3133333,45.06 Z M77.9666667,57.42 C82.7666667,57.42 87.5666667,56.1 90.7466667,54.24 C97.4066667,50.4 98.6666667,43.8 98.7266667,37.86 L98.7266667,16.98 C98.7266667,14.94 99.5666667,13.38 100.166667,12.48 C100.286667,12.3 100.106667,12.12 99.9266667,12.24 C96.8066667,13.98 91.7666667,15.12 87.4466667,15.12 C86.5466667,15.12 85.6466667,15.06 84.8066667,14.94 C84.6866667,14.94 84.5666667,15.12 84.6866667,15.18 C85.2866667,15.66 86.0066667,16.86 86.0666667,19.56 C86.0666667,23.76 86.0066667,28.02 86.0066667,32.1 C86.0066667,35.52 85.7066667,38.7 81.7466667,38.7 C81.4466667,38.7 81.0866667,38.64 80.7266667,38.64 C76.4066667,37.8 75.9866667,32.88 75.9866667,25.14 L75.9866667,18.78 C76.1066667,16.98 76.8266667,15.96 77.4266667,15.48 C77.6066667,15.3 77.4866667,15 77.2466667,15 L62.1866667,15 C62.0666667,15 61.9466667,15.12 61.9466667,15.3 C61.9466667,15.36 61.9466667,15.42 62.0066667,15.48 C62.5466667,15.96 63.2666667,16.8 63.3866667,18.36 L63.3866667,26.16 C63.3866667,36.18 64.0466667,40.92 71.4266667,44.76 C74.0066667,45.66 76.2866667,46.08 78.2666667,46.08 C81.6866667,46.08 84.2666667,44.82 86.0666667,42.66 L86.0666667,42.84 C86.0666667,44.46 85.3466667,48.42 79.9466667,49.44 C78.9866667,49.62 78.0266667,49.74 77.0666667,49.74 C73.2866667,49.74 69.9266667,48.42 68.4266667,46.5 C68.1866667,46.14 67.5866667,46.2 67.3466667,46.56 L64.8866667,50.64 C64.5266667,51.24 64.6466667,51.96 65.0666667,52.44 C68.2466667,56.04 73.1066667,57.42 77.9666667,57.42 Z M129.88,45 C130.24,45 130.36,44.7 130.12,44.58 C129.22,44.28 128.44,43.2 128.44,42.06 C128.44,41.82 128.5,41.58 128.56,41.34 L134.68,18.96 C135.04,17.16 135.52,16.14 136.06,15.6 C136.3,15.48 136.18,15.18 135.94,15.18 L125.56,15.12 C125.02,15.12 124.9,15.42 125.08,15.54 C125.68,16.02 126.46,16.62 126.46,18.12 L126.46,18.48 C126.16,22.8 124.24,33.18 122.08,36.42 C119.5,30.3 118.9,22.8 118.9,20.52 L118.9,20.04 C118.96,17.28 119.5,15.84 120.1,15.36 C120.16,15.24 120.1,15.12 119.98,15.12 L104.74,15.12 C104.56,15.12 104.38,15.24 104.56,15.42 C105.04,15.72 105.7,16.02 106.12,17.64 L112.48,41.22 C112.54,41.46 112.54,41.7 112.54,41.88 C112.54,43.26 111.58,44.22 111.04,44.58 C110.86,44.7 110.98,45 111.22,45 L129.88,45 Z M156.173333,45 C156.473333,45 156.593333,44.64 156.353333,44.52 C155.693333,43.92 154.913333,42.84 154.793333,40.86 L154.793333,17.22 C154.853333,15.24 155.453333,14.76 155.933333,12.48 C156.173333,11.58 156.293333,10.68 156.293333,9.78 C156.293333,6.66 154.793333,4.08 152.813333,2.58 C151.433333,1.62 150.113333,0.9 147.533333,0.84 C142.133333,1.14 139.613333,4.56 139.613333,7.74 C139.733333,10.74 142.253333,12.9 146.093333,12.9 C146.453333,12.9 146.813333,12.9 147.173333,12.84 C150.233333,12.54 152.633333,10.98 153.893333,8.76 C153.353333,12.78 149.753333,15.48 144.893333,15.48 C143.513333,15.48 142.013333,15.3 140.513333,14.82 C140.333333,14.76 140.273333,15 140.393333,15.12 C140.993333,15.66 141.833333,16.92 141.833333,19.86 L141.893333,41.34 C141.713333,43.02 140.933333,43.98 140.333333,44.52 C140.153333,44.64 140.273333,45 140.513333,45 L156.173333,45 Z M172.386667,45.72 C173.046667,45.72 173.646667,45.66 174.306667,45.66 C177.246667,45.3 179.646667,43.62 181.386667,41.76 C181.206667,43.2 180.546667,44.04 180.006667,44.52 C179.826667,44.7 179.946667,45 180.186667,45 L195.246667,45 C195.486667,45 195.606667,44.7 195.426667,44.52 C194.826667,43.98 194.046667,43.02 193.986667,41.22 L193.986667,16.8 C193.986667,14.7 194.826667,13.08 195.426667,12.12 C195.546667,12 195.366667,11.76 195.186667,11.88 C192.126667,13.62 187.086667,14.7 182.766667,14.7 C181.866667,14.7 180.966667,14.64 180.126667,14.58 C180.006667,14.58 179.946667,14.7 180.066667,14.82 C180.426667,15.18 180.966667,15.84 181.206667,17.16 C180.006667,15.96 178.446667,14.82 176.286667,14.34 C175.506667,14.22 174.786667,14.16 174.066667,14.16 C170.346667,14.16 167.106667,15.72 164.766667,17.88 C161.526667,20.76 159.426667,24.96 159.186667,30.3 L159.186667,31.02 C159.186667,35.4 160.806667,39.48 163.566667,42.24 C166.206667,44.94 168.966667,45.72 172.386667,45.72 Z M175.746667,38.82 L175.206667,38.82 C171.366667,38.46 169.446667,34.38 169.446667,30.36 C169.446667,26.16 171.546667,22.02 175.926667,21.96 C178.926667,21.96 181.386667,24.6 181.386667,28.68 L181.386667,31.68 C181.386667,35.4 179.226667,38.82 175.746667,38.82 Z" id="Alyvia" fill="#2C343C" fill-rule="nonzero"></path>
    </g>
</svg>